<svg width="100" height="100" viewBox="0 0 100 100" fill="none" xmlns="http://www.w3.org/2000/svg">
<path d="M87.7919 26.8721L51.0147 9.11794C50.6887 8.96069 50.309 8.96069 49.9831 9.11794L13.2058 26.8721C12.7957 27.07 12.5352 27.4853 12.5352 27.9406V71.0587C12.5352 71.514 12.7957 71.9293 13.2058 72.1272L49.9829 89.8817C50.1459 89.9604 50.3224 89.9998 50.4988 89.9998C50.6752 89.9998 50.8516 89.9604 51.0147 89.8817L87.7919 72.1272C88.202 71.9293 88.4625 71.514 88.4625 71.0587V27.9408C88.4625 27.4853 88.2018 27.0702 87.7919 26.8721ZM50.4988 11.504L84.5468 27.9408L74.677 32.7056C74.6145 32.6579 74.5486 32.614 74.4761 32.579L40.6594 16.254L50.4988 11.504ZM37.9798 17.5956L71.9782 34.0085L65.0149 37.3702L31.0305 20.9637L37.9798 17.5956ZM66.2695 39.3996L72.7737 36.2596V48.6858L66.2695 51.8258V39.3996ZM51.6854 86.923V46.44L59.8918 42.4782C60.4819 42.1933 60.7294 41.4841 60.4444 40.8938C60.1595 40.3039 59.4503 40.0561 58.86 40.3412L50.4988 44.3778L47.2089 42.7894C46.6186 42.5042 45.9094 42.7519 45.6244 43.342C45.3395 43.9321 45.587 44.6415 46.1771 44.9264L49.3123 46.44V86.9229L14.9082 70.3141V29.831L41.1066 42.4785C41.2729 42.5589 41.4487 42.5969 41.6216 42.5969C42.0627 42.5969 42.4863 42.3498 42.6909 41.9259C42.9758 41.3358 42.7284 40.6265 42.1383 40.3415L16.4508 27.9406L28.2378 22.2504L63.88 39.4572C63.8852 39.4645 63.8911 39.4709 63.8964 39.4781V53.7162C63.8964 54.1245 64.1064 54.504 64.4522 54.7213C64.6443 54.8418 64.8634 54.9027 65.0831 54.9027C65.259 54.9027 65.4354 54.8636 65.5989 54.7847L74.4761 50.4991C74.8862 50.3012 75.1467 49.8861 75.1467 49.4306V35.114L86.0895 29.8313V70.3144L51.6854 86.923Z" fill="#0F6176"/>
<path d="M24.7014 65.7126L19.3043 63.1072C18.7138 62.822 18.0048 63.0697 17.7199 63.6598C17.4349 64.2499 17.6824 64.9593 18.2725 65.2442L23.6696 67.8497C23.8358 67.93 24.0116 67.968 24.1845 67.968C24.6256 67.968 25.0492 67.7209 25.2538 67.297C25.5389 66.7068 25.2915 65.9976 24.7014 65.7126Z" fill="#0F6176"/>
<path d="M29.6687 62.4795L19.312 57.4796C18.7217 57.1947 18.0125 57.4421 17.7276 58.0324C17.4428 58.6225 17.6902 59.3319 18.2803 59.6168L28.6371 64.6167C28.8034 64.6969 28.9791 64.735 29.1521 64.735C29.5931 64.735 30.0168 64.4879 30.2214 64.0641C30.5063 63.4738 30.2588 62.7643 29.6687 62.4795Z" fill="#0F6176"/>
</svg>
