<svg width="180" height="180" viewBox="0 0 180 180" fill="none" xmlns="http://www.w3.org/2000/svg">
<g clip-path="url(#clip0)">
<path d="M30.3201 95.9202V48.4C30.3201 44.8209 33.2211 41.92 36.8001 41.92H123.2C126.779 41.92 129.68 44.8209 129.68 48.4V62.1289H129.661L129.68 62.1787V95.9202C129.663 96.296 129.615 96.6718 129.533 97.0392L109.748 77.2513C105.195 72.8039 97.9002 72.888 93.4528 77.4413C89.2105 81.7829 89.0636 88.6689 93.1159 93.1878L101.551 102.4H36.7999C33.2208 102.4 30.3201 99.4993 30.3201 95.9202Z" fill="#E97644"/>
<path d="M45.4408 74.3203H36.8008V78.6404H45.4408V74.3203Z" fill="#1A535C"/>
<path d="M45.4408 87.2803H36.8008V91.6004H45.4408V87.2803Z" fill="#1A535C"/>
<path d="M84.3236 87.2803H75.6836V91.6004H84.3236V87.2803Z" fill="#1A535C"/>
<path d="M58.4017 74.3203H49.7617V78.6404H58.4017V74.3203Z" fill="#1A535C"/>
<path d="M71.3587 74.3203H62.7188V78.6404H71.3587V74.3203Z" fill="#1A535C"/>
<path d="M84.3236 74.3203H75.6836V78.6404H84.3236V74.3203Z" fill="#1A535C"/>
<path d="M121.039 48.3999H116.719V54.8799H121.039V48.3999Z" fill="#1A535C"/>
<path d="M112.398 48.3999H108.078V54.8799H112.398V48.3999Z" fill="#1A535C"/>
<path d="M103.758 48.3999H99.4375V54.8799H103.758V48.3999Z" fill="#1A535C"/>
<path d="M95.1209 48.3999H90.8008V54.8799H95.1209V48.3999Z" fill="#1A535C"/>
<path d="M125.359 149.92H121.039V154.241H125.359V149.92Z" fill="#0F6176"/>
<path d="M43.2808 54.8799H36.8008V59.2H43.2808V54.8799Z" fill="#1A535C"/>
<path d="M54.0816 54.8799H47.6016V59.2H54.0816V54.8799Z" fill="#1A535C"/>
<path d="M140.481 113.2C139.908 113.2 139.358 112.973 138.954 112.567L130.314 103.927C129.484 103.07 129.508 101.703 130.368 100.873C131.206 100.065 132.532 100.065 133.368 100.873L142.008 109.513C142.85 110.358 142.85 111.725 142.008 112.567C141.602 112.973 141.053 113.2 140.481 113.2Z" fill="#1A535C"/>
<path d="M134 60.4832V48.4C133.994 42.4384 129.162 37.6065 123.2 37.6001H36.7999C30.8383 37.6065 26.0064 42.4384 26 48.4V95.92C26.0172 101.437 30.1968 106.048 35.6854 106.608L43.8048 127.685C45.9496 133.251 52.1986 136.025 57.7648 133.88L108.469 114.349C104.965 123.501 105.961 133.766 111.16 142.073L112.4 144.058V165.04C112.4 166.232 113.368 167.2 114.56 167.2H153.44C154.632 167.2 155.6 166.232 155.6 165.04V93.7407C155.58 86.2713 152.606 79.1153 147.325 73.8319L134 60.4832ZM134 73.3999L140.556 90.4186C141.841 93.7579 140.176 97.5077 136.836 98.7929L133.089 100.24C133.687 98.8792 133.998 97.4084 134 95.92V73.3999ZM30.3201 95.9202V48.4C30.3201 44.8209 33.2211 41.92 36.8001 41.92H123.2C126.779 41.92 129.68 44.8209 129.68 48.4V62.1289H129.661L129.68 62.1787V95.9202C129.663 96.296 129.615 96.6718 129.533 97.0392L109.748 77.2513C105.195 72.8039 97.9002 72.888 93.4528 77.4413C89.2105 81.7829 89.0636 88.6689 93.1159 93.1878L101.551 102.4H36.7999C33.2208 102.4 30.3201 99.4992 30.3201 95.9202ZM57.9918 106.72L42.632 112.634L40.3596 106.72H57.9918ZM56.212 129.849C52.8727 131.137 49.1229 129.471 47.8356 126.132L44.1917 116.656L69.9755 106.72V106.707H105.51L108.318 109.768L56.212 129.849ZM151.28 162.88H116.72V145.6H151.28V162.88ZM151.28 141.28H115.759L114.821 139.783C109.555 131.368 109.346 120.736 114.275 112.12C114.741 111.304 114.627 110.282 113.992 109.589L96.2906 90.2781C93.608 87.3406 93.8131 82.785 96.7506 80.1002C99.591 77.5059 103.969 77.601 106.693 80.3161L141.113 114.727L144.167 111.673L136.175 103.681L138.391 102.817C143.953 100.672 146.724 94.4275 144.584 88.8632L137.272 69.8789L144.271 76.8903C148.742 81.3594 151.262 87.4182 151.28 93.7405L151.28 141.28Z" fill="#1A535C"/>
<path d="M50.6245 67.8401C53.7264 67.8401 56.2405 65.3258 56.2405 62.2241V51.8562C56.2405 48.7543 53.7262 46.2402 50.6245 46.2402H40.2566C37.1547 46.2402 34.6406 48.7545 34.6406 51.8562V62.2241C34.6406 65.326 37.1549 67.8401 40.2566 67.8401H50.6245ZM38.9605 62.2241V59.2001H43.2804V54.88H38.9605V51.8562C38.9605 51.1413 39.5415 50.5601 40.2566 50.5601H50.6245C51.3394 50.5601 51.9206 51.1411 51.9206 51.8562V54.88H47.6005V59.2001H51.9206V62.2241C51.9206 62.939 51.3396 63.5202 50.6245 63.5202H40.2566C39.5415 63.52 38.9605 62.939 38.9605 62.2241Z" fill="white"/>
<path d="M45.4408 74.3203H36.8008V78.6404H45.4408V74.3203Z" fill="white"/>
<path d="M45.4408 87.2803H36.8008V91.6004H45.4408V87.2803Z" fill="white"/>
<path d="M84.3236 87.2803H75.6836V91.6004H84.3236V87.2803Z" fill="white"/>
<path d="M58.4017 74.3203H49.7617V78.6404H58.4017V74.3203Z" fill="white"/>
<path d="M71.3587 74.3203H62.7188V78.6404H71.3587V74.3203Z" fill="white"/>
<path d="M84.3236 74.3203H75.6836V78.6404H84.3236V74.3203Z" fill="white"/>
<path d="M121.039 48.3999H116.719V54.8799H121.039V48.3999Z" fill="white"/>
<path d="M112.398 48.3999H108.078V54.8799H112.398V48.3999Z" fill="white"/>
<path d="M103.758 48.3999H99.4375V54.8799H103.758V48.3999Z" fill="white"/>
<path d="M95.1209 48.3999H90.8008V54.8799H95.1209V48.3999Z" fill="white"/>
<path d="M125.359 149.92H121.039V154.241H125.359V149.92Z" fill="#0F6176"/>
</g>
<defs>
<clipPath id="clip0">
<rect width="129.6" height="129.6" fill="white" transform="translate(26 37.6001)"/>
</clipPath>
</defs>
</svg>
