<svg width="180" height="180" viewBox="0 0 180 180" fill="none" xmlns="http://www.w3.org/2000/svg">
<path fill-rule="evenodd" clip-rule="evenodd" d="M145.482 178.347C158.639 164.603 166.719 145.977 166.719 125.467C166.719 83.1809 132.37 48.9011 89.9981 48.9011C47.6264 48.9011 13.2773 83.1809 13.2773 125.467C13.2773 145.977 21.3575 164.603 34.5142 178.347H145.482Z" fill="#A6D892"/>
<path d="M137.769 91.8954L118.008 69.9441L114.929 156.787L142.404 157.162L144.09 109.586C144.325 102.98 142.049 96.6129 137.769 91.8954Z" fill="#FAB17C"/>
<path d="M41.8026 140.245L27.5306 96.9717C26.0981 92.6277 28.3502 87.7911 32.5641 86.1702L108.843 56.8236C113.055 55.2036 117.632 57.4108 119.064 61.7572L133.336 105.031C134.769 109.375 132.517 114.211 128.303 115.832L52.0259 145.179C47.8121 146.799 43.2374 144.589 41.8026 140.245Z" fill="#1A608C"/>
<path d="M42.4465 140.003C43.8802 144.343 48.4517 146.551 52.6626 144.932L128.886 115.606C133.097 113.986 135.348 109.153 133.916 104.813L119.654 61.5744C118.223 57.2315 113.649 55.0262 109.44 56.6452L33.2142 85.9718" stroke="#0D4365" stroke-width="2"/>
<path d="M124.469 77.1253L32.5384 112.764L37.9546 129.2L129.888 93.5786L124.469 77.1253Z" fill="#0D4365"/>
<path d="M26.0375 110.29L27.7939 63.9022C27.9703 59.2445 31.73 55.5093 36.1907 55.5602L116.964 56.4816C121.424 56.5325 124.898 60.3502 124.722 65.0079L122.965 111.395C122.789 116.053 119.029 119.788 114.568 119.737L33.7956 118.816C29.3349 118.765 25.8611 114.947 26.0375 110.29Z" fill="#24BBC7"/>
<path d="M117.039 56.723L108.482 56.6279L45.6763 118.961L114.637 119.728C119.085 119.777 122.834 116.056 123.011 111.416L124.773 65.2132C124.949 60.574 121.487 56.7724 117.039 56.723Z" fill="#1BAEBA"/>
<path d="M34.3672 88.6941L42.4648 88.79L42.3065 93.0253L34.209 92.9294L34.3672 88.6941Z" fill="#B0FAE9"/>
<path d="M34.0703 100.985L42.1679 101.081L42.0096 105.316L33.9121 105.22L34.0703 100.985Z" fill="#B0FAE9"/>
<path d="M71.0156 101.868L79.1132 101.964L78.9549 106.199L70.8574 106.103L71.0156 101.868Z" fill="#B0FAE9"/>
<path d="M46.6836 88.9888L54.7804 89.0846L54.6222 93.3199L46.5254 93.224L46.6836 88.9888Z" fill="#B0FAE9"/>
<path d="M58.9961 89.2834L67.0937 89.3793L66.9354 93.6145L58.8379 93.5187L58.9961 89.2834Z" fill="#B0FAE9"/>
<path d="M71.3125 89.5781L79.4101 89.674L79.2518 93.9092L71.1543 93.8133L71.3125 89.5781Z" fill="#B0FAE9"/>
<path d="M110.918 65.927L114.902 65.9729L114.667 72.2163L110.683 72.1704L110.918 65.927Z" fill="#B0FAE9"/>
<path d="M102.707 65.7307L106.691 65.7766L106.456 72.0199L102.472 71.974L102.707 65.7307Z" fill="#B0FAE9"/>
<path d="M94.4961 65.5339L98.4802 65.5798L98.2449 71.8232L94.2608 71.7773L94.4961 65.5339Z" fill="#B0FAE9"/>
<path d="M86.2852 65.3381L90.2685 65.384L90.0331 71.6275L86.0498 71.5816L86.2852 65.3381Z" fill="#B0FAE9"/>
<path d="M107.043 155.931L143.426 156.35L143.426 178.275L106.505 178.275L107.043 155.931Z" fill="#24BBC7"/>
<path d="M112.684 162.304L116.696 162.349L116.536 166.533L112.524 166.489L112.684 162.304Z" fill="#B0FAE9"/>
<path d="M34.6646 77.4554L35.048 67.4131C35.1186 65.5635 36.6123 64.0813 38.3859 64.1009L48.0157 64.2075C49.7893 64.2271 51.1679 65.7411 51.0973 67.5907L50.7139 77.6329C50.6433 79.4825 49.1503 80.9647 47.3767 80.9451L37.747 80.8386C35.9734 80.819 34.594 79.305 34.6646 77.4554Z" fill="#7FD95B"/>
<path d="M34.8047 70.2605L40.858 70.3288L40.6982 74.541L34.6449 74.4727L34.8047 70.2605Z" fill="#28ABA8"/>
<path d="M45.0703 70.5056L51.1229 70.5739L50.963 74.7861L44.9105 74.7178L45.0703 70.5056Z" fill="#28ABA8"/>
<path d="M25.9607 110.186C25.7845 114.844 29.2584 118.661 33.719 118.712L114.492 119.632C118.953 119.683 122.712 115.947 122.889 111.29L124.644 64.9022C124.82 60.2445 121.346 56.4268 116.886 56.376L36.1126 55.4565C31.6519 55.4057 27.8923 59.141 27.716 63.7987L27.4018 78.0763" stroke="#0D4365" stroke-width="2"/>
<path d="M102.71 94.1697C99.4571 90.6094 93.9773 90.5578 90.4695 94.0543C87.0776 97.4349 86.7564 102.925 89.7393 106.522L105.393 125.338C100.135 134.266 99.9254 145.346 104.845 154.179L106.204 156.619L132.156 156.913L133.262 127.738L102.71 94.1697Z" fill="#FAB17C"/>
<path d="M138.626 91.7867C142.93 96.5109 145.215 102.89 144.972 109.512L143.228 157.2L143.228 178.436L106.53 178.436L107.475 156.753M106.912 156.743L133.885 157.205" stroke="#0D4365" stroke-width="2"/>
<path d="M106.868 156.871L105.509 154.43C100.589 145.597 100.799 134.517 106.057 125.589L90.4034 106.773C87.4205 103.176 87.7417 97.6861 91.1335 94.3055C94.6414 90.809 100.121 90.8606 103.374 94.4209L133.926 127.989" stroke="#0D4365" stroke-width="2"/>
<rect x="5" y="178.347" width="170" height="1.65251" fill="#104366"/>
</svg>
