<svg width="170" height="146" viewBox="0 0 170 146" fill="none" xmlns="http://www.w3.org/2000/svg">
<path fill-rule="evenodd" clip-rule="evenodd" d="M140.482 136.387C153.639 122.614 161.719 103.951 161.719 83.3997C161.719 41.028 127.37 6.67896 84.9981 6.67896C42.6264 6.67896 8.27734 41.028 8.27734 83.3997C8.27734 103.951 16.3575 122.614 29.5141 136.387H140.482Z" fill="#A6D892"/>
<path d="M136.974 59.6031L121.922 33.7625L100.69 117.861L127.924 124.358L139.556 78.2851C141.171 71.8879 140.241 65.1639 136.974 59.6031Z" fill="#FAB17C"/>
<path d="M32.9074 85.6055L27.8259 40.4291C27.316 35.8941 30.5316 31.6982 35.0111 31.0593L116.099 19.4886C120.576 18.85 124.621 22.0081 125.13 26.5453L130.212 71.7217C130.722 76.2567 127.506 80.4526 123.027 81.0915L41.9405 92.6627C37.4612 93.3008 33.4195 90.1409 32.9074 85.6055Z" fill="#1A608C"/>
<path d="M33.5485 85.4984C34.0604 90.0316 38.1005 93.19 42.5779 92.5522L123.631 80.9866C128.109 80.3481 131.323 76.1542 130.814 71.6214L125.734 26.4672C125.225 21.9322 121.182 18.7756 116.707 19.4139L35.6513 30.9789" stroke="#0D4365" stroke-width="2"/>
<path d="M127.135 42.7256L29.5634 56.8864L31.4842 73.9917L129.056 59.848L127.135 42.7256Z" fill="#0D4365"/>
<path d="M23.8204 52.9379L35.131 8.37226C36.2667 3.89749 40.731 1.11011 45.1013 2.14712L124.238 20.9251C128.608 21.9621 131.231 26.4311 130.095 30.9059L118.785 75.4715C117.649 79.9463 113.185 82.7336 108.815 81.6966L29.6777 62.9187C25.3074 61.8817 22.6847 57.4126 23.8204 52.9379Z" fill="#24BBC7"/>
<path d="M124.25 21.0789L115.856 19.0887L41.2035 65.6619L108.852 81.701C113.215 82.7355 117.672 79.9549 118.806 75.4912L130.098 31.0352C131.232 26.5714 128.614 22.1134 124.25 21.0789Z" fill="#1BAEBA"/>
<path d="M36.6406 34.1287L44.5654 36.0116L43.5357 40.074L35.6109 38.1911L36.6406 34.1287Z" fill="#B0FAE9"/>
<path d="M33.7031 46.0925L41.6279 47.9754L40.5982 52.0377L32.6734 50.1549L33.7031 46.0925Z" fill="#B0FAE9"/>
<path d="M69.5938 54.9001L77.5185 56.783L76.4889 60.8453L68.5641 58.9625L69.5938 54.9001Z" fill="#B0FAE9"/>
<path d="M48.6055 37.0649L56.5295 38.9476L55.4998 43.01L47.5758 41.1273L48.6055 37.0649Z" fill="#B0FAE9"/>
<path d="M60.5664 40.0005L68.4912 41.8833L67.4615 45.9457L59.5367 44.0628L60.5664 40.0005Z" fill="#B0FAE9"/>
<path d="M72.5312 42.9365L80.456 44.8194L79.4264 48.8817L71.5016 46.9989L72.5312 42.9365Z" fill="#B0FAE9"/>
<path d="M116.297 28.3069L120.223 29.2384L118.692 35.2675L114.767 34.336L116.297 28.3069Z" fill="#B0FAE9"/>
<path d="M108.32 26.3494L112.246 27.2808L110.716 33.3098L106.79 32.3784L108.32 26.3494Z" fill="#B0FAE9"/>
<path d="M100.348 24.3918L104.273 25.3233L102.743 31.3524L98.8175 30.4209L100.348 24.3918Z" fill="#B0FAE9"/>
<path d="M92.3711 22.4351L96.296 23.3664L94.7658 29.3955L90.8409 28.4642L92.3711 22.4351Z" fill="#B0FAE9"/>
<path d="M92.9766 115.55L128.607 124.008L126.215 136.567L87.8326 137.072L92.9766 115.55Z" fill="#24BBC7"/>
<path d="M97.2695 123L101.212 123.934L100.187 127.967L96.2451 127.032L97.2695 123Z" fill="#B0FAE9"/>
<path d="M39.3625 23.1043L41.8211 13.4275C42.2739 11.6452 44.052 10.5362 45.7945 10.9492L55.2553 13.1918C56.9978 13.6048 58.0417 15.3828 57.5889 17.1651L55.1303 26.8419C54.6775 28.6242 52.9002 29.7334 51.1577 29.3203L41.6968 27.0778C39.9543 26.6647 38.9097 24.8866 39.3625 23.1043Z" fill="#7FD95B"/>
<path d="M41.0391 16.1841L46.9718 17.5914L45.944 21.64L40.0113 20.2327L41.0391 16.1841Z" fill="#28ABA8"/>
<path d="M51.0117 18.6306L56.9437 20.0378L55.9159 24.0863L49.9839 22.6791L51.0117 18.6306Z" fill="#28ABA8"/>
<path d="M23.7657 52.8199C22.63 57.2947 25.2527 61.7637 29.623 62.8008L108.76 81.5787C113.13 82.6157 117.594 79.8283 118.73 75.3536L130.041 30.788C131.176 26.3132 128.554 21.8442 124.183 20.8072L45.0466 2.0292C40.6763 0.992187 36.212 3.77957 35.0763 8.25435L31.817 22.0212" stroke="#0D4365" stroke-width="2"/>
<path d="M101.935 54.276C99.4643 50.0863 94.0674 48.817 89.8797 51.4407C85.8305 53.9773 84.3735 59.2505 86.5701 63.4161L98.1099 85.2168C91.0675 92.739 88.5595 103.48 91.5796 113.174L92.4146 115.852L117.963 121.911L125.113 93.7535L101.935 54.276Z" fill="#FAB17C"/>
<path d="M137.719 59.8015C141 65.3694 141.934 72.1021 140.312 78.5075L128.634 124.639L126.252 136.668L87.8258 137.174L93.2858 116.233M92.7298 116.098L119.371 122.561" stroke="#0D4365" stroke-width="2"/>
<path d="M93.0084 116.24L92.1733 113.562C89.1533 103.868 91.6613 93.1275 98.7037 85.6053L87.1638 63.8046C84.9672 59.639 86.4243 54.3657 90.4734 51.8291C94.6611 49.2054 100.058 50.4747 102.528 54.6645L125.707 94.142" stroke="#0D4365" stroke-width="2"/>
<rect y="136.387" width="170" height="1.65584" fill="#104366"/>
</svg>
