<svg width="180" height="180" viewBox="0 0 180 180" fill="none" xmlns="http://www.w3.org/2000/svg">
<path fill-rule="evenodd" clip-rule="evenodd" d="M145.482 179.169C158.639 165.396 166.719 146.732 166.719 126.182C166.719 83.81 132.37 49.4609 89.9981 49.4609C47.6264 49.4609 13.2773 83.81 13.2773 126.182C13.2773 146.732 21.3575 165.396 34.5141 179.169H145.482Z" fill="url(#paint0_linear)"/>
<path d="M137.767 91.8954L117.523 69.9441L114.929 156.787L142.887 157.162L144.309 109.586C144.506 102.98 142.151 96.6129 137.767 91.8954Z" fill="#FAB17C"/>
<path d="M41.8541 140.245L27.248 96.9717C25.7821 92.6277 28.0157 87.7911 32.2403 86.1702L108.715 56.8236C112.937 55.2036 117.55 57.4108 119.016 61.7572L133.622 105.031C135.088 109.375 132.854 114.211 128.63 115.832L52.1576 145.179C47.933 146.799 43.3224 144.589 41.8541 140.245Z" fill="#435B8C"/>
<path d="M42.474 140.003C43.9416 144.343 48.5501 146.551 52.7727 144.932L129.21 115.606C133.433 113.986 135.665 109.153 134.2 104.813L119.6 61.5744C118.135 57.2315 113.524 55.0262 109.304 56.6452L32.8644 85.9718" stroke="#0D4365" stroke-width="2"/>
<path d="M124.449 77.1253L32.441 112.764L37.9747 129.2L129.986 93.5786L124.449 77.1253Z" fill="#233862"/>
<path d="M25.9886 110.29L27.4691 63.9022C27.6178 59.2445 31.3691 55.5093 35.8471 55.5602L116.934 56.4816C121.412 56.5325 124.922 60.3502 124.773 65.0079L123.293 111.395C123.144 116.053 119.393 119.788 114.915 119.737L33.8282 118.816C29.3502 118.765 25.8399 114.947 25.9886 110.29Z" fill="#24BBC7"/>
<path d="M117.002 56.723L108.403 56.6279L45.6781 118.961L114.973 119.728C119.442 119.777 123.187 116.056 123.336 111.416L124.824 65.2133C124.973 60.574 121.471 56.7724 117.002 56.723Z" fill="#1BAEBA"/>
<path d="M34.3438 88.6943L42.4681 88.7902L42.3352 93.0255L34.2108 92.9296L34.3438 88.6943Z" fill="#B0FAE9"/>
<path d="M34.0469 100.985L42.1712 101.081L42.0383 105.316L33.9139 105.22L34.0469 100.985Z" fill="#B0FAE9"/>
<path d="M70.9922 101.868L79.1165 101.964L78.9836 106.199L70.8593 106.104L70.9922 101.868Z" fill="#B0FAE9"/>
<path d="M46.6602 88.9888L54.7837 89.0846L54.6508 93.3198L46.5272 93.224L46.6602 88.9888Z" fill="#B0FAE9"/>
<path d="M58.9727 89.2837L67.097 89.3796L66.9641 93.6147L58.8397 93.5189L58.9727 89.2837Z" fill="#B0FAE9"/>
<path d="M71.2891 89.5781L79.4134 89.674L79.2805 93.9092L71.1561 93.8133L71.2891 89.5781Z" fill="#B0FAE9"/>
<path d="M110.883 65.9268L114.905 65.9726L114.705 72.2161L110.684 72.1702L110.883 65.9268Z" fill="#B0FAE9"/>
<path d="M102.672 65.731L106.694 65.7768L106.494 72.0201L102.473 71.9743L102.672 65.731Z" fill="#B0FAE9"/>
<path d="M94.4609 65.5339L98.4827 65.5798L98.2835 71.8232L94.2618 71.7773L94.4609 65.5339Z" fill="#B0FAE9"/>
<path d="M86.25 65.3381L90.271 65.384L90.0718 71.6274L86.0508 71.5815L86.25 65.3381Z" fill="#B0FAE9"/>
<path d="M106.91 155.931L143.423 156.35L143.557 178.275L106.507 178.275L106.91 155.931Z" fill="#24BBC7"/>
<path d="M112.66 162.304L116.699 162.349L116.564 166.533L112.525 166.489L112.66 162.304Z" fill="#B0FAE9"/>
<path d="M34.6457 77.4554L34.97 67.4131C35.0297 65.5635 36.5235 64.0813 38.308 64.1009L47.9968 64.2075C49.7812 64.2271 51.1774 65.7411 51.1177 67.5907L50.7934 77.633C50.7336 79.4826 49.2407 80.9648 47.4562 80.9452L37.7674 80.8387C35.9829 80.819 34.5859 79.305 34.6457 77.4554Z" fill="#17E14F"/>
<path d="M34.7812 70.2605L40.861 70.3289L40.7262 74.541L34.6465 74.4727L34.7812 70.2605Z" fill="#B0FAE9"/>
<path d="M45.0469 70.5056L51.1259 70.5739L50.9911 74.786L44.9121 74.7177L45.0469 70.5056Z" fill="#B0FAE9"/>
<path d="M25.9119 110.186C25.7633 114.844 29.2737 118.661 33.7517 118.712L114.838 119.632C119.316 119.683 123.068 115.947 123.216 111.29L124.695 64.9022C124.844 60.2445 121.334 56.4268 116.856 56.376L35.769 55.4565C31.291 55.4057 27.5397 59.141 27.3912 63.7987L27.1628 78.0763" stroke="#0D4365" stroke-width="2"/>
<path d="M102.466 94.1697C99.1655 90.6094 93.6412 90.5578 90.1265 94.0543C86.7281 97.4349 86.4379 102.925 89.4669 106.522L105.362 125.338C100.116 134.266 99.9727 145.346 104.986 154.179L106.371 156.619L132.534 156.913L133.47 127.738L102.466 94.1697Z" fill="#FAB17C"/>
<path d="M138.525 91.7867C142.915 96.5109 145.269 102.89 145.064 109.512L143.591 157.2L143.722 178.436L106.537 178.436L107.361 156.753M106.79 156.743L134.124 157.205" stroke="#0D4365" stroke-width="2"/>
<path d="M107.035 156.871L105.65 154.431C100.637 145.597 100.78 134.517 106.026 125.589L90.1309 106.773C87.102 103.176 87.3921 97.6861 90.7906 94.3055C94.3053 90.809 99.8296 90.8606 103.13 94.4209L134.134 127.989" stroke="#0D4365" stroke-width="2"/>
<rect x="5" y="178.347" width="170" height="1.65251" fill="#104366"/>
<defs>
<linearGradient id="paint0_linear" x1="89.9981" y1="49.4609" x2="89.9981" y2="179.169" gradientUnits="userSpaceOnUse">
<stop stop-color="#8FD3F4"/>
<stop offset="1" stop-color="#84FAB0"/>
</linearGradient>
</defs>
</svg>
