<svg width="180" height="188" viewBox="0 0 180 188" fill="none" xmlns="http://www.w3.org/2000/svg">
<circle cx="40.5" cy="98.5" r="30.5" fill="#FAF3DD" fill-opacity="0.5"/>
<g clip-path="url(#clip0)">
<path d="M150.465 70.9953L91.622 42.5886C91.1003 42.337 90.4928 42.337 89.9714 42.5886L31.1277 70.9953C30.4716 71.312 30.0547 71.9764 30.0547 72.7049V141.694C30.0547 142.422 30.4716 143.087 31.1277 143.403L89.9711 171.811C90.2319 171.936 90.5144 172 90.7966 172C91.0788 172 91.3611 171.936 91.622 171.811L150.465 143.403C151.122 143.087 151.538 142.422 151.538 141.694V72.7052C151.538 71.9764 151.121 71.3122 150.465 70.9953ZM90.7966 46.4062L145.273 72.7052L129.482 80.3288C129.382 80.2526 129.276 80.1822 129.16 80.1263L75.0535 54.0063L90.7966 46.4062ZM70.766 56.1528L125.164 82.4135L114.022 87.7922L59.6473 61.5418L70.766 56.1528ZM116.03 91.0393L126.436 86.0152V105.897L116.03 110.921V91.0393ZM92.695 167.077V102.304L105.825 95.9651C106.77 95.5092 107.165 94.3744 106.71 93.43C106.254 92.4861 105.119 92.0897 104.174 92.5459L90.7966 99.0043L85.5326 96.463C84.5882 96.0066 83.4534 96.403 82.9976 97.3471C82.5417 98.2913 82.9376 99.4263 83.8817 99.8822L88.8982 102.304V167.076L33.8516 140.502V75.7295L75.7691 95.9656C76.0351 96.0942 76.3163 96.1549 76.593 96.1549C77.2987 96.1549 77.9766 95.7595 78.3039 95.0814C78.7597 94.1373 78.3638 93.0022 77.4197 92.5464L36.3198 72.7049L55.1789 63.6005L112.206 91.1314C112.215 91.143 112.224 91.1534 112.233 91.1648V113.946C112.233 114.599 112.569 115.206 113.122 115.554C113.429 115.747 113.78 115.844 114.131 115.844C114.413 115.844 114.695 115.782 114.957 115.655L129.16 108.799C129.816 108.482 130.233 107.818 130.233 107.089V84.1824L147.742 75.73V140.503L92.695 167.077Z" fill="#1A535C"/>
<path d="M70.7669 56.1528L125.164 82.4135L114.023 87.7922L59.6481 61.5419L70.7669 56.1528ZM116.03 91.0393L126.437 86.0153V105.897L116.03 110.921V91.0393Z" fill="#E97644"/>
<path d="M49.5237 133.14L40.8884 128.971C39.9437 128.515 38.8092 128.911 38.3533 129.856C37.8975 130.8 38.2933 131.935 39.2375 132.391L47.8729 136.559C48.1389 136.688 48.4201 136.749 48.6968 136.749C49.4025 136.749 50.0804 136.353 50.4076 135.675C50.8638 134.731 50.4679 133.596 49.5237 133.14Z" fill="#1A535C"/>
<path d="M57.4708 127.967L40.8999 119.967C39.9555 119.511 38.8208 119.907 38.3649 120.852C37.9093 121.796 38.3052 122.931 39.2493 123.387L55.8202 131.386C56.0862 131.515 56.3674 131.576 56.6441 131.576C57.3498 131.576 58.0277 131.18 58.3549 130.502C58.8108 129.558 58.4149 128.423 57.4708 127.967Z" fill="#1A535C"/>
</g>
<defs>
<clipPath id="clip0">
<rect width="129.6" height="129.6" fill="white" transform="translate(26 42.3999)"/>
</clipPath>
</defs>
</svg>
