<svg width="180" height="180" viewBox="0 0 180 180" fill="none" xmlns="http://www.w3.org/2000/svg">
<circle cx="132" cy="58" r="33" fill="#FAF3DD" fill-opacity="0.5"/>
<path d="M125.199 110.075H116.399V114.425H125.199V110.075Z" fill="#1A535C"/>
<path d="M24 75.2752V60.5939C24.0015 59.2965 24.5235 58.0526 25.4515 57.1352C26.3795 56.2178 27.6376 55.7017 28.95 55.7002H107.05C108.362 55.7017 109.621 56.2178 110.548 57.1352C111.476 58.0526 111.998 59.2965 112 60.5939V64.4002H117.128C117.943 64.3994 118.746 64.5979 119.465 64.9782C120.183 65.3584 120.795 65.9086 121.247 66.5795L128.61 77.4991C130.08 77.6427 131.502 78.0915 132.784 78.8163C134.066 79.541 135.179 80.5253 136.05 81.7048L140.179 87.3176L136.621 89.8765L132.492 84.2637C131.93 83.5017 131.193 82.8815 130.343 82.4535C129.493 82.0254 128.553 81.8016 127.599 81.8002H112V101.375H145.08L138.821 92.8671L142.379 90.3083L150.83 101.798C152.339 102.319 153.647 103.291 154.573 104.579C155.5 105.867 155.998 107.407 156 108.988V135.631C155.998 136.929 155.476 138.173 154.548 139.09C153.621 140.008 152.362 140.524 151.05 140.525H147.2C147.2 144.563 145.578 148.436 142.689 151.291C139.801 154.146 135.884 155.75 131.8 155.75C127.716 155.75 123.799 154.146 120.911 151.291C118.022 148.436 116.4 144.563 116.4 140.525H63.6C63.6 144.563 61.9775 148.436 59.0894 151.291C56.2014 154.146 52.2843 155.75 48.2 155.75C44.1157 155.75 40.1986 154.146 37.3105 151.291C34.4225 148.436 32.8 144.563 32.8 140.525H28.95C27.6376 140.524 26.3795 140.008 25.4515 139.09C24.5235 138.173 24.0015 136.929 24 135.631V79.6252H28.4V116.6H107.6V60.5939C107.6 60.4497 107.542 60.3114 107.439 60.2095C107.336 60.1075 107.196 60.0502 107.05 60.0502H28.95C28.8041 60.0502 28.6642 60.1075 28.5611 60.2095C28.4579 60.3114 28.4 60.4497 28.4 60.5939V75.2752H24ZM123.289 77.4502L117.586 68.9924C117.536 68.9179 117.468 68.8568 117.388 68.8146C117.308 68.7723 117.219 68.7502 117.128 68.7502H112V77.4502H123.289ZM151.6 108.988C151.599 108.123 151.251 107.293 150.632 106.682C150.014 106.07 149.175 105.726 148.3 105.725H145V115.513C145.001 116.378 145.349 117.207 145.968 117.819C146.586 118.43 147.425 118.774 148.3 118.775H151.6V108.988ZM131.8 151.4C133.976 151.4 136.102 150.762 137.911 149.567C139.72 148.372 141.13 146.674 141.963 144.687C142.795 142.7 143.013 140.513 142.589 138.404C142.164 136.294 141.117 134.356 139.578 132.835C138.04 131.315 136.08 130.279 133.946 129.859C131.812 129.44 129.6 129.655 127.59 130.478C125.58 131.301 123.863 132.695 122.654 134.483C121.445 136.272 120.8 138.374 120.8 140.525C120.803 143.408 121.963 146.173 124.025 148.211C126.088 150.25 128.884 151.397 131.8 151.4ZM117.04 136.175C117.988 133.033 119.937 130.278 122.596 128.318C125.255 126.359 128.483 125.3 131.8 125.3C135.117 125.3 138.345 126.359 141.004 128.318C143.663 130.278 145.612 133.033 146.56 136.175H151.05C151.196 136.175 151.336 136.118 151.439 136.016C151.542 135.914 151.6 135.776 151.6 135.631V123.125H148.3C146.259 123.123 144.301 122.32 142.858 120.893C141.414 119.466 140.602 117.531 140.6 115.513V105.725H112V136.175H117.04ZM48.2 151.4C50.3756 151.4 52.5023 150.762 54.3113 149.567C56.1202 148.372 57.5301 146.674 58.3627 144.687C59.1952 142.7 59.4131 140.513 58.9886 138.404C58.5642 136.294 57.5165 134.356 55.9782 132.835C54.4398 131.315 52.4798 130.279 50.346 129.859C48.2122 129.44 46.0005 129.655 43.9905 130.478C41.9805 131.301 40.2625 132.695 39.0538 134.483C37.8451 136.272 37.2 138.374 37.2 140.525C37.2033 143.408 38.3632 146.173 40.4254 148.211C42.4876 150.25 45.2836 151.397 48.2 151.4ZM28.4 120.95V135.631C28.4 135.776 28.4579 135.914 28.5611 136.016C28.6642 136.118 28.8041 136.175 28.95 136.175H33.4402C34.3882 133.033 36.3368 130.278 38.9961 128.318C41.6554 126.359 44.8834 125.3 48.2 125.3C51.5166 125.3 54.7445 126.359 57.4039 128.318C60.0632 130.278 62.0117 133.033 62.9598 136.175H107.6V120.95H28.4Z" fill="#1A535C"/>
<path d="M67.959 112.25C68.4285 112.25 68.8857 112.102 69.2636 111.826L74.0596 108.335C81.5115 102.966 86.5961 94.9754 88.2656 86.0099C88.2686 85.9928 88.2716 85.9759 88.2741 85.9588L89.9224 75.614C89.9977 75.1415 89.9133 74.6577 89.6824 74.2375C89.4515 73.8172 89.0869 73.4839 88.6451 73.2892L68.8726 64.5726C68.5906 64.4483 68.2853 64.384 67.9766 64.384C67.6679 64.384 67.3626 64.4483 67.0807 64.5726L47.3082 73.2892C46.8662 73.484 46.5016 73.8174 46.2707 74.2379C46.0398 74.6583 45.9556 75.1422 46.0311 75.6148L47.6962 86.045C47.6989 86.0619 47.7017 86.0787 47.705 86.0956C49.3876 95.1379 54.5447 103.186 62.0957 108.552L66.6654 111.837C67.0416 112.106 67.4945 112.251 67.959 112.25ZM83.9318 85.2552C82.457 93.1187 77.9903 100.124 71.4504 104.832L67.9505 107.38L64.6829 105.032C58.0561 100.327 53.5255 93.2712 52.0382 85.3403L50.6401 76.5821L67.9766 68.9405L85.3137 76.5835L83.9318 85.2552Z" fill="#1A535C"/>
<path d="M83.9306 85.2554C82.4558 93.1188 77.9891 100.125 71.4492 104.832L67.9493 107.38L64.6817 105.032C58.0549 100.327 53.5243 93.2714 52.0369 85.3405L50.6388 76.5823L67.9754 68.9407L85.3125 76.5836L83.9306 85.2554Z" fill="#E97644"/>
<path d="M65.3195 94.8499C65.0305 94.8502 64.7444 94.7941 64.4774 94.6847C64.2105 94.5754 63.9681 94.4149 63.7641 94.2126L57.1641 87.6876L60.2751 84.6119L65.3195 89.5989L76.9641 78.0869L80.0751 81.1626L66.8751 94.2126C66.6711 94.415 66.4286 94.5754 66.1616 94.6848C65.8947 94.7941 65.6085 94.8503 65.3195 94.8499Z" fill="white"/>
<path d="M103.199 64.4001H98.7992V68.7501H103.199V64.4001Z" fill="#1A535C"/>
<path d="M103.199 107.9H98.7992V112.25H103.199V107.9Z" fill="#1A535C"/>
<path d="M37.1992 64.4001H32.7992V68.7501H37.1992V64.4001Z" fill="#1A535C"/>
<path d="M37.1992 107.9H32.7992V112.25H37.1992V107.9Z" fill="#1A535C"/>
<path d="M131.799 144.875C129.369 144.875 127.399 142.928 127.399 140.525C127.399 138.123 129.369 136.175 131.799 136.175C134.229 136.175 136.199 138.123 136.199 140.525C136.199 142.928 134.229 144.875 131.799 144.875Z" fill="#1A535C"/>
<path d="M131.798 147.05C133.104 147.05 134.38 146.668 135.465 145.951C136.551 145.234 137.397 144.215 137.896 143.022C138.396 141.83 138.526 140.518 138.272 139.252C138.017 137.987 137.388 136.824 136.465 135.911C135.542 134.999 134.366 134.377 133.086 134.126C131.806 133.874 130.479 134.003 129.273 134.497C128.067 134.991 127.036 135.827 126.311 136.9C125.586 137.973 125.198 139.235 125.198 140.525C125.2 142.255 125.896 143.914 127.134 145.137C128.371 146.36 130.049 147.048 131.798 147.05ZM131.798 138.35C132.234 138.35 132.659 138.478 133.021 138.717C133.382 138.956 133.664 139.295 133.831 139.693C133.997 140.09 134.041 140.528 133.956 140.95C133.871 141.371 133.662 141.759 133.354 142.063C133.046 142.367 132.654 142.575 132.228 142.658C131.801 142.742 131.359 142.699 130.957 142.535C130.555 142.37 130.211 142.091 129.969 141.734C129.727 141.376 129.598 140.955 129.598 140.525C129.599 139.949 129.831 139.396 130.244 138.988C130.656 138.58 131.215 138.351 131.798 138.35Z" fill="#1A535C"/>
<path d="M48.2016 144.875C45.7715 144.875 43.8016 142.928 43.8016 140.525C43.8016 138.123 45.7715 136.175 48.2016 136.175C50.6316 136.175 52.6016 138.123 52.6016 140.525C52.6016 142.928 50.6316 144.875 48.2016 144.875Z" fill="#1A535C"/>
<path d="M48.2008 147.05C49.5061 147.05 50.7822 146.668 51.8675 145.951C52.9529 145.234 53.7988 144.215 54.2984 143.022C54.7979 141.83 54.9286 140.518 54.674 139.252C54.4193 137.987 53.7907 136.824 52.8677 135.911C51.9447 134.999 50.7686 134.377 49.4884 134.126C48.2081 133.874 46.8811 134.003 45.6751 134.497C44.4691 134.991 43.4383 135.827 42.7131 136.9C41.9879 137.973 41.6008 139.235 41.6008 140.525C41.6027 142.255 42.2987 143.914 43.536 145.137C44.7734 146.36 46.451 147.048 48.2008 147.05ZM48.2008 138.35C48.6359 138.35 49.0612 138.478 49.423 138.717C49.7848 138.956 50.0668 139.295 50.2333 139.693C50.3998 140.09 50.4434 140.528 50.3585 140.95C50.2736 141.371 50.0641 141.759 49.7564 142.063C49.4487 142.367 49.0567 142.575 48.63 142.658C48.2032 142.742 47.7609 142.699 47.3589 142.535C46.9569 142.37 46.6133 142.091 46.3715 141.734C46.1298 141.376 46.0008 140.955 46.0008 140.525C46.0014 139.949 46.2334 139.396 46.6459 138.988C47.0583 138.58 47.6175 138.351 48.2008 138.35Z" fill="#1A535C"/>
<path d="M156 64.4001H138.4V68.7501H156V64.4001Z" fill="#1A535C"/>
<path d="M134 64.4001H129.6V68.7501H134V64.4001Z" fill="#1A535C"/>
<path d="M136.199 42.6501H100.999V47.0001H136.199V42.6501Z" fill="#1A535C"/>
<path d="M96.5977 42.6501H92.1977V47.0001H96.5977V42.6501Z" fill="#1A535C"/>
<path d="M76.8008 47.0002H41.6008V51.3502H76.8008V47.0002Z" fill="#1A535C"/>
<path d="M37.1992 47.0002H32.7992V51.3502H37.1992V47.0002Z" fill="#1A535C"/>
<path d="M114.199 147.05H74.5992V151.4H114.199V147.05Z" fill="#0F6176"/>
<path d="M70.1992 147.05H65.7992V151.4H70.1992V147.05Z" fill="#0F6176"/>
</svg>
