<svg width="170" height="164" viewBox="0 0 170 164" fill="none" xmlns="http://www.w3.org/2000/svg">
<path fill-rule="evenodd" clip-rule="evenodd" d="M140.482 163.709C153.639 149.937 161.719 131.273 161.719 110.722C161.719 68.3508 127.37 34.0017 84.9981 34.0017C42.6264 34.0017 8.27734 68.3508 8.27734 110.722C8.27734 131.273 16.3575 149.937 29.5141 163.709H140.482Z" fill="#A6D892"/>
<rect y="162.21" width="170" height="1.46104" fill="#104366"/>
<path d="M101.267 109.553C100.987 109.698 100.679 109.766 100.374 109.766C99.8882 109.766 99.4078 109.588 99.0474 109.247L86.0499 96.9322C85.6945 96.5955 85.4994 96.1403 85.4994 95.6729C85.4994 96.1403 85.3042 96.5955 84.9488 96.9322L71.9513 109.247C71.5909 109.588 71.1105 109.766 70.625 109.766C70.3197 109.766 70.0119 109.698 69.7316 109.553L37.3281 92.9124V126.506C37.3279 126.568 37.3311 126.629 37.3376 126.69C37.3404 126.716 37.3457 126.741 37.3494 126.766C37.3542 126.797 37.3579 126.828 37.3644 126.859C37.3724 126.898 37.3834 126.935 37.394 126.973C37.399 126.99 37.4027 127.008 37.4082 127.025C37.4205 127.063 37.4352 127.1 37.45 127.138C37.4565 127.154 37.462 127.171 37.4693 127.188C37.4838 127.221 37.5006 127.253 37.5171 127.286C37.5273 127.306 37.5366 127.326 37.5476 127.345C37.5626 127.372 37.5791 127.397 37.5954 127.423C37.6109 127.447 37.6257 127.472 37.6422 127.496C37.656 127.516 37.6715 127.534 37.6862 127.553C37.7075 127.582 37.7285 127.609 37.7515 127.636C37.7643 127.651 37.7786 127.665 37.7918 127.68C37.8184 127.709 37.8449 127.737 37.8734 127.765C37.8884 127.779 37.9044 127.792 37.92 127.805C37.9485 127.831 37.9765 127.856 38.0068 127.88C38.0361 127.903 38.0671 127.924 38.0976 127.945C38.1156 127.958 38.1324 127.971 38.1509 127.983C38.2047 128.018 38.2605 128.049 38.3181 128.079L84.6068 151.786C84.8855 151.929 85.1923 152 85.4994 152C85.8064 152 86.1135 151.928 86.3917 151.786L132.68 128.079C132.738 128.049 132.794 128.017 132.848 127.983C132.866 127.971 132.883 127.958 132.901 127.945C132.932 127.924 132.963 127.903 132.992 127.88C133.022 127.856 133.05 127.831 133.079 127.805C133.094 127.792 133.11 127.779 133.125 127.765C133.153 127.737 133.18 127.709 133.206 127.68C133.22 127.665 133.234 127.651 133.247 127.636C133.27 127.61 133.291 127.582 133.312 127.553C133.327 127.534 133.342 127.516 133.356 127.496C133.373 127.472 133.387 127.447 133.403 127.423C133.419 127.397 133.436 127.372 133.451 127.345C133.462 127.326 133.471 127.306 133.481 127.286C133.498 127.253 133.514 127.221 133.529 127.188C133.536 127.171 133.542 127.154 133.548 127.138C133.563 127.101 133.578 127.063 133.59 127.025C133.596 127.008 133.599 126.99 133.604 126.973C133.615 126.935 133.626 126.898 133.634 126.859C133.64 126.828 133.644 126.797 133.649 126.766C133.653 126.741 133.658 126.716 133.661 126.69C133.667 126.629 133.67 126.568 133.67 126.506V92.9124L101.267 109.553Z" fill="#3CB5B2"/>
<path d="M84.5143 46.2629C85.0348 45.9976 85.3927 45.5113 85.4778 44.9565C85.4903 44.8714 85.4978 44.786 85.4978 44.7004C85.4978 44.786 85.5053 44.8714 85.5178 44.9541C85.6029 45.509 85.9607 45.9929 86.4812 46.2606L132.776 69.9708C133.059 70.1156 133.364 70.1842 133.669 70.1842C133.364 70.1842 133.059 70.2555 132.776 70.3999L86.4812 94.1101C85.9607 94.3759 85.6029 94.8617 85.5178 95.4166C85.5053 95.5022 85.4978 95.5875 85.4978 95.6726C85.4978 95.5875 85.4903 95.5022 85.4778 95.4166C85.3927 94.8617 85.0348 94.3759 84.5143 94.1101L38.2197 70.3999C37.9719 70.2745 37.7067 70.2031 37.4414 70.1865C37.7067 70.1699 37.9719 70.099 38.2197 69.9731L84.5143 46.2629Z" fill="#219390"/>
<line y1="-1" x2="17.554" y2="-1" transform="matrix(-0.368007 -0.929823 0.942288 -0.334804 72.1055 18.3623)" stroke="#219390" stroke-width="2"/>
<line y1="-1" x2="17.4984" y2="-1" transform="matrix(0.272126 -0.962262 0.969251 0.246074 100.945 18.6204)" stroke="#219390" stroke-width="2"/>
<line x1="85.1016" y1="18.3623" x2="85.1016" y2="-0.0001144" stroke="#219390" stroke-width="2"/>
<path d="M148.401 55.833C148.486 56.3879 148.293 56.9472 147.875 57.3455L135.003 69.6587C134.642 70.0046 134.159 70.1848 133.671 70.1848C133.366 70.1848 133.061 70.1163 132.778 69.9714L86.4834 46.2612C85.9629 45.9935 85.6051 45.5096 85.52 44.9548C85.5075 44.8718 85.5 44.7867 85.5 44.7011C85.5 44.6987 85.5 44.6987 85.5 44.6964C85.5 44.2295 85.6952 43.7738 86.0505 43.44L99.0481 31.1246C99.6336 30.5674 100.537 30.4444 101.268 30.819L147.437 54.5292C147.958 54.7943 148.313 55.2782 148.401 55.833Z" fill="#32AAA7"/>
<path d="M147.875 83.026C148.293 83.4244 148.486 83.9841 148.401 84.539C148.313 85.0914 147.958 85.5749 147.437 85.843L101.268 109.553C100.987 109.698 100.68 109.766 100.374 109.766C99.8889 109.766 99.4084 109.588 99.0481 109.247L86.0505 96.9323C85.6952 96.5956 85.5 96.1404 85.5 95.673C85.5 95.5879 85.5075 95.5026 85.52 95.417C85.6051 94.8622 85.9629 94.3763 86.4834 94.1105L132.778 70.4003C133.061 70.2559 133.366 70.1846 133.671 70.1846C134.159 70.1846 134.642 70.3671 135.003 70.7112L147.875 83.026Z" fill="#4BC5C1"/>
<path d="M147.875 83.0258L135.003 70.7109C134.643 70.3669 134.16 70.1843 133.672 70.1843C133.366 70.1843 133.061 70.2557 132.778 70.4001L127.891 72.9048C128.173 72.7604 128.479 72.6891 128.784 72.6891C129.272 72.6891 129.755 72.8716 130.115 73.2157L142.988 85.5305C143.406 85.9288 143.599 86.4886 143.513 87.0435C143.426 87.5959 143.07 88.0794 142.55 88.3475L147.438 85.8428C147.958 85.5746 148.313 85.0912 148.401 84.5387C148.486 83.9839 148.293 83.4241 147.875 83.0258Z" fill="#3CB5B2"/>
<path d="M85.4985 44.696C85.4985 44.6984 85.4985 44.6984 85.4985 44.7008C85.4985 44.7864 85.491 44.8717 85.4785 44.9568C85.3934 45.5116 85.0356 45.9979 84.5151 46.2633L38.2204 69.9735C37.9727 70.0994 37.7074 70.1703 37.4422 70.1869C37.3896 70.1845 37.3346 70.1845 37.282 70.1869C36.8091 70.1776 36.3461 69.9974 35.9958 69.6631L23.1234 57.3475C22.7055 56.9492 22.5128 56.3899 22.5979 55.8351C22.6854 55.2826 23.0408 54.7987 23.5613 54.531L69.7308 30.8208C70.4615 30.4462 71.3649 30.5716 71.9505 31.1264L84.948 43.4417C85.3034 43.7787 85.496 44.2315 85.4985 44.696Z" fill="#3CB5B2"/>
<path d="M85.4785 95.417C85.491 95.5026 85.4985 95.588 85.4985 95.6731C85.4985 96.1404 85.3034 96.5957 84.948 96.9324L71.9505 109.247C71.5901 109.588 71.1097 109.766 70.6242 109.766C70.3189 109.766 70.0111 109.698 69.7308 109.553L23.5613 85.8431C23.0408 85.5749 22.6854 85.0915 22.5979 84.539C22.5128 83.9842 22.7055 83.4244 23.1234 83.0261L35.9958 70.7112C36.3461 70.3769 36.8091 70.1967 37.282 70.187C37.297 70.1894 37.3121 70.1894 37.3271 70.1894C37.3646 70.1894 37.4021 70.1894 37.4422 70.187C37.7074 70.2036 37.9727 70.275 38.2204 70.4004L84.5151 94.1106C85.0356 94.3764 85.3934 94.8622 85.4785 95.417Z" fill="#5AD0CD"/>
<path d="M133.127 93.1907C133.103 93.2353 133.077 93.2519 133.052 93.2296H133.051L126.161 96.7681V130.36C126.161 130.421 126.158 130.482 126.152 130.543C126.149 130.569 126.144 130.594 126.14 130.619C126.135 130.65 126.131 130.681 126.125 130.712C126.117 130.751 126.106 130.788 126.095 130.826C126.09 130.843 126.087 130.861 126.081 130.878C126.069 130.917 126.054 130.953 126.039 130.991C126.033 131.007 126.027 131.024 126.02 131.041C126.005 131.074 125.989 131.106 125.972 131.139C125.962 131.159 125.953 131.179 125.942 131.199C125.927 131.225 125.91 131.251 125.894 131.276C125.879 131.301 125.864 131.325 125.847 131.349C125.833 131.369 125.818 131.388 125.803 131.407C125.782 131.435 125.761 131.463 125.738 131.49C125.725 131.505 125.711 131.518 125.697 131.533C125.671 131.562 125.644 131.591 125.616 131.618C125.601 131.632 125.585 131.645 125.57 131.659C125.541 131.684 125.513 131.71 125.483 131.733C125.453 131.756 125.422 131.777 125.392 131.798C125.374 131.811 125.357 131.824 125.339 131.836C125.326 131.844 125.313 131.85 125.301 131.858L132.679 128.079C132.737 128.049 132.793 128.017 132.847 127.983C132.865 127.971 132.882 127.958 132.9 127.945C132.931 127.924 132.962 127.903 132.991 127.88C133.021 127.856 133.049 127.831 133.078 127.805C133.093 127.792 133.109 127.779 133.124 127.764C133.152 127.737 133.179 127.709 133.205 127.679C133.219 127.665 133.233 127.651 133.246 127.636C133.269 127.609 133.29 127.582 133.311 127.553C133.326 127.534 133.341 127.516 133.355 127.496C133.372 127.472 133.386 127.447 133.402 127.423C133.418 127.397 133.435 127.372 133.45 127.345C133.461 127.325 133.47 127.305 133.48 127.286C133.497 127.253 133.513 127.221 133.528 127.187C133.535 127.171 133.541 127.154 133.547 127.137C133.562 127.1 133.577 127.063 133.589 127.025C133.595 127.008 133.598 126.99 133.603 126.972C133.614 126.935 133.625 126.897 133.633 126.859C133.639 126.828 133.643 126.797 133.648 126.766C133.652 126.74 133.657 126.715 133.66 126.689C133.666 126.629 133.669 126.568 133.669 126.506V92.9124L133.127 93.1907Z" fill="#32AAA7"/>
<path d="M84.9488 96.9322L71.9513 109.247C71.5909 109.588 71.1105 109.766 70.625 109.766C70.3197 109.766 70.0119 109.698 69.7316 109.553L37.3281 92.9124V126.506C37.3279 126.568 37.3311 126.629 37.3376 126.69C37.3404 126.716 37.3457 126.741 37.3494 126.766C37.3542 126.797 37.3579 126.828 37.3644 126.859C37.3724 126.898 37.3834 126.935 37.394 126.973C37.399 126.99 37.4027 127.008 37.4082 127.025C37.4205 127.063 37.4352 127.1 37.45 127.138C37.4565 127.154 37.462 127.171 37.4693 127.188C37.4838 127.221 37.5006 127.253 37.5171 127.286C37.5273 127.306 37.5366 127.326 37.5476 127.345C37.5626 127.372 37.5791 127.397 37.5954 127.423C37.6109 127.447 37.6257 127.472 37.6422 127.496C37.656 127.516 37.6715 127.534 37.6862 127.553C37.7075 127.582 37.7285 127.609 37.7515 127.636C37.7643 127.651 37.7786 127.665 37.7918 127.68C37.8184 127.709 37.8449 127.737 37.8734 127.765C37.8884 127.779 37.9044 127.792 37.92 127.805C37.9485 127.831 37.9765 127.856 38.0068 127.88C38.0361 127.903 38.0671 127.924 38.0976 127.945C38.1156 127.958 38.1324 127.971 38.1509 127.983C38.2047 128.018 38.2605 128.049 38.3181 128.079L84.6067 151.786C84.8855 151.929 85.1923 152 85.4994 152V95.6729C85.4994 96.1403 85.3042 96.5955 84.9488 96.9322Z" fill="#4BC5C1"/>
<path d="M85.4994 95.6729C85.4994 96.1403 85.3042 96.5955 84.9488 96.9322M37.3281 92.9123V126.506C37.3279 126.568 37.3311 126.629 37.3376 126.69C37.3404 126.716 37.3457 126.741 37.3494 126.766C37.3542 126.797 37.3579 126.828 37.3644 126.859C37.3724 126.898 37.3834 126.935 37.394 126.973C37.399 126.99 37.4027 127.008 37.4082 127.025C37.4205 127.063 37.4352 127.1 37.45 127.138C37.4565 127.154 37.462 127.171 37.4693 127.188C37.4838 127.221 37.5006 127.253 37.5171 127.286C37.5273 127.306 37.5366 127.326 37.5476 127.345C37.5626 127.372 37.5791 127.397 37.5954 127.423C37.6109 127.447 37.6257 127.472 37.6422 127.496C37.656 127.516 37.6715 127.534 37.6862 127.553C37.7075 127.582 37.7285 127.609 37.7515 127.636C37.7643 127.651 37.7786 127.665 37.7918 127.68C37.8184 127.709 37.8449 127.737 37.8734 127.765C37.8884 127.779 37.9044 127.792 37.92 127.805C37.9485 127.831 37.9765 127.856 38.0068 127.88C38.0361 127.903 38.0671 127.924 38.0976 127.945C38.1156 127.958 38.1324 127.971 38.1509 127.983C38.2047 128.018 38.2605 128.049 38.3181 128.079L84.6068 151.786C84.8855 151.929 85.1923 152 85.4994 152C85.8064 152 86.1135 151.928 86.3917 151.786L132.68 128.079C132.738 128.049 132.794 128.017 132.848 127.983C132.866 127.971 132.883 127.958 132.901 127.945C132.932 127.924 132.963 127.903 132.992 127.88C133.022 127.856 133.05 127.831 133.079 127.805C133.094 127.792 133.11 127.779 133.125 127.765C133.153 127.737 133.18 127.709 133.206 127.68C133.22 127.665 133.234 127.651 133.247 127.636C133.27 127.61 133.291 127.582 133.312 127.553C133.327 127.534 133.342 127.516 133.356 127.496C133.373 127.472 133.387 127.447 133.403 127.423C133.419 127.397 133.436 127.372 133.451 127.345C133.462 127.326 133.471 127.306 133.481 127.286C133.498 127.253 133.514 127.221 133.529 127.188C133.536 127.171 133.542 127.154 133.548 127.138C133.563 127.101 133.578 127.063 133.59 127.025C133.596 127.008 133.599 126.99 133.604 126.973C133.615 126.935 133.626 126.898 133.634 126.859C133.64 126.828 133.644 126.797 133.649 126.766C133.653 126.741 133.658 126.716 133.661 126.69C133.667 126.629 133.67 126.568 133.67 126.506V117.833M133.67 91.812V109.159" stroke="#0D4365" stroke-width="2"/>
<path d="M92.2703 49.225L86.4834 46.2612C85.9629 45.9935 85.6051 45.5096 85.52 44.9548C85.5075 44.8718 85.5 44.7867 85.5 44.7011C85.5 44.6987 85.5 44.6987 85.5 44.6964C85.5 44.2295 85.6952 43.7738 86.0505 43.44L99.0481 31.1246C99.6336 30.5674 100.537 30.4444 101.268 30.819L147.437 54.5292C147.958 54.7943 148.313 55.2782 148.401 55.833C148.486 56.3879 148.293 56.9472 147.875 57.3455L135.003 69.6587C134.642 70.0046 134.159 70.1848 133.671 70.1848C133.366 70.1848 133.061 70.1163 132.778 69.9714L109.631 58.1163L103.844 55.1526" stroke="#0D4365" stroke-width="2"/>
<path d="M147.875 83.026C148.293 83.4244 148.486 83.9841 148.401 84.539C148.313 85.0914 147.958 85.5749 147.437 85.843L101.268 109.553C100.987 109.698 100.68 109.766 100.374 109.766C99.8889 109.766 99.4084 109.588 99.0481 109.247L86.0505 96.9323C85.6952 96.5956 85.5 96.1404 85.5 95.673C85.5 95.5879 85.5075 95.5026 85.52 95.417C85.6051 94.8622 85.9629 94.3763 86.4834 94.1105L132.778 70.4003C133.061 70.2559 133.366 70.1846 133.671 70.1846C134.159 70.1846 134.642 70.3671 135.003 70.7112L147.875 83.026Z" stroke="#0D4365" stroke-width="2"/>
<path d="M85.4985 44.696C85.4985 44.6984 85.4985 44.6984 85.4985 44.7008C85.4985 44.7864 85.491 44.8717 85.4785 44.9568C85.3934 45.5116 85.0356 45.9979 84.5151 46.2633L38.2204 69.9735C37.9727 70.0994 37.7074 70.1703 37.4422 70.1869C37.3896 70.1845 37.3346 70.1845 37.282 70.1869C36.8091 70.1776 36.3461 69.9974 35.9958 69.6631L23.1234 57.3475C22.7055 56.9492 22.5128 56.3899 22.5979 55.8351C22.6854 55.2826 23.0408 54.7987 23.5613 54.531L69.7308 30.8208C70.4615 30.4462 71.3649 30.5716 71.9505 31.1264L84.948 43.4417C85.3034 43.7787 85.496 44.2315 85.4985 44.696Z" stroke="#0D4365" stroke-width="2"/>
<path d="M51.6481 100.483L23.5613 85.8431C23.0408 85.5749 22.6854 85.0915 22.5979 84.539C22.5128 83.9842 22.7055 83.4244 23.1234 83.0261L35.9958 70.7112C36.3461 70.3769 36.8091 70.1967 37.282 70.187C37.297 70.1894 37.3121 70.1894 37.3271 70.1894C37.3646 70.1894 37.4021 70.1894 37.4422 70.187C37.7074 70.2036 37.9727 70.275 38.2204 70.4004L84.5151 94.1106C85.0356 94.3764 85.3934 94.8622 85.4785 95.417C85.491 95.5026 85.4985 95.588 85.4985 95.6731C85.4985 96.1404 85.3034 96.5957 84.948 96.9324L71.9505 109.247C71.5901 109.588 71.1097 109.766 70.6242 109.766C70.3189 109.766 70.0111 109.698 69.7308 109.553L66.7215 108.134" stroke="#0D4365" stroke-width="2"/>
<path d="M84.9488 96.9321C85.3042 96.5954 85.4993 96.1402 85.4993 95.6729V152C85.1923 152 84.8855 151.929 84.6067 151.786L38.3181 128.079C38.2605 128.049 38.2047 128.018 38.1509 127.983C38.1324 127.971 38.1156 127.958 38.0976 127.945C38.0671 127.924 38.0361 127.903 38.0068 127.88C37.9765 127.856 37.9485 127.831 37.92 127.805C37.9044 127.792 37.8884 127.779 37.8734 127.765C37.8449 127.737 37.8184 127.709 37.7918 127.68C37.7786 127.665 37.7643 127.651 37.7515 127.636C37.7285 127.609 37.7075 127.582 37.6862 127.553C37.6715 127.534 37.656 127.516 37.6422 127.496C37.6257 127.472 37.6109 127.447 37.5954 127.423C37.5791 127.397 37.5626 127.372 37.5476 127.345C37.5366 127.326 37.5273 127.306 37.5171 127.286C37.5006 127.253 37.4838 127.221 37.4693 127.188C37.462 127.171 37.4565 127.154 37.45 127.137C37.4352 127.1 37.4205 127.063 37.4082 127.025C37.4027 127.008 37.399 126.99 37.394 126.972C37.3834 126.935 37.3724 126.898 37.3644 126.859C37.3579 126.828 37.3542 126.797 37.3494 126.766C37.3457 126.741 37.3404 126.715 37.3376 126.69C37.3311 126.629 37.3279 126.568 37.3281 126.506L37.3281 92.832" stroke="#0D4365" stroke-width="2"/>
</svg>
