<svg width="180" height="180" viewBox="0 0 180 180" fill="none" xmlns="http://www.w3.org/2000/svg">
<path fill-rule="evenodd" clip-rule="evenodd" d="M145.482 178.344C158.639 164.574 166.719 145.913 166.719 125.365C166.719 82.9989 132.37 48.6545 89.9981 48.6545C47.6264 48.6545 13.2773 82.9989 13.2773 125.365C13.2773 145.913 21.3574 164.574 34.514 178.344H145.482Z" fill="#A6D892"/>
<path d="M121.869 122.983H56.9378L40 162.978H139L121.869 122.983Z" fill="#24BBC7"/>
<path d="M139 162.978H90V122.983H122.042L139 162.978Z" fill="#1BAEBA"/>
<path d="M117.994 128.982H61.0062L49 157.978H130L117.994 128.982Z" fill="#B0FAE9"/>
<path d="M130 157.978H90V128.982H118.114L130 157.978Z" fill="#9FECDA"/>
<path d="M74.3045 124.983L80 125.711L75.6955 160.978L70 160.249L74.3045 124.983Z" fill="#24BBC7"/>
<path d="M103.367 160.978L99 125.728L104.634 124.983L109 160.233L103.367 160.978Z" fill="#1BAEBA"/>
<path d="M53 139.981H126V145.981H53V139.981Z" fill="#24BBC7"/>
<path d="M90 139.981H126V145.981H90V139.981Z" fill="#1BAEBA"/>
<rect x="5" y="178.344" width="170" height="1.65584" fill="#104366"/>
<path d="M86 122.983H57.9378L49.5909 143.185M114.227 122.983H122.869L140 163.978H41L44.4569 155.611" stroke="#0D4365" stroke-width="2"/>
<path d="M89.4316 34.9951C69.5049 34.9951 53.2734 51.4911 53.2734 71.4162C53.2734 78.2451 55.2017 85.1807 58.8175 90.9657L89.4316 139.491L120.046 90.9657C123.662 85.1807 125.59 78.2451 125.59 71.4162C125.59 51.4911 109.358 34.9951 89.4316 34.9951V34.9951ZM89.4316 91.7691C78.3435 91.7691 69.3437 82.5027 69.3437 71.4162C69.3437 60.3296 78.3435 51.0632 89.4316 51.0632C100.52 51.0632 109.52 60.3296 109.52 71.4162C109.52 82.5027 100.52 91.7691 89.4316 91.7691Z" fill="#5AD0CD"/>
<path d="M125.592 71.4162C125.592 78.2451 123.664 85.1807 120.048 90.9657L89.4336 139.491V91.7691C100.522 91.7691 109.521 82.5027 109.521 71.4162C109.521 60.3296 100.522 51.0632 89.4336 51.0632V34.9951C109.36 34.9951 125.592 51.4911 125.592 71.4162V71.4162Z" fill="#54CBC8"/>
<path d="M68.6719 71.4162C68.6719 82.5027 77.6717 91.7691 88.7598 91.7691C99.8479 91.7691 108.848 82.5027 108.848 71.4162C108.848 60.3296 99.8479 51.0632 88.7598 51.0632C85.7648 51.0632 82.9223 51.7393 80.3682 52.9446M111.076 104.119L119.374 90.9657C122.99 85.1808 124.918 78.2451 124.918 71.4162C124.918 51.4911 108.687 34.9951 88.7598 34.9951C68.833 34.9951 52.6016 51.4911 52.6016 71.4162C52.6016 78.2451 54.5298 85.1808 58.1456 90.9657L88.7598 139.491L101.782 118.85" stroke="#0D4365" stroke-width="2" stroke-linejoin="bevel"/>
</svg>
