<svg width="180" height="180" viewBox="0 0 180 180" fill="none" xmlns="http://www.w3.org/2000/svg">
<path fill-rule="evenodd" clip-rule="evenodd" d="M145.482 179.709C158.639 165.937 166.719 147.273 166.719 126.722C166.719 84.3508 132.37 50.0017 89.9981 50.0017C47.6264 50.0017 13.2773 84.3508 13.2773 126.722C13.2773 147.273 21.3575 165.937 34.5141 179.709H145.482Z" fill="#A6D892"/>
<rect x="5" y="178.21" width="170" height="1.46104" fill="#104366"/>
<path d="M106.267 125.553C105.987 125.698 105.679 125.766 105.374 125.766C104.888 125.766 104.408 125.588 104.047 125.247L91.0499 112.932C90.6945 112.595 90.4994 112.14 90.4994 111.673C90.4994 112.14 90.3042 112.595 89.9488 112.932L76.9513 125.247C76.5909 125.588 76.1105 125.766 75.625 125.766C75.3197 125.766 75.0119 125.698 74.7316 125.553L42.3281 108.912V142.506C42.3279 142.568 42.3311 142.629 42.3376 142.69C42.3404 142.716 42.3457 142.741 42.3494 142.766C42.3542 142.797 42.3579 142.828 42.3644 142.859C42.3724 142.898 42.3834 142.935 42.394 142.973C42.399 142.99 42.4027 143.008 42.4082 143.025C42.4205 143.063 42.4352 143.1 42.45 143.138C42.4565 143.154 42.462 143.171 42.4693 143.188C42.4838 143.221 42.5006 143.253 42.5171 143.286C42.5273 143.306 42.5366 143.326 42.5476 143.345C42.5626 143.372 42.5791 143.397 42.5954 143.423C42.6109 143.447 42.6257 143.472 42.6422 143.496C42.656 143.516 42.6715 143.534 42.6862 143.553C42.7075 143.582 42.7285 143.609 42.7515 143.636C42.7643 143.651 42.7786 143.665 42.7918 143.68C42.8184 143.709 42.8449 143.737 42.8734 143.765C42.8884 143.779 42.9044 143.792 42.92 143.805C42.9485 143.831 42.9765 143.856 43.0068 143.88C43.0361 143.903 43.0671 143.924 43.0976 143.945C43.1156 143.958 43.1324 143.971 43.1509 143.983C43.2047 144.018 43.2605 144.049 43.3181 144.079L89.6068 167.786C89.8855 167.929 90.1923 168 90.4994 168C90.8064 168 91.1135 167.928 91.3917 167.786L137.68 144.079C137.738 144.049 137.794 144.017 137.848 143.983C137.866 143.971 137.883 143.958 137.901 143.945C137.932 143.924 137.963 143.903 137.992 143.88C138.022 143.856 138.05 143.831 138.079 143.805C138.094 143.792 138.11 143.779 138.125 143.765C138.153 143.737 138.18 143.709 138.206 143.68C138.22 143.665 138.234 143.651 138.247 143.636C138.27 143.61 138.291 143.582 138.312 143.553C138.327 143.534 138.342 143.516 138.356 143.496C138.373 143.472 138.387 143.447 138.403 143.423C138.419 143.397 138.436 143.372 138.451 143.345C138.462 143.326 138.471 143.306 138.481 143.286C138.498 143.253 138.514 143.221 138.529 143.188C138.536 143.171 138.542 143.154 138.548 143.138C138.563 143.101 138.578 143.063 138.59 143.025C138.596 143.008 138.599 142.99 138.604 142.973C138.615 142.935 138.626 142.898 138.634 142.859C138.64 142.828 138.644 142.797 138.649 142.766C138.653 142.741 138.658 142.716 138.661 142.69C138.667 142.629 138.67 142.568 138.67 142.506V108.912L106.267 125.553Z" fill="#3CB5B2"/>
<path d="M89.5143 62.2629C90.0348 61.9976 90.3927 61.5113 90.4778 60.9565C90.4903 60.8714 90.4978 60.786 90.4978 60.7004C90.4978 60.786 90.5053 60.8714 90.5178 60.9541C90.6029 61.509 90.9607 61.9929 91.4812 62.2606L137.776 85.9708C138.059 86.1156 138.364 86.1842 138.669 86.1842C138.364 86.1842 138.059 86.2555 137.776 86.3999L91.4812 110.11C90.9607 110.376 90.6029 110.862 90.5178 111.417C90.5053 111.502 90.4978 111.588 90.4978 111.673C90.4978 111.588 90.4903 111.502 90.4778 111.417C90.3927 110.862 90.0348 110.376 89.5143 110.11L43.2197 86.3999C42.9719 86.2745 42.7067 86.2031 42.4414 86.1865C42.7067 86.1699 42.9719 86.099 43.2197 85.9731L89.5143 62.2629Z" fill="#219390"/>
<line y1="-1" x2="17.554" y2="-1" transform="matrix(-0.368007 -0.929823 0.942288 -0.334804 77.1055 34.3623)" stroke="#219390" stroke-width="2"/>
<line y1="-1" x2="17.4984" y2="-1" transform="matrix(0.272126 -0.962262 0.969251 0.246074 105.945 34.6204)" stroke="#219390" stroke-width="2"/>
<line x1="90.1016" y1="34.3623" x2="90.1016" y2="15.9999" stroke="#219390" stroke-width="2"/>
<path d="M153.401 71.833C153.486 72.3879 153.293 72.9472 152.875 73.3455L140.003 85.6587C139.642 86.0046 139.159 86.1848 138.671 86.1848C138.366 86.1848 138.061 86.1163 137.778 85.9714L91.4834 62.2612C90.9629 61.9935 90.6051 61.5096 90.52 60.9548C90.5075 60.8718 90.5 60.7867 90.5 60.7011C90.5 60.6987 90.5 60.6987 90.5 60.6964C90.5 60.2295 90.6952 59.7738 91.0505 59.44L104.048 47.1246C104.634 46.5674 105.537 46.4444 106.268 46.819L152.437 70.5292C152.958 70.7943 153.313 71.2782 153.401 71.833Z" fill="#32AAA7"/>
<path d="M152.875 99.026C153.293 99.4244 153.486 99.9841 153.401 100.539C153.313 101.091 152.958 101.575 152.437 101.843L106.268 125.553C105.987 125.698 105.68 125.766 105.374 125.766C104.889 125.766 104.408 125.588 104.048 125.247L91.0505 112.932C90.6952 112.596 90.5 112.14 90.5 111.673C90.5 111.588 90.5075 111.503 90.52 111.417C90.6051 110.862 90.9629 110.376 91.4834 110.111L137.778 86.4003C138.061 86.2559 138.366 86.1846 138.671 86.1846C139.159 86.1846 139.642 86.3671 140.003 86.7112L152.875 99.026Z" fill="#4BC5C1"/>
<path d="M152.875 99.0258L140.003 86.7109C139.643 86.3669 139.16 86.1843 138.672 86.1843C138.366 86.1843 138.061 86.2557 137.778 86.4001L132.891 88.9048C133.173 88.7604 133.479 88.6891 133.784 88.6891C134.272 88.6891 134.755 88.8716 135.115 89.2157L147.988 101.531C148.406 101.929 148.599 102.489 148.513 103.043C148.426 103.596 148.07 104.079 147.55 104.348L152.438 101.843C152.958 101.575 153.313 101.091 153.401 100.539C153.486 99.9839 153.293 99.4241 152.875 99.0258Z" fill="#3CB5B2"/>
<path d="M90.4985 60.696C90.4985 60.6984 90.4985 60.6984 90.4985 60.7008C90.4985 60.7864 90.491 60.8717 90.4785 60.9568C90.3934 61.5116 90.0356 61.9979 89.5151 62.2633L43.2204 85.9735C42.9727 86.0994 42.7074 86.1703 42.4422 86.1869C42.3896 86.1845 42.3346 86.1845 42.282 86.1869C41.8091 86.1776 41.3461 85.9974 40.9958 85.6631L28.1234 73.3475C27.7055 72.9492 27.5128 72.3899 27.5979 71.8351C27.6854 71.2826 28.0408 70.7987 28.5613 70.531L74.7308 46.8208C75.4615 46.4462 76.3649 46.5716 76.9505 47.1264L89.948 59.4417C90.3034 59.7787 90.496 60.2315 90.4985 60.696Z" fill="#3CB5B2"/>
<path d="M90.4785 111.417C90.491 111.503 90.4985 111.588 90.4985 111.673C90.4985 112.14 90.3034 112.596 89.948 112.932L76.9505 125.247C76.5901 125.588 76.1097 125.766 75.6242 125.766C75.3189 125.766 75.0111 125.698 74.7308 125.553L28.5613 101.843C28.0408 101.575 27.6854 101.091 27.5979 100.539C27.5128 99.9842 27.7055 99.4244 28.1234 99.0261L40.9958 86.7112C41.3461 86.3769 41.8091 86.1967 42.282 86.187C42.297 86.1894 42.3121 86.1894 42.3271 86.1894C42.3646 86.1894 42.4021 86.1894 42.4422 86.187C42.7074 86.2036 42.9727 86.275 43.2204 86.4004L89.5151 110.111C90.0356 110.376 90.3934 110.862 90.4785 111.417Z" fill="#5AD0CD"/>
<path d="M138.127 109.191C138.103 109.235 138.077 109.252 138.052 109.23H138.051L131.161 112.768V146.36C131.161 146.421 131.158 146.482 131.152 146.543C131.149 146.569 131.144 146.594 131.14 146.619C131.135 146.65 131.131 146.681 131.125 146.712C131.117 146.751 131.106 146.788 131.095 146.826C131.09 146.843 131.087 146.861 131.081 146.878C131.069 146.917 131.054 146.953 131.039 146.991C131.033 147.007 131.027 147.024 131.02 147.041C131.005 147.074 130.989 147.106 130.972 147.139C130.962 147.159 130.953 147.179 130.942 147.199C130.927 147.225 130.91 147.251 130.894 147.276C130.879 147.301 130.864 147.325 130.847 147.349C130.833 147.369 130.818 147.388 130.803 147.407C130.782 147.435 130.761 147.463 130.738 147.49C130.725 147.505 130.711 147.518 130.697 147.533C130.671 147.562 130.644 147.591 130.616 147.618C130.601 147.632 130.585 147.645 130.57 147.659C130.541 147.684 130.513 147.71 130.483 147.733C130.453 147.756 130.422 147.777 130.392 147.798C130.374 147.811 130.357 147.824 130.339 147.836C130.326 147.844 130.313 147.85 130.301 147.858L137.679 144.079C137.737 144.049 137.793 144.017 137.847 143.983C137.865 143.971 137.882 143.958 137.9 143.945C137.931 143.924 137.962 143.903 137.991 143.88C138.021 143.856 138.049 143.831 138.078 143.805C138.093 143.792 138.109 143.779 138.124 143.764C138.152 143.737 138.179 143.709 138.205 143.679C138.219 143.665 138.233 143.651 138.246 143.636C138.269 143.609 138.29 143.582 138.311 143.553C138.326 143.534 138.341 143.516 138.355 143.496C138.372 143.472 138.386 143.447 138.402 143.423C138.418 143.397 138.435 143.372 138.45 143.345C138.461 143.325 138.47 143.305 138.48 143.286C138.497 143.253 138.513 143.221 138.528 143.187C138.535 143.171 138.541 143.154 138.547 143.137C138.562 143.1 138.577 143.063 138.589 143.025C138.595 143.008 138.598 142.99 138.603 142.972C138.614 142.935 138.625 142.897 138.633 142.859C138.639 142.828 138.643 142.797 138.648 142.766C138.652 142.74 138.657 142.715 138.66 142.689C138.666 142.629 138.669 142.568 138.669 142.506V108.912L138.127 109.191Z" fill="#32AAA7"/>
<path d="M89.9488 112.932L76.9513 125.247C76.5909 125.588 76.1105 125.766 75.625 125.766C75.3197 125.766 75.0119 125.698 74.7316 125.553L42.3281 108.912V142.506C42.3279 142.568 42.3311 142.629 42.3376 142.69C42.3404 142.716 42.3457 142.741 42.3494 142.766C42.3542 142.797 42.3579 142.828 42.3644 142.859C42.3724 142.898 42.3834 142.935 42.394 142.973C42.399 142.99 42.4027 143.008 42.4082 143.025C42.4205 143.063 42.4352 143.1 42.45 143.138C42.4565 143.154 42.462 143.171 42.4693 143.188C42.4838 143.221 42.5006 143.253 42.5171 143.286C42.5273 143.306 42.5366 143.326 42.5476 143.345C42.5626 143.372 42.5791 143.397 42.5954 143.423C42.6109 143.447 42.6257 143.472 42.6422 143.496C42.656 143.516 42.6715 143.534 42.6862 143.553C42.7075 143.582 42.7285 143.609 42.7515 143.636C42.7643 143.651 42.7786 143.665 42.7918 143.68C42.8184 143.709 42.8449 143.737 42.8734 143.765C42.8884 143.779 42.9044 143.792 42.92 143.805C42.9485 143.831 42.9765 143.856 43.0068 143.88C43.0361 143.903 43.0671 143.924 43.0976 143.945C43.1156 143.958 43.1324 143.971 43.1509 143.983C43.2047 144.018 43.2605 144.049 43.3181 144.079L89.6067 167.786C89.8855 167.929 90.1923 168 90.4994 168V111.673C90.4994 112.14 90.3042 112.595 89.9488 112.932Z" fill="#4BC5C1"/>
<path d="M90.4994 111.673C90.4994 112.14 90.3042 112.595 89.9488 112.932M42.3281 108.912V142.506C42.3279 142.568 42.3311 142.629 42.3376 142.69C42.3404 142.716 42.3457 142.741 42.3494 142.766C42.3542 142.797 42.3579 142.828 42.3644 142.859C42.3724 142.898 42.3834 142.935 42.394 142.973C42.399 142.99 42.4027 143.008 42.4082 143.025C42.4205 143.063 42.4352 143.1 42.45 143.138C42.4565 143.154 42.462 143.171 42.4693 143.188C42.4838 143.221 42.5006 143.253 42.5171 143.286C42.5273 143.306 42.5366 143.326 42.5476 143.345C42.5626 143.372 42.5791 143.397 42.5954 143.423C42.6109 143.447 42.6257 143.472 42.6422 143.496C42.656 143.516 42.6715 143.534 42.6862 143.553C42.7075 143.582 42.7285 143.609 42.7515 143.636C42.7643 143.651 42.7786 143.665 42.7918 143.68C42.8184 143.709 42.8449 143.737 42.8734 143.765C42.8884 143.779 42.9044 143.792 42.92 143.805C42.9485 143.831 42.9765 143.856 43.0068 143.88C43.0361 143.903 43.0671 143.924 43.0976 143.945C43.1156 143.958 43.1324 143.971 43.1509 143.983C43.2047 144.018 43.2605 144.049 43.3181 144.079L89.6068 167.786C89.8855 167.929 90.1923 168 90.4994 168C90.8064 168 91.1135 167.928 91.3917 167.786L137.68 144.079C137.738 144.049 137.794 144.017 137.848 143.983C137.866 143.971 137.883 143.958 137.901 143.945C137.932 143.924 137.963 143.903 137.992 143.88C138.022 143.856 138.05 143.831 138.079 143.805C138.094 143.792 138.11 143.779 138.125 143.765C138.153 143.737 138.18 143.709 138.206 143.68C138.22 143.665 138.234 143.651 138.247 143.636C138.27 143.61 138.291 143.582 138.312 143.553C138.327 143.534 138.342 143.516 138.356 143.496C138.373 143.472 138.387 143.447 138.403 143.423C138.419 143.397 138.436 143.372 138.451 143.345C138.462 143.326 138.471 143.306 138.481 143.286C138.498 143.253 138.514 143.221 138.529 143.188C138.536 143.171 138.542 143.154 138.548 143.138C138.563 143.101 138.578 143.063 138.59 143.025C138.596 143.008 138.599 142.99 138.604 142.973C138.615 142.935 138.626 142.898 138.634 142.859C138.64 142.828 138.644 142.797 138.649 142.766C138.653 142.741 138.658 142.716 138.661 142.69C138.667 142.629 138.67 142.568 138.67 142.506V133.833M138.67 107.812V125.159" stroke="#0D4365" stroke-width="2"/>
<path d="M97.2703 65.225L91.4834 62.2612C90.9629 61.9935 90.6051 61.5096 90.52 60.9548C90.5075 60.8718 90.5 60.7867 90.5 60.7011C90.5 60.6987 90.5 60.6987 90.5 60.6964C90.5 60.2295 90.6952 59.7738 91.0505 59.44L104.048 47.1246C104.634 46.5674 105.537 46.4444 106.268 46.819L152.437 70.5292C152.958 70.7943 153.313 71.2782 153.401 71.833C153.486 72.3879 153.293 72.9472 152.875 73.3455L140.003 85.6587C139.642 86.0046 139.159 86.1848 138.671 86.1848C138.366 86.1848 138.061 86.1163 137.778 85.9714L114.631 74.1163L108.844 71.1526" stroke="#0D4365" stroke-width="2"/>
<path d="M152.875 99.026C153.293 99.4244 153.486 99.9841 153.401 100.539C153.313 101.091 152.958 101.575 152.437 101.843L106.268 125.553C105.987 125.698 105.68 125.766 105.374 125.766C104.889 125.766 104.408 125.588 104.048 125.247L91.0505 112.932C90.6952 112.596 90.5 112.14 90.5 111.673C90.5 111.588 90.5075 111.503 90.52 111.417C90.6051 110.862 90.9629 110.376 91.4834 110.111L137.778 86.4003C138.061 86.2559 138.366 86.1846 138.671 86.1846C139.159 86.1846 139.642 86.3671 140.003 86.7112L152.875 99.026Z" stroke="#0D4365" stroke-width="2"/>
<path d="M90.4985 60.696C90.4985 60.6984 90.4985 60.6984 90.4985 60.7008C90.4985 60.7864 90.491 60.8717 90.4785 60.9568C90.3934 61.5116 90.0356 61.9979 89.5151 62.2633L43.2204 85.9735C42.9727 86.0994 42.7074 86.1703 42.4422 86.1869C42.3896 86.1845 42.3346 86.1845 42.282 86.1869C41.8091 86.1776 41.3461 85.9974 40.9958 85.6631L28.1234 73.3475C27.7055 72.9492 27.5128 72.3899 27.5979 71.8351C27.6854 71.2826 28.0408 70.7987 28.5613 70.531L74.7308 46.8208C75.4615 46.4462 76.3649 46.5716 76.9505 47.1264L89.948 59.4417C90.3034 59.7787 90.496 60.2315 90.4985 60.696Z" stroke="#0D4365" stroke-width="2"/>
<path d="M56.6481 116.483L28.5613 101.843C28.0408 101.575 27.6854 101.091 27.5979 100.539C27.5128 99.9842 27.7055 99.4244 28.1234 99.0261L40.9958 86.7112C41.3461 86.3769 41.8091 86.1967 42.282 86.187C42.297 86.1894 42.3121 86.1894 42.3271 86.1894C42.3646 86.1894 42.4021 86.1894 42.4422 86.187C42.7074 86.2036 42.9727 86.275 43.2204 86.4004L89.5151 110.111C90.0356 110.376 90.3934 110.862 90.4785 111.417C90.491 111.503 90.4985 111.588 90.4985 111.673C90.4985 112.14 90.3034 112.596 89.948 112.932L76.9505 125.247C76.5901 125.588 76.1097 125.766 75.6242 125.766C75.3189 125.766 75.0111 125.698 74.7308 125.553L71.7215 124.134" stroke="#0D4365" stroke-width="2"/>
<path d="M89.9488 112.932C90.3042 112.595 90.4993 112.14 90.4993 111.673V168C90.1923 168 89.8855 167.929 89.6067 167.786L43.3181 144.079C43.2605 144.049 43.2047 144.018 43.1509 143.983C43.1324 143.971 43.1156 143.958 43.0976 143.945C43.0671 143.924 43.0361 143.903 43.0068 143.88C42.9765 143.856 42.9485 143.831 42.92 143.805C42.9044 143.792 42.8884 143.779 42.8734 143.765C42.8449 143.737 42.8184 143.709 42.7918 143.68C42.7786 143.665 42.7643 143.651 42.7515 143.636C42.7285 143.609 42.7075 143.582 42.6862 143.553C42.6715 143.534 42.656 143.516 42.6422 143.496C42.6257 143.472 42.6109 143.447 42.5954 143.423C42.5791 143.397 42.5626 143.372 42.5476 143.345C42.5366 143.326 42.5273 143.306 42.5171 143.286C42.5006 143.253 42.4838 143.221 42.4693 143.188C42.462 143.171 42.4565 143.154 42.45 143.137C42.4352 143.1 42.4205 143.063 42.4082 143.025C42.4027 143.008 42.399 142.99 42.394 142.972C42.3834 142.935 42.3724 142.898 42.3644 142.859C42.3579 142.828 42.3542 142.797 42.3494 142.766C42.3457 142.741 42.3404 142.715 42.3376 142.69C42.3311 142.629 42.3279 142.568 42.3281 142.506L42.3281 108.832" stroke="#0D4365" stroke-width="2"/>
</svg>
