<svg width="170" height="147" viewBox="0 0 170 147" fill="none" xmlns="http://www.w3.org/2000/svg">
<path fill-rule="evenodd" clip-rule="evenodd" d="M140.482 144.369C153.639 130.596 161.719 111.933 161.719 91.3819C161.719 49.0102 127.37 14.6611 84.9981 14.6611C42.6264 14.6611 8.27734 49.0102 8.27734 91.3819C8.27734 111.933 16.3575 130.596 29.5141 144.369H140.482Z" fill="#A6D892"/>
<path d="M116.869 89H51.9378L35 129H134L116.869 89Z" fill="#24BBC7"/>
<path d="M134 129H85V89H117.042L134 129Z" fill="#1BAEBA"/>
<path d="M112.994 95H56.0062L44 124H125L112.994 95Z" fill="#B0FAE9"/>
<path d="M125 124H85V95H113.114L125 124Z" fill="#9FECDA"/>
<path d="M69.3045 91L75 91.7287L70.6955 127L65 126.271L69.3045 91Z" fill="#24BBC7"/>
<path d="M98.3668 127L94 91.7452L99.6339 91L104 126.255L98.3668 127Z" fill="#1BAEBA"/>
<path d="M48 106H121V112H48V106Z" fill="#24BBC7"/>
<path d="M85 106H121V112H85V106Z" fill="#1BAEBA"/>
<rect y="144.369" width="170" height="1.65584" fill="#104366"/>
<path d="M81 89H52.9378L44.5909 109.205M109.227 89H117.869L135 130H36L39.4569 121.632" stroke="#0D4365" stroke-width="2"/>
<path d="M84.4316 1C64.5049 1 48.2734 17.4982 48.2734 37.426C48.2734 44.2559 50.2017 51.1925 53.8175 56.9782L84.4316 105.51L115.046 56.9782C118.662 51.1925 120.59 44.2559 120.59 37.426C120.59 17.4982 104.358 1 84.4316 1V1ZM84.4316 57.7818C73.3435 57.7818 64.3438 48.5141 64.3438 37.426C64.3438 26.3379 73.3435 17.0703 84.4316 17.0703C95.5197 17.0703 104.52 26.3379 104.52 37.426C104.52 48.5141 95.5197 57.7818 84.4316 57.7818Z" fill="#5AD0CD"/>
<path d="M120.592 37.426C120.592 44.2559 118.664 51.1925 115.048 56.9782L84.4336 105.51V57.7818C95.5217 57.7818 104.521 48.5141 104.521 37.426C104.521 26.3379 95.5217 17.0703 84.4336 17.0703V1C104.36 1 120.592 17.4982 120.592 37.426Z" fill="#54CBC8"/>
<path d="M63.6719 37.426C63.6719 48.5141 72.6717 57.7818 83.7598 57.7818C94.8479 57.7818 103.848 48.5141 103.848 37.426C103.848 26.3379 94.8479 17.0703 83.7598 17.0703C80.7648 17.0703 77.9223 17.7464 75.3682 18.9519M106.076 70.1333L114.374 56.9783C117.99 51.1925 119.918 44.2559 119.918 37.426C119.918 17.4982 103.687 1 83.7598 1C63.833 1 47.6016 17.4982 47.6016 37.426C47.6016 44.2559 49.5298 51.1925 53.1456 56.9783L83.7598 105.51L96.7819 84.8667" stroke="#0D4365" stroke-width="2" stroke-linejoin="bevel"/>
</svg>
