<svg width="100" height="100" viewBox="0 0 100 100" fill="none" xmlns="http://www.w3.org/2000/svg">
<path d="M72 56.2969H66.5V59.0156H72V56.2969Z" fill="#0F6176"/>
<path d="M8.75 34.5469V25.3711C8.75095 24.5602 9.07721 23.7828 9.6572 23.2094C10.2372 22.636 11.0235 22.3134 11.8438 22.3125H60.6562C61.4765 22.3134 62.2628 22.636 62.8428 23.2094C63.4228 23.7828 63.749 24.5602 63.75 25.3711V27.75H66.9551C67.4646 27.7495 67.9662 27.8736 68.4153 28.1112C68.8645 28.3489 69.2472 28.6927 69.5293 29.1121L74.1313 35.9368C75.0498 36.0266 75.9389 36.3071 76.7402 36.7601C77.5415 37.213 78.237 37.8282 78.7812 38.5654L81.362 42.0734L79.138 43.6727L76.5574 40.1647C76.206 39.6884 75.7459 39.3008 75.2146 39.0333C74.6832 38.7658 74.0956 38.6259 73.4993 38.625H63.75V50.8594H84.4248L80.513 45.5418L82.737 43.9425L88.0188 51.1234C88.9619 51.4491 89.7795 52.0565 90.3583 52.8615C90.9372 53.6665 91.2488 54.6295 91.25 55.6172V72.2695C91.249 73.0804 90.9228 73.8578 90.3428 74.4312C89.7628 75.0046 88.9765 75.3272 88.1562 75.3281H85.75C85.75 77.8518 84.7359 80.2722 82.9309 82.0567C81.1259 83.8412 78.6777 84.8438 76.125 84.8438C73.5723 84.8438 71.1241 83.8412 69.3191 82.0567C67.5141 80.2722 66.5 77.8518 66.5 75.3281H33.5C33.5 77.8518 32.4859 80.2722 30.6809 82.0567C28.8759 83.8412 26.4277 84.8438 23.875 84.8438C21.3223 84.8438 18.8741 83.8412 17.0691 82.0567C15.2641 80.2722 14.25 77.8518 14.25 75.3281H11.8438C11.0235 75.3272 10.2372 75.0046 9.6572 74.4312C9.07721 73.8578 8.75095 73.0804 8.75 72.2695V37.2656H11.5V60.375H61V25.3711C61 25.281 60.9638 25.1945 60.8993 25.1308C60.8349 25.0671 60.7474 25.0312 60.6562 25.0312H11.8438C11.7526 25.0312 11.6651 25.0671 11.6007 25.1308C11.5362 25.1945 11.5 25.281 11.5 25.3711V34.5469H8.75ZM70.8058 35.9062L67.2411 30.6202C67.2097 30.5736 67.1672 30.5354 67.1173 30.509C67.0674 30.4826 67.0117 30.4688 66.9551 30.4688H63.75V35.9062H70.8058ZM88.5 55.6172C88.4994 55.0766 88.2819 54.5583 87.8953 54.176C87.5086 53.7937 86.9843 53.5787 86.4375 53.5781H84.375V59.6953C84.3756 60.2359 84.5931 60.7542 84.9797 61.1365C85.3664 61.5188 85.8907 61.7338 86.4375 61.7344H88.5V55.6172ZM76.125 82.125C77.4847 82.125 78.814 81.7264 79.9445 80.9795C81.0751 80.2327 81.9563 79.1711 82.4767 77.9292C82.997 76.6872 83.1332 75.3206 82.8679 74.0021C82.6026 72.6837 81.9478 71.4726 80.9864 70.522C80.0249 69.5714 78.7999 68.9241 77.4662 68.6618C76.1326 68.3996 74.7503 68.5342 73.4941 69.0486C72.2378 69.5631 71.1641 70.4342 70.4086 71.552C69.6532 72.6697 69.25 73.9838 69.25 75.3281C69.252 77.1301 69.977 78.8578 71.2659 80.132C72.5548 81.4062 74.3023 82.123 76.125 82.125ZM66.9001 72.6094C67.4927 70.6456 68.7105 68.9233 70.3726 67.6987C72.0347 66.4742 74.0521 65.8127 76.125 65.8127C78.1979 65.8127 80.2153 66.4742 81.8774 67.6987C83.5395 68.9233 84.7574 70.6456 85.3499 72.6094H88.1562C88.2474 72.6094 88.3349 72.5736 88.3993 72.5098C88.4638 72.4461 88.5 72.3597 88.5 72.2695V64.4531H86.4375C85.1616 64.4517 83.9384 63.95 83.0362 63.058C82.134 62.1661 81.6265 60.9567 81.625 59.6953V53.5781H63.75V72.6094H66.9001ZM23.875 82.125C25.2347 82.125 26.564 81.7264 27.6945 80.9795C28.8251 80.2327 29.7063 79.1711 30.2267 77.9292C30.747 76.6872 30.8832 75.3206 30.6179 74.0021C30.3526 72.6837 29.6978 71.4726 28.7364 70.522C27.7749 69.5714 26.5499 68.9241 25.2162 68.6618C23.8826 68.3996 22.5003 68.5342 21.244 69.0486C19.9878 69.5631 18.9141 70.4342 18.1586 71.552C17.4032 72.6697 17 73.9838 17 75.3281C17.002 77.1301 17.727 78.8578 19.0159 80.132C20.3048 81.4062 22.0523 82.123 23.875 82.125ZM11.5 63.0938V72.2695C11.5 72.3597 11.5362 72.4461 11.6007 72.5098C11.6651 72.5736 11.7526 72.6094 11.8438 72.6094H14.6501C15.2427 70.6456 16.4605 68.9233 18.1226 67.6987C19.7847 66.4742 21.8021 65.8127 23.875 65.8127C25.9479 65.8127 27.9654 66.4742 29.6274 67.6987C31.2895 68.9233 32.5074 70.6456 33.0999 72.6094H61V63.0938H11.5Z" fill="#0F6176"/>
<path d="M36.2249 57.6564C36.5183 57.6565 36.8041 57.5636 37.0402 57.3915L40.0377 55.2095C44.6952 51.8538 47.8731 46.8596 48.9165 41.2562C48.9184 41.2455 48.9203 41.2349 48.9218 41.2242L49.952 34.7587C49.999 34.4634 49.9463 34.1611 49.802 33.8984C49.6577 33.6357 49.4298 33.4274 49.1537 33.3057L36.7958 27.8578C36.6196 27.7801 36.4288 27.74 36.2359 27.74C36.0429 27.74 35.8521 27.7801 35.6759 27.8578L23.3181 33.3057C23.0419 33.4275 22.814 33.6359 22.6697 33.8986C22.5254 34.1614 22.4727 34.4639 22.5199 34.7592L23.5606 41.2781C23.5623 41.2886 23.564 41.2992 23.5661 41.3097C24.6178 46.9612 27.841 51.991 32.5603 55.3453L35.4164 57.3979C35.6515 57.5663 35.9345 57.6568 36.2249 57.6564ZM46.2079 40.7845C45.2861 45.6991 42.4944 50.0778 38.407 53.0197L36.2195 54.6126L34.1773 53.1449C30.0356 50.2042 27.2039 45.7945 26.2743 40.8377L25.4005 35.3638L36.2359 30.5878L47.0716 35.3646L46.2079 40.7845Z" fill="#0F6176"/>
<path d="M34.5737 46.7811C34.3931 46.7813 34.2143 46.7462 34.0474 46.6778C33.8806 46.6095 33.7291 46.5092 33.6016 46.3828L29.4766 42.3047L31.421 40.3823L34.5737 43.4992L41.8516 36.3042L43.796 38.2265L35.546 46.3828C35.4185 46.5092 35.2669 46.6095 35.1 46.6779C34.9332 46.7462 34.7543 46.7813 34.5737 46.7811Z" fill="#0F6176"/>
<path d="M58.25 27.75H55.5V30.4688H58.25V27.75Z" fill="#0F6176"/>
<path d="M58.25 54.9375H55.5V57.6562H58.25V54.9375Z" fill="#0F6176"/>
<path d="M17 27.75H14.25V30.4688H17V27.75Z" fill="#0F6176"/>
<path d="M17 54.9375H14.25V57.6562H17V54.9375Z" fill="#0F6176"/>
<path d="M76.125 78.0469C74.6062 78.0469 73.375 76.8296 73.375 75.3281C73.375 73.8266 74.6062 72.6094 76.125 72.6094C77.6438 72.6094 78.875 73.8266 78.875 75.3281C78.875 76.8296 77.6438 78.0469 76.125 78.0469Z" fill="#0F6176"/>
<path d="M76.125 79.4062C76.9408 79.4062 77.7384 79.1671 78.4167 78.719C79.0951 78.2709 79.6238 77.6339 79.936 76.8888C80.2482 76.1436 80.3299 75.3236 80.1707 74.5325C80.0116 73.7414 79.6187 73.0148 79.0418 72.4445C78.4649 71.8741 77.7299 71.4857 76.9297 71.3284C76.1296 71.171 75.3002 71.2518 74.5464 71.5604C73.7927 71.8691 73.1484 72.3918 72.6952 73.0624C72.2419 73.7331 72 74.5215 72 75.3281C72.0012 76.4093 72.4362 77.4459 73.2095 78.2105C73.9829 78.975 75.0314 79.405 76.125 79.4062ZM76.125 73.9688C76.3969 73.9688 76.6628 74.0485 76.8889 74.1978C77.115 74.3472 77.2913 74.5595 77.3953 74.8079C77.4994 75.0563 77.5266 75.3296 77.4736 75.5933C77.4205 75.857 77.2896 76.0992 77.0973 76.2894C76.905 76.4795 76.66 76.6089 76.3932 76.6614C76.1265 76.7138 75.8501 76.6869 75.5988 76.584C75.3476 76.4811 75.1328 76.3069 74.9817 76.0834C74.8306 75.8598 74.75 75.597 74.75 75.3281C74.7504 74.9677 74.8954 74.6222 75.1532 74.3673C75.411 74.1125 75.7605 73.9692 76.125 73.9688Z" fill="#0F6176"/>
<path d="M23.875 78.0469C22.3562 78.0469 21.125 76.8296 21.125 75.3281C21.125 73.8266 22.3562 72.6094 23.875 72.6094C25.3938 72.6094 26.625 73.8266 26.625 75.3281C26.625 76.8296 25.3938 78.0469 23.875 78.0469Z" fill="#0F6176"/>
<path d="M23.875 79.4062C24.6908 79.4062 25.4884 79.1671 26.1667 78.719C26.8451 78.2709 27.3738 77.6339 27.686 76.8888C27.9982 76.1436 28.0799 75.3236 27.9207 74.5325C27.7616 73.7414 27.3687 73.0148 26.7918 72.4445C26.2149 71.8741 25.4799 71.4857 24.6797 71.3284C23.8796 71.171 23.0502 71.2518 22.2964 71.5604C21.5427 71.8691 20.8985 72.3918 20.4452 73.0624C19.9919 73.7331 19.75 74.5215 19.75 75.3281C19.7512 76.4093 20.1862 77.4459 20.9595 78.2105C21.7329 78.975 22.7814 79.405 23.875 79.4062ZM23.875 73.9688C24.1469 73.9688 24.4128 74.0485 24.6389 74.1978C24.865 74.3472 25.0413 74.5595 25.1453 74.8079C25.2494 75.0563 25.2766 75.3296 25.2236 75.5933C25.1705 75.857 25.0396 76.0992 24.8473 76.2894C24.655 76.4795 24.41 76.6089 24.1432 76.6614C23.8765 76.7138 23.6001 76.6869 23.3488 76.584C23.0976 76.4811 22.8828 76.3069 22.7317 76.0834C22.5806 75.8598 22.5 75.597 22.5 75.3281C22.5004 74.9677 22.6454 74.6222 22.9032 74.3673C23.161 74.1125 23.5105 73.9692 23.875 73.9688Z" fill="#0F6176"/>
<path d="M91.25 27.75H80.25V30.4688H91.25V27.75Z" fill="#0F6176"/>
<path d="M77.5 27.75H74.75V30.4688H77.5V27.75Z" fill="#0F6176"/>
<path d="M78.875 14.1562H56.875V16.875H78.875V14.1562Z" fill="#0F6176"/>
<path d="M54.125 14.1562H51.375V16.875H54.125V14.1562Z" fill="#0F6176"/>
<path d="M41.75 16.875H19.75V19.5938H41.75V16.875Z" fill="#0F6176"/>
<path d="M17 16.875H14.25V19.5938H17V16.875Z" fill="#0F6176"/>
<path d="M65.125 79.4062H40.375V82.125H65.125V79.4062Z" fill="#0F6176"/>
<path d="M37.625 79.4062H34.875V82.125H37.625V79.4062Z" fill="#0F6176"/>
</svg>
