<svg width="689" height="397" viewBox="0 0 689 397" fill="none" xmlns="http://www.w3.org/2000/svg">
<path d="M652.125 386.147C676.241 343.658 688.314 274.821 664.203 221.868C650.509 191.77 622.213 161.305 593.835 146.709C542.839 120.538 499.094 145.312 474.311 142.541C447.064 139.494 437.433 86.7648 378.408 54.6231C335.109 31.0486 267.029 23.2737 218.909 34.3677C169.046 45.8759 132.821 78.5181 148.832 145.118C152.704 161.23 159.118 177.202 166.323 191.964C207.631 276.577 92.1233 247.779 77.0794 328.594C75.179 338.801 74.9744 348.346 76.8003 362.498C76.8138 362.64 76.837 362.783 76.8552 362.928L652.125 386.147Z" fill="#D1D6DE"/>
<path d="M633.809 386.933C659.782 347.372 675.733 281.601 655.682 228.929C644.294 198.991 618.798 167.791 592.239 151.92C544.509 123.458 500.637 144.678 476.824 140.459C450.644 135.82 444.592 84.265 389.461 49.5331C349.018 24.0583 283.613 12.3108 236.356 20.0391C187.386 28.0592 150.305 57.3509 161.671 122.707C164.42 138.518 169.637 154.352 175.695 169.066C210.427 253.403 100.426 218.39 80.8569 295.551C78.3852 305.297 77.5954 314.509 78.4852 328.298C78.4895 328.436 78.5031 328.576 78.5117 328.717L633.809 386.933Z" fill="#D3DCEE"/>
<path d="M54.604 397C30.9495 352.486 21.1031 281.471 48.7574 228.203C64.4655 197.925 95.5908 167.867 126.137 154.07C181.025 129.336 226.128 156.5 252.386 154.671C281.255 152.66 293.626 99.0313 357.235 68.5075C403.896 46.12 476.034 40.9292 526.326 54.2562C578.439 68.0787 615.279 102.997 595.597 170.576C590.835 186.925 583.4 203.027 575.18 217.858C528.059 302.861 651.105 278.065 663.583 361.473C665.537 381.906 660.352 384.264 653.828 396.561C645.598 397.005 653.778 396.852 653.752 397H54.604Z" fill="#D77449"/>
<path d="M59.817 227.946L59.8171 227.946C75.1152 197.676 105.442 167.616 135.175 153.829C161.864 141.484 186.174 142.085 207.04 145.556C214.819 146.85 222.106 148.54 228.87 150.109C231.189 150.646 233.446 151.17 235.64 151.658C244.213 153.566 251.843 154.942 258.337 154.477C265.556 153.961 271.705 150.131 277.811 144.292C282.876 139.449 287.959 133.177 293.627 126.181C294.785 124.753 295.966 123.295 297.177 121.813C311.479 104.304 329.98 83.2744 360.953 68.0175C406.42 45.6241 476.767 40.4238 525.79 53.7594C551.181 60.6729 572.781 72.844 585.647 91.6689C598.502 110.477 602.698 136.013 593.113 169.793C588.475 186.142 581.228 202.256 573.209 217.109C561.668 238.479 560.472 253.086 565.553 264.257C570.614 275.385 581.848 282.951 594.747 290.392C597.126 291.764 599.564 293.134 602.035 294.522C626.447 308.235 654.02 323.725 659.517 361.443C661.048 371.945 660.871 381.707 658.417 396.133L658.415 396.141L658.414 396.149C658.414 396.152 658.413 396.154 658.413 396.157L65.387 396.5C42.4316 351.943 32.9464 281.079 59.817 227.946Z" fill="#233862" stroke="#233862"/>
<path d="M71.5784 396.01C48.9931 352.386 39.5918 282.789 65.996 230.584C80.9941 200.912 110.713 171.454 139.878 157.932C192.285 133.692 235.35 160.314 260.42 158.522C287.984 156.551 299.796 103.993 360.53 74.0792C405.082 52.1388 473.959 47.0517 521.978 60.1125C571.735 73.6589 606.91 107.88 588.117 174.109C583.571 190.131 576.472 205.912 568.624 220.446C523.632 303.751 641.117 279.451 653.03 361.193C654.535 371.517 654.359 381.109 651.953 395.245C651.934 395.387 651.905 395.53 651.88 395.675L71.5784 396.01Z" fill="#E5F2F3"/>
<path d="M54.8647 396.001C30.9333 349.707 20.9717 275.851 48.9497 220.452C64.8417 188.963 96.3314 157.703 127.235 143.353C182.766 117.63 228.397 145.881 254.962 143.979C284.169 141.887 296.685 86.1135 361.039 54.3688C408.246 31.0858 481.228 25.6873 532.109 39.5475C584.832 53.9228 622.104 90.2379 602.191 160.52C597.374 177.523 589.851 194.269 581.536 209.693C533.862 298.096 658.349 272.308 670.973 359.053C672.567 370.008 672.38 380.188 669.831 395.188C669.811 395.34 669.78 395.491 669.754 395.645" stroke="white" stroke-linecap="round"/>
<path d="M56.9964 390.501C33.065 344.207 28.9724 270.851 56.9505 215.452C72.8425 183.963 104.332 152.703 135.236 138.353C190.767 112.63 236.398 140.881 262.963 138.979C292.17 136.887 304.686 81.1135 369.039 49.3688C416.247 26.0858 489.229 20.6873 540.11 34.5475C592.833 48.9228 630.105 85.2379 610.192 155.52C605.375 172.523 597.852 189.269 589.536 204.693C541.863 293.096 666.35 267.308 678.974 354.053C680.568 365.008 680.381 375.188 677.832 390.188C677.811 390.34 677.781 390.491 677.755 390.645" stroke="#233862" stroke-linecap="round"/>
<path d="M371.052 385.419L241.352 156.419C232.586 154.568 222.656 151.926 211.73 150.032V211.363L309.089 385.419H371.052Z" fill="#E7F7F7"/>
<path d="M386.805 63.8465L513.128 275.267V193.863L428.398 55.1675C413.989 56.9598 399.885 59.8585 386.805 63.8465Z" fill="#EEFFFF"/>
<path d="M71.6108 396.01L521.979 395.747V60.1103C519.099 59.3276 516.143 58.6102 513.123 57.958V387.894H222.596H211.724V150.034C208.84 149.534 205.888 149.087 202.869 148.72V387.894H67.9102C69.5213 391.672 70.961 394.682 71.6108 396.01Z" fill="#C5DADD"/>
<path opacity="0.7" d="M52.7101 316.86C60.5965 319.303 72.4926 318.231 79.8793 315.82C90.1927 312.454 85.2564 309.963 79.0235 305.721C72.7924 301.48 61.0227 304.1 57.2886 302.577C53.5548 301.059 58.4854 298.571 65.5845 298.33C72.6871 298.09 77.0015 304.799 88.4948 304.621C99.9897 304.44 106.238 281.888 106.238 281.888C98.6637 285.226 84.0936 282.429 83.2452 279.757C82.3987 277.086 103.278 275.027 106.435 273.843C109.593 272.661 114.547 265.469 109.558 252.748C104.572 240.028 83.0993 246.577 83.0993 246.577C83.0993 246.577 70.7722 271.193 66.5039 272.225C62.2319 273.255 72.9614 249.095 72.9614 249.095C69.0812 249.149 62.7513 251.85 57.0187 254.761C57.0095 254.787 56.9985 254.813 56.9894 254.84C52.9412 265.82 50.9715 277.546 50.6525 289.385C67.0594 273.193 98.3445 258.725 99.9357 257.996C71.7335 273.372 57.5414 285.235 50.6117 293.886C50.6741 301.588 51.4123 309.302 52.7101 316.86Z" fill="#C1E0E4"/>
<path opacity="0.7" d="M380.931 66.151C380.801 77.7105 388.004 98.4641 394.15 107.456C402.731 120.011 404.095 112.399 407.281 102.361C410.466 92.3252 402.303 77.5206 402.852 71.9046C403.396 66.2905 408.67 71.9494 411.808 81.4018C414.946 90.8595 407.708 99.2818 412.505 114.668C417.305 130.056 449.863 129.651 449.863 129.651C442.407 120.769 440.358 100.083 443.586 97.898C446.812 95.7167 457.841 122.99 460.672 126.774C463.502 130.559 475.059 134.412 490.048 122.735C505.035 111.061 487.783 84.7436 487.783 84.7436C487.783 84.7436 450.061 77.78 446.991 72.443C443.922 67.1007 480.403 72.0937 480.403 72.0937C478.791 66.8969 472.679 59.4392 466.522 52.8673C466.484 52.8648 466.445 52.86 466.405 52.8584C450.378 52.2269 433.944 53.7159 417.184 56.9306C445.288 72.6705 477.628 109.989 479.231 111.844C447.536 79.9235 424.561 64.0769 410.273 58.1368C399.431 60.2462 394.01 61.3009 380.931 66.151Z" fill="#C1E0E4"/>
<path d="M139.883 157.931C137.89 158.854 135.895 159.856 133.902 160.924L202.876 282.684V148.718C184.177 146.448 162.935 147.269 139.883 157.931Z" fill="#EEFFFF"/>
<path d="M300.533 278.161C305.125 254.228 289.072 246.271 288.337 240.491C287.598 234.711 287.105 221.662 277.504 212.553C268.184 203.712 279.883 166.336 247.068 170.005C248.384 168.989 249.797 168.725 249.797 168.725C247.268 168.667 245.797 169.597 245.068 170.274C244.705 170.329 244.341 170.387 243.971 170.452C243.971 170.452 236.845 166.513 227.014 173.16C217.18 179.808 216.197 199.618 218.415 208.181C220.63 216.739 207.905 223.633 206.511 230.036C205.117 236.435 210.781 238.653 204.627 244.564C198.469 250.472 188.179 260.564 191.078 274.968C192.056 279.828 195.462 292.254 204.467 302.911C203.81 304.43 203.228 307.307 205.209 311.423C206.233 313.549 206.627 315.189 206.69 316.433C208.627 315.112 210.912 313.037 211.31 310.428C211.31 310.428 213.741 315.076 213.25 319.3C212.999 321.472 216.567 327.233 223.54 326.081C224.978 325.844 267.006 318.624 274.658 315.223C274.706 315.462 274.764 315.689 274.832 315.904C276.791 322.001 281.211 319.286 282.409 318.404C285.815 315.904 284.238 312.955 290.038 311.336C292.654 310.607 294.335 305.411 294.922 302.988C307.434 287.688 299.524 283.425 300.533 278.161Z" fill="#233862"/>
<path d="M376.677 287.082C372.252 284.772 370.324 289.736 368.645 290.502C366.964 291.265 362.072 290.2 359.973 293.408C358.541 295.599 355.942 297.423 355.939 297.423C342.398 305.3 323.071 311.01 319.378 311.208C318.358 311.264 315.612 306.908 312.083 300.478C302.843 283.642 288.232 252.561 285.159 249.085C283.894 247.655 281.362 246.346 278.432 245.208C278.43 245.199 278.425 245.191 278.425 245.191C278.425 245.191 278.389 245.182 278.326 245.167C271.483 242.527 262.528 240.841 262.393 240.817H262.39C259.538 239.974 257.53 237.437 257.34 234.469C256.992 229.031 257.318 222.775 257.318 222.775L236.984 223.232C237.566 227.377 237.155 232.123 236.638 235.991C236.332 238.278 234.662 240.136 232.426 240.703C232.375 240.713 221.568 242.839 214.662 245.998C212.596 246.945 210.879 247.981 209.906 249.085C207.135 252.216 194.982 277.804 185.844 295.145C185.844 295.145 185.844 295.145 185.844 295.15C180.979 304.382 176.098 311.587 176.098 316.873L180.042 326.781C187.125 325.924 193.854 321.179 201.765 311.783C202.724 310.645 203.673 309.479 204.613 308.297C208.862 302.961 212.865 297.287 216.314 292.104C218.841 306.865 223.189 324.701 224.297 329.177C224.343 329.602 224.389 330.028 224.433 330.45C219.022 339.308 211.307 352.151 211.307 352.151C211.307 352.151 289.56 355.659 288.821 352.151C288.082 348.644 277.741 331.1 277.002 328.885C276.405 327.095 279.55 311.933 282.625 297.775C285.744 302.227 289.162 306.809 292.703 311.066C293.353 311.848 294.01 312.621 294.667 313.382C302.179 322.034 310.085 328.878 316.762 329.687C331.46 331.46 359.208 303.821 359.208 303.821C359.208 303.821 360.213 302.891 361.384 302.029C362.118 301.49 362.92 300.976 363.577 300.744C363.611 300.732 363.628 300.722 363.64 300.722H363.645C363.908 300.633 364.143 300.597 364.343 300.623C366.863 300.966 372.723 301.114 375.445 294.715C375.447 294.715 378.269 287.913 376.677 287.082Z" fill="#FFB27D"/>
<path d="M314.742 370.427C295.978 386.153 269.079 394.704 269.079 394.704C269.079 394.704 247.423 395.119 222.867 394.704C199.016 394.303 175.691 364.908 175.691 364.908C175.691 364.908 195.579 364.647 201.035 360.004C204.837 356.77 209.427 351.388 213.888 345.542C217.096 341.342 220.236 336.905 222.971 332.844C222.971 332.844 228.604 338.361 251.498 337.769C274.39 337.173 279.965 334.636 279.965 334.636C279.965 334.636 282.666 337.953 286.231 342.153C290.533 347.214 296.089 353.56 299.667 356.922C301.246 358.398 314.742 370.427 314.742 370.427Z" fill="#9ED9F0"/>
<path d="M234.371 179.75C234.371 179.75 244.4 169.819 256.171 180.015C256.171 180.015 249.161 178.539 234.371 179.75Z" fill="#E9F3FE"/>
<path d="M247.883 191.095C247.883 191.095 256.504 190.938 258.463 193.827C260.422 196.714 260.685 199.941 261.673 201.567C262.661 203.195 262.492 205.016 262.492 205.016C262.492 205.016 269.913 186.02 252.782 189.803C251.545 190.078 247.883 191.095 247.883 191.095Z" fill="#B5453C"/>
<path d="M140.996 307.551C141.088 307.522 141.182 307.493 141.276 307.469C141.228 307.486 141.131 307.519 140.996 307.551Z" fill="#5153A0"/>
<path d="M314.742 370.427C295.978 386.153 269.079 394.704 269.079 394.704C269.079 394.704 247.423 395.119 222.867 394.704C199.016 394.303 175.691 364.908 175.691 364.908C175.691 364.908 195.579 364.647 201.035 360.004C204.837 356.77 209.427 351.388 213.888 345.543C214.91 346.19 236.466 359.715 249.235 359.05C262.211 358.376 285.862 342.402 286.234 342.154C290.536 347.214 296.092 353.56 299.669 356.922C301.246 358.398 314.742 370.427 314.742 370.427Z" fill="#74ACBE"/>
<path d="M317.324 368.353C311.611 373.297 294.673 378.735 278.711 383.037C274.235 384.24 269.834 385.356 265.778 386.349C262.119 387.489 254.691 389.846 246.732 392.617C235.502 396.528 230.589 394.66 225.023 393.677C219.458 392.694 213.175 396.588 204.933 393.573C196.691 390.559 198.774 374.324 198.774 374.324C201.566 372.493 212.419 371.964 219.77 377.242C227.115 382.515 236.966 381.534 236.966 381.534C237.343 381.575 238.239 381.124 239.466 380.356C239.466 380.356 246.611 376.174 259.785 365.686C264.022 362.312 268.885 358.282 274.337 353.529C284.728 344.466 293.692 332.545 304.048 330.347C314.925 328.04 321.481 329.757 324.911 331.414C326.846 332.349 328.155 334.226 328.353 336.366C328.947 342.763 328.988 358.263 317.324 368.353Z" fill="#F2A672"/>
<path d="M278.715 383.037C274.239 384.24 269.838 385.356 265.782 386.348C262.123 387.488 254.695 389.846 246.736 392.617C235.506 396.527 230.593 394.66 225.027 393.677C219.462 392.694 213.179 396.588 204.937 393.573C196.695 390.559 198.778 374.324 198.778 374.324C201.57 372.493 212.423 371.964 219.773 377.242C227.119 382.515 236.97 381.534 236.97 381.534C237.347 381.575 238.243 381.124 239.47 380.355C239.47 380.355 246.615 376.174 259.789 365.686C262.294 370.599 267.343 377.578 277.007 382.116C277.628 382.409 278.198 382.715 278.715 383.037Z" fill="#ABBFDB"/>
<path d="M290.045 378.211C290.045 378.211 289.673 392.349 284.484 394.032C277.356 396.344 271.754 392.641 265.87 393.718C259.983 394.796 255.213 396.332 243.357 392.189C235.487 389.438 228.106 387.073 224.031 385.793C222.035 385.257 219.968 384.691 217.864 384.097C202.112 379.655 184.191 373.713 178.459 368.353C167.642 358.234 168.497 341.999 169.396 335.347C169.715 332.982 171.307 330.963 173.555 330.163C176.642 329.062 181.998 328.342 190.74 330.349C200.315 332.547 210.206 342.038 219.774 351.05C223.746 354.787 227.509 358.248 230.958 361.369C242.98 372.239 251.215 378.986 251.215 378.986L251.179 379.056C252.43 379.843 253.346 380.298 253.734 380.256C253.734 380.256 259.998 382.742 270.882 379.083C278.472 376.522 287.108 376.261 290.045 378.211Z" fill="#FFB27D"/>
<path d="M237.277 227.621C237.277 227.621 241.292 236.928 247.889 236.375C254.488 235.822 257.198 227.413 257.198 227.413L237.277 227.621Z" fill="#E8945B"/>
<path d="M230.555 216.372C230.555 216.372 227.41 209.804 225.476 202.163C224.096 196.707 225.434 176.02 246.232 177.486C246.232 177.486 252.254 177.646 258.148 181.035C262.834 183.73 269.755 189.784 263.832 208.178L262.395 214.352L230.555 216.372Z" fill="#233862"/>
<path d="M259.632 225.147C254.248 230.266 247.557 237.087 233.213 224.394C230.407 221.911 229.423 216.831 229.274 211.364C229.095 204.893 228.737 202.202 229.469 198.475C230.341 194.016 234.163 192.011 242.083 191.344C256.627 190.124 262.625 193.361 262.968 200.634C263.714 216.372 265.108 219.942 259.632 225.147Z" fill="#FFB27D"/>
<path d="M237.265 185.04C228.917 185.223 224.561 205.905 228.438 205.016C232.315 204.127 239.98 194.458 239.98 194.458C239.332 199.444 233.61 204.06 233.61 204.06C242.473 200.736 246.352 191.093 246.352 191.093C246.352 191.093 245.61 184.856 237.265 185.04Z" fill="#233862"/>
<path d="M262.044 190.211C257.981 187.441 246.348 191.093 246.348 191.093C246.348 191.093 250.411 191.134 252.073 194.088C253.734 197.043 259.14 205.466 263.824 208.181C263.824 208.181 266.107 192.98 262.044 190.211Z" fill="#233862"/>
<path d="M250.709 326.783C250.045 326.783 249.504 327.762 249.504 328.97C249.504 330.177 250.043 331.156 250.709 331.156C251.374 331.156 251.915 330.177 251.915 328.97C251.915 327.762 251.374 326.783 250.709 326.783Z" fill="#F2A672"/>
<path d="M361.396 302.032C360.224 302.892 359.22 303.824 359.22 303.824C359.22 303.824 331.472 331.463 316.774 329.69C310.097 328.881 302.189 322.037 294.679 313.385C294.022 312.624 293.365 311.854 292.715 311.069L294.741 307.515L305.131 308.648C305.131 308.648 314.194 316.624 317.392 322.286C319.967 326.84 347.823 310.213 359.031 303.452C359.937 302.911 360.732 302.431 361.396 302.032Z" fill="#F2A672"/>
<path d="M375.45 294.715C372.727 301.116 366.867 300.967 364.348 300.624C364.147 300.597 363.913 300.636 363.65 300.723H363.645C363.633 300.723 363.616 300.735 363.582 300.744C363.582 300.744 362.319 297.604 369.705 295.573C377.092 293.541 376.679 287.08 376.679 287.08C378.271 287.913 375.45 294.715 375.45 294.715Z" fill="#F2A672"/>
<path d="M285.161 249.088C283.895 247.658 281.364 246.346 278.431 245.211C278.429 245.204 278.429 245.197 278.429 245.197C278.429 245.197 268.327 257.354 247.23 257.54C226.13 257.724 214.881 245.907 214.881 245.907L214.869 246.296L214.661 246.003C212.596 246.95 210.878 247.986 209.905 249.09C207.134 252.221 194.982 277.809 185.844 295.15C185.844 295.15 185.844 295.15 185.844 295.155C185.87 295.35 186.675 301.329 192.059 306.368V306.372C194.359 308.525 197.496 310.505 201.765 311.791C206.799 305.819 211.598 299.138 215.68 293.056C215.838 292.821 215.992 292.589 216.147 292.358L216.565 294.321L220.913 314.824C230.809 317.986 239.515 319.484 246.974 319.979C248.029 320.049 249.061 320.1 250.066 320.131H250.068C269.028 320.73 279.052 314.824 279.052 314.824C279.052 314.824 281.154 306.621 282.89 298.45C282.907 298.372 282.922 298.295 282.939 298.22C286.55 303.353 290.55 308.643 294.671 313.39C299.043 312.433 302.466 310.679 305.123 308.655C308.623 305.993 310.802 302.868 312.085 300.486C302.843 283.645 288.234 252.564 285.161 249.088Z" fill="#9ED9F0"/>
<path d="M192.062 306.365V306.37C194.362 308.522 197.5 310.503 201.768 311.788C206.802 305.817 211.602 299.135 215.684 293.053C211.727 292.618 192.062 306.365 192.062 306.365Z" fill="#74ACBE"/>
<path d="M282.891 298.148C286.514 303.302 290.531 308.617 294.671 313.385C299.043 312.428 302.466 310.675 305.123 308.65C305.121 308.65 287.248 298.051 282.891 298.148Z" fill="#74ACBE"/>
<path d="M216.57 294.317L220.918 314.82C230.815 317.982 239.52 319.479 246.98 319.975C234.134 317.945 220.16 299.372 216.57 294.317Z" fill="#74ACBE"/>
<path d="M250.07 320.129C269.03 320.728 279.054 314.822 279.054 314.822C279.054 314.822 281.156 306.619 282.893 298.447V298.147C282.893 298.147 265.682 319.076 250.07 320.129Z" fill="#74ACBE"/>
<path d="M290.039 378.211C290.039 378.211 289.831 390.644 285.36 393.772C283.375 395.161 271.763 394.791 265.794 394.76C259.809 394.728 255.205 396.335 243.349 392.192C235.479 389.441 228.097 387.076 224.022 385.796C222.027 385.259 219.959 384.694 217.855 384.1C220.921 381.544 228.568 374.058 230.948 361.37C242.97 372.24 251.204 378.986 251.204 378.986L251.168 379.056C252.419 379.844 253.335 380.298 253.724 380.257C253.724 380.257 259.987 382.742 270.872 379.083C278.466 376.522 287.102 376.261 290.039 378.211Z" fill="#E9F3FE"/>
<path d="M237.648 299.829C237.648 299.829 207.183 301.518 182.629 311.786L180.342 305.163C180.342 305.163 172.484 316.634 173.329 322.069C174.175 327.504 185.286 337.772 228.766 315.547C241.327 309.296 245.675 307.146 245.675 307.146L237.648 299.829Z" fill="#FFB27D"/>
<path d="M173.294 320.487C173.294 320.487 175.055 325.257 182.544 324.489C190.032 323.721 204.846 315.991 222.079 313.576C239.309 311.16 245.022 307.433 245.022 307.433C245.022 307.433 194.631 337.123 179.287 328.086C172.118 325.511 173.294 320.487 173.294 320.487Z" fill="#F2A672"/>
<path d="M192.067 306.368L188.137 309.629L193.647 307.708L192.067 306.368Z" fill="#F2A672"/>
<path d="M309.594 304.421L307.386 299.868C307.05 299.177 306.227 298.834 305.526 299.148C304.801 299.472 304.495 300.329 304.838 301.039L304.997 301.368C305.294 301.979 305.06 302.716 304.463 303.044L290.89 310.516L293.436 296.65C294.62 290.211 290.359 284.032 283.919 282.848L272.199 280.696C268.423 280.002 264.737 281.181 262.095 283.573C260.756 284.783 258.995 285.413 257.191 285.413H254.838C251.208 285.413 248.266 288.355 248.266 291.986V304.035C248.266 306.622 249.761 308.859 251.932 309.931C253.437 310.673 254.58 312.02 254.889 313.67C255.768 318.349 259.438 322.229 264.399 323.142L276.119 325.294C280.402 326.081 284.566 324.458 287.226 321.39L305.033 305.204C305.664 304.629 306.669 304.825 307.041 305.593C307.376 306.284 308.2 306.627 308.901 306.313C309.63 305.989 309.937 305.131 309.594 304.421ZM258.604 289.295C258.524 289.595 258.454 289.901 258.399 290.211L255.749 304.634C255.399 306.535 252.899 307.076 251.831 305.462C251.143 304.424 250.744 303.18 250.744 301.841V294.177C250.744 290.546 253.686 287.604 257.317 287.604C258.198 287.607 258.834 288.442 258.604 289.295Z" fill="#D77449"/>
<path d="M309.163 306.165L308.851 306.341L305.395 299.213L305.571 299.114C306.189 298.763 306.974 299.01 307.283 299.648L309.665 304.558C309.945 305.14 309.726 305.846 309.163 306.165Z" fill="#F1A34F"/>
<path d="M248.78 289.667C243.811 290.312 239.134 298.177 239.134 298.177L234.637 303.16L245.021 307.431C258.251 309.32 259.08 288.329 248.78 289.667Z" fill="#FFB27D"/>
<path d="M263.172 322.844L277.378 325.477C280.436 326.045 283.583 325.131 285.861 323.013L304.775 305.445L283.245 319.264C281.059 320.668 278.561 321.518 275.972 321.74L263.172 322.844Z" fill="#B23F36"/>
<path d="M582.419 261.534C582.419 261.534 559.15 278.837 554.616 277.786C550.078 276.734 571.621 259.107 571.621 259.107C563.514 255.21 538.315 257.652 538.315 257.652C538.315 257.652 529.922 284.72 525.784 282.587C521.646 280.454 534.437 259.002 534.437 259.002C525.407 258.459 514.334 265.16 514.334 265.16C499.175 277.134 515.329 295.982 515.329 295.982C515.329 295.982 512.22 305.299 502.643 313.782C502.643 313.782 488.969 323.894 488.02 341.962L490.503 342.185C490.503 342.185 494.438 325.357 501.588 317.397C501.866 317.11 502.266 316.696 502.763 316.198C503.932 315.117 504.75 314.303 505.3 313.703C508.858 310.285 513.772 305.932 516.143 305.51C516.143 305.51 516.022 305.076 516.041 304.319C516.075 304.699 516.105 305.091 516.143 305.51C516.953 315.038 535.436 323.355 546.807 325.067C558.177 326.778 554.661 322.104 550.745 315.173C546.829 308.242 534.43 305.144 531.603 301.952C528.776 298.76 534.622 298.752 541.474 301.88C548.326 305.008 549.26 313.353 560.25 318.614C571.241 323.876 587.775 305.642 587.775 305.642C579.016 305.197 566.511 295.684 566.963 292.775C567.415 289.865 588.193 297.795 591.743 298.175C595.294 298.556 603.378 294.139 604.625 279.832C605.873 265.526 582.419 261.534 582.419 261.534Z" fill="#609E56"/>
<path d="M466.065 279.459C466.065 279.459 487.322 265.13 475.514 249.052C475.514 249.052 466.329 239.339 457.193 237.402C457.193 237.402 464.045 262.269 459.338 263.257C454.63 264.244 453.703 234.997 453.703 234.997C453.703 234.997 429.288 225.651 420.149 227.305C420.149 227.305 436.758 250.766 431.953 250.563C427.147 250.363 408.733 226.755 408.733 226.755C408.733 226.755 384.291 224.294 381.608 238.879C378.928 253.465 385.761 260.079 389.398 260.675C393.039 261.27 415.897 259.077 415.551 262.096C415.204 265.118 400.143 271.152 391.301 269.193C391.301 269.193 402.759 291.881 415.144 289.658C427.528 287.434 430.751 279.387 438.428 278.151C446.105 276.915 451.924 278.528 448.234 280.929C444.545 283.33 431.35 283.017 425.549 288.84C419.749 294.663 414.966 298.353 426.755 299.77C438.545 301.187 459.224 297.976 462.647 288.715C466.065 279.459 466.065 279.459 466.065 279.459Z" fill="#6BBA5E"/>
<path d="M473.651 299.774C466.648 289.006 466.121 279.158 466.121 279.158C457.366 257.77 395.047 243.15 395.047 243.15C474.793 267.961 462.793 288.162 462.793 288.162C464.975 289.202 468.57 294.727 471.103 298.986C471.473 299.717 472.049 300.72 472.89 302.081C473.236 302.699 473.515 303.204 473.707 303.558C478.505 313.169 477.823 330.509 477.823 330.509L480.284 330.958C484.189 313.21 473.651 299.774 473.651 299.774Z" fill="#599DAD"/>
<path d="M499.741 252.428C499.741 252.428 465.862 233.456 481.673 207.711C481.673 207.711 494.321 191.9 507.87 187.837C507.87 187.837 500.645 226.231 507.87 227.135C515.099 228.04 512.838 183.774 512.838 183.774C512.838 183.774 548.522 166.611 562.523 167.964C562.523 167.964 540.388 205.453 547.617 204.552C554.842 203.648 579.687 165.706 579.687 165.706C579.687 165.706 616.275 158.93 622.147 180.612C628.019 202.295 618.533 213.134 613.113 214.491C607.693 215.848 572.914 215.395 573.815 219.91C574.719 224.426 598.207 231.654 611.304 227.588C611.304 227.588 596.85 263.272 577.877 261.466C558.905 259.661 553.033 247.913 541.289 247.013C529.545 246.108 520.963 249.27 526.835 252.432C532.707 255.594 552.581 253.469 562.067 261.534C571.553 269.6 579.23 274.567 561.615 278.181C543.999 281.796 512.382 279.538 506.057 265.985C499.741 252.428 499.741 252.428 499.741 252.428Z" fill="#6BBA5E"/>
<path d="M605.443 187.385C605.443 187.385 510.587 218.101 499.748 252.428C499.748 252.428 500.2 267.787 490.714 285.402C490.714 285.402 476.087 307.616 484.424 334.658L488.189 333.648C488.189 333.648 484.899 306.817 491.11 291.282C491.362 290.709 491.732 289.887 492.192 288.885C493.326 286.669 494.087 285.033 494.57 283.853C497.95 276.919 502.824 267.877 506.076 265.981C506.069 265.978 484.838 236.169 605.443 187.385Z" fill="#599DAD"/>
<path d="M485.781 393.294C522.43 393.294 552.14 363.584 552.14 326.936H419.422C419.422 363.584 449.132 393.294 485.781 393.294Z" fill="#233862"/>
<path d="M502.109 392.786C499.411 393.125 496.66 393.294 493.863 393.294C457.214 393.294 427.508 363.584 427.508 326.936H443.993C443.993 360.792 469.35 388.727 502.109 392.786Z" fill="#667695"/>
<path d="M544.863 388.485H426.686C422.163 388.485 418.5 392.153 418.5 396.671H553.053C553.053 392.149 549.386 388.485 544.863 388.485Z" fill="#37425A"/>
<path d="M553.646 326.936H417.234V328.971H553.646V326.936Z" fill="#D86713"/>
<path d="M23.9285 322.151C23.9285 322.151 36.7601 331.693 39.2603 331.113C41.7626 330.533 29.8829 320.813 29.8829 320.813C34.3534 318.664 48.2491 320.01 48.2491 320.01C48.2491 320.01 52.8775 334.937 55.1595 333.761C57.4416 332.584 50.3877 320.754 50.3877 320.754C55.3674 320.455 61.4735 324.15 61.4735 324.15C69.8325 330.753 60.9248 341.147 60.9248 341.147C60.9248 341.147 62.6395 346.285 67.9205 350.963C67.9205 350.963 75.4606 356.539 75.9844 366.503L74.6148 366.625C74.6148 366.625 72.445 357.345 68.5024 352.956C68.3486 352.798 68.1283 352.569 67.854 352.295C67.2097 351.699 66.7587 351.25 66.4553 350.919C64.4933 349.034 61.7832 346.634 60.4759 346.401C60.4759 346.401 60.5424 346.162 60.532 345.744C60.5133 345.954 60.4967 346.17 60.4759 346.401C60.0291 351.655 49.8369 356.242 43.5666 357.185C37.2963 358.129 39.2354 355.552 41.3948 351.73C43.5542 347.908 50.3919 346.199 51.9506 344.439C53.5093 342.679 50.2859 342.675 46.5075 344.4C42.7291 346.125 42.2136 350.726 36.1532 353.627C30.0928 356.529 20.9752 346.474 20.9752 346.474C25.8053 346.229 32.7011 340.983 32.4517 339.378C32.2023 337.774 20.7445 342.147 18.7867 342.357C16.829 342.566 12.3709 340.131 11.683 332.241C10.9951 324.352 23.9285 322.151 23.9285 322.151Z" fill="#609E56"/>
<path d="M88.0916 332.036C88.0916 332.036 76.3698 324.134 82.8812 315.268C82.8812 315.268 87.9461 309.912 92.9839 308.844C92.9839 308.844 89.2055 322.556 91.8014 323.101C94.3972 323.646 94.9085 307.518 94.9085 307.518C94.9085 307.518 108.372 302.363 113.412 303.276C113.412 303.276 104.253 316.213 106.903 316.101C109.552 315.991 119.707 302.972 119.707 302.972C119.707 302.972 133.185 301.615 134.665 309.658C136.142 317.701 132.374 321.349 130.369 321.677C128.361 322.006 115.756 320.796 115.947 322.461C116.139 324.128 124.444 327.455 129.319 326.374C129.319 326.374 123.001 338.886 116.172 337.66C109.342 336.433 107.565 331.996 103.332 331.315C99.0984 330.633 95.8895 331.522 97.9241 332.846C99.9588 334.17 107.235 333.998 110.434 337.209C113.632 340.42 116.27 342.454 109.769 343.236C103.268 344.017 91.8637 342.247 89.9766 337.14C88.0916 332.036 88.0916 332.036 88.0916 332.036Z" fill="#6BBA5E"/>
<path d="M83.9083 343.238C87.7698 337.3 88.0608 331.87 88.0608 331.87C92.8888 320.075 127.254 312.013 127.254 312.013C83.2786 325.695 89.896 336.835 89.896 336.835C88.6926 337.409 86.7099 340.455 85.3133 342.804C85.1096 343.207 84.7916 343.76 84.3281 344.51C84.1369 344.851 83.9831 345.129 83.8771 345.325C81.2314 350.625 81.6076 360.187 81.6076 360.187L80.2505 360.434C78.0973 350.647 83.9083 343.238 83.9083 343.238Z" fill="#599DAD"/>
<path d="M69.5191 317.13C69.5191 317.13 88.2011 306.668 79.4826 292.47C79.4826 292.47 72.5077 283.752 65.0361 281.511C65.0361 281.511 69.0203 302.683 65.0361 303.182C61.0499 303.681 62.2969 279.271 62.2969 279.271C62.2969 279.271 42.6193 269.806 34.8983 270.552C34.8983 270.552 47.1043 291.226 43.1181 290.729C39.1339 290.23 25.4336 269.307 25.4336 269.307C25.4336 269.307 5.2572 265.571 2.01917 277.527C-1.21886 289.484 4.01228 295.461 7.00091 296.209C9.98954 296.958 29.1684 296.708 28.6716 299.198C28.1728 301.688 15.2207 305.674 7.99851 303.432C7.99851 303.432 15.9689 323.109 26.4312 322.114C36.8935 321.118 40.1315 314.64 46.6076 314.143C53.0837 313.644 57.816 315.388 54.578 317.132C51.3399 318.876 40.3809 317.703 35.1498 322.151C29.9186 326.599 25.6851 329.338 35.3992 331.331C45.1133 333.324 62.5484 332.079 66.0358 324.606C69.5191 317.13 69.5191 317.13 69.5191 317.13Z" fill="#6BBA5E"/>
<path d="M11.2314 281.262C11.2314 281.262 63.5388 298.2 69.516 317.13C69.516 317.13 69.2666 325.599 74.4978 335.313C74.4978 335.313 82.5638 347.563 77.9665 362.475L75.8903 361.918C75.8903 361.918 77.7046 347.122 74.2795 338.555C74.1403 338.239 73.9366 337.786 73.6831 337.233C73.0575 336.011 72.6377 335.109 72.3717 334.459C70.5074 330.635 67.8201 325.649 66.0265 324.603C66.0307 324.601 77.7379 308.164 11.2314 281.262Z" fill="#599DAD"/>
<path d="M77.2194 394.809C57.0097 394.809 40.6263 378.426 40.6263 358.216H113.812C113.812 378.426 97.429 394.809 77.2194 394.809Z" fill="#1A535C"/>
<path d="M68.217 394.529C69.7051 394.716 71.2223 394.809 72.7644 394.809C92.9741 394.809 109.355 378.426 109.355 358.216H100.265C100.265 376.886 86.2819 392.29 68.217 394.529Z" fill="#667695"/>
<path d="M44.6382 392.157H109.806C112.3 392.157 114.32 394.179 114.32 396.671H40.122C40.122 394.177 42.1442 392.157 44.6382 392.157Z" fill="#37425A"/>
<path d="M39.7965 358.216H115.02V359.339H39.7965V358.216Z" fill="#D86713"/>
</svg>
