<svg width="622" height="426" viewBox="0 0 622 426" fill="none" xmlns="http://www.w3.org/2000/svg">
<path opacity="0.7" d="M310.092 112.057C306.196 101.173 295.015 88.7031 286.127 82.4084C273.717 73.6199 275.083 81.2308 275.585 91.7508C276.088 102.267 288.888 113.311 290.326 118.768C291.767 124.221 284.855 120.748 278.627 112.976C272.397 105.199 276.256 94.786 266.409 82.0269C256.559 69.2678 226.172 80.9657 226.172 80.9657C236.251 86.7017 245.363 105.385 243.096 108.556C240.83 111.722 221.008 89.9838 217.037 87.4204C213.069 84.8554 200.892 85.2604 190.898 101.419C180.903 117.575 206.229 136.254 206.229 136.254C206.229 136.254 244.019 129.67 248.752 133.607C253.487 137.549 217.545 145.549 217.545 145.549C220.863 149.862 229.187 154.73 237.245 158.751C237.281 158.74 237.319 158.731 237.357 158.719C252.997 154.153 267.723 146.634 281.188 137.168C249.365 132.18 206.974 109.053 204.826 107.871C245.641 126.782 270.779 132.875 286.241 133.478C294.774 127.017 302.756 119.786 310.092 112.057Z" fill="#3E8289"/>
<path opacity="0.7" d="M313.613 109.611C306.728 100.325 302.569 84.1011 302.272 73.2136C301.858 58.0124 307.428 63.3763 315.896 69.638C324.362 75.8978 326.435 92.6761 330.173 96.9026C333.907 101.13 334.859 93.4534 331.856 83.9573C328.85 74.4571 318.048 71.8812 312.908 56.6061C307.77 41.328 334.377 22.5585 334.377 22.5585C333.547 34.1259 344.022 52.0813 347.917 51.9574C351.81 51.8317 344.744 23.2738 344.818 18.5483C344.89 13.8233 351.99 3.92346 370.979 4.58883C389.964 5.2524 391.428 36.6869 391.428 36.6869C391.428 36.6869 364.962 64.4531 365.606 70.576C366.254 76.703 392.872 51.2606 392.872 51.2606C394.615 56.4149 394.038 66.0404 392.906 74.9747C392.877 74.9988 392.849 75.0253 392.817 75.0501C380.333 85.5185 365.901 93.5868 350.549 99.5258C364.079 70.2929 368.396 22.197 368.606 19.7541C361.66 64.1977 352.762 88.486 344.675 101.678C334.562 105.184 324.116 107.804 313.613 109.611Z" fill="#3E8289"/>
<path opacity="0.7" d="M530.615 174.886C541.589 178.521 558.299 177.394 568.733 174.27C583.3 169.907 576.463 166.295 567.866 160.211C559.272 154.129 542.688 157.41 537.504 155.181C532.32 152.957 539.313 149.651 549.272 149.532C559.236 149.415 565.062 158.869 581.179 158.972C597.297 159.072 606.8 127.928 606.8 127.928C596.073 132.335 575.742 128.005 574.641 124.266C573.542 120.53 602.877 118.305 607.342 116.756C611.807 115.21 618.989 105.369 612.416 87.5417C605.845 69.7171 575.531 78.1616 575.531 78.1616C575.531 78.1616 557.439 111.987 551.422 113.29C545.4 114.592 561.237 81.3503 561.237 81.3503C555.796 81.3077 546.834 84.8665 538.703 88.737C538.689 88.7722 538.673 88.8076 538.659 88.8452C532.622 103.978 529.475 120.21 528.637 136.649C552.169 114.652 596.5 95.5042 598.754 94.5399C558.715 115.043 538.43 131.093 528.431 142.902C528.265 153.604 529.045 164.346 530.615 174.886Z" fill="#3E8289"/>
<path d="M507.153 56.2897C507.153 56.2897 510.835 66.4974 518.656 63.3144C518.656 63.3144 523.593 60.5494 525.334 57C525.334 57 514.418 57.2393 514.499 55.2049C514.581 53.1706 526.682 55.8163 526.682 55.8163C526.682 55.8163 533.045 46.7622 533.311 42.8395C533.311 42.8395 521.963 47.2294 522.543 45.278C523.123 43.3263 534.718 38.2107 534.718 38.2107C534.718 38.2107 538.258 28.4332 532.548 25.8224C526.839 23.2133 523.417 25.3335 522.796 26.7647C522.175 28.1975 520.71 37.8069 519.507 37.3522C518.302 36.8971 517.384 30.091 519.103 26.6646C519.103 26.6646 508.605 29.0197 508.236 34.3331C507.867 39.6466 510.836 41.8019 510.549 45.081C510.262 48.3601 508.998 50.5818 508.395 48.8188C507.791 47.0559 509.285 41.6723 507.495 38.689C505.705 35.7056 504.685 33.3607 502.884 38.053C501.082 42.7453 500.26 51.5659 503.707 53.9288C507.153 56.2897 507.153 56.2897 507.153 56.2897Z" fill="#54A29C"/>
<path d="M21.5823 425.009C-1.00303 381.384 -10.4043 311.788 16 259.583C30.998 229.911 60.7164 200.453 89.8817 186.931C142.289 162.691 185.353 189.313 210.424 187.52C237.988 185.549 249.8 132.992 310.534 103.078C355.086 81.1376 423.963 76.0505 471.981 89.1113C521.739 102.658 556.914 136.879 538.121 203.108C533.575 219.13 526.476 234.911 518.628 249.445C473.636 332.75 591.121 308.45 603.034 390.191C604.539 400.516 604.363 410.108 601.957 424.243C601.938 424.386 601.909 424.528 601.884 424.673L21.5823 425.009Z" fill="#E5F2F3"/>
<path d="M321.056 414.419L191.356 185.419C182.59 183.568 172.66 180.926 161.734 179.032V240.363L259.093 414.419H321.056Z" fill="#E7F7F7"/>
<path d="M336.809 92.8455L463.132 304.266V222.862L378.402 84.1665C363.993 85.9588 349.889 88.8575 336.809 92.8455Z" fill="#EEFFFF"/>
<path d="M21.6147 425.009L471.982 424.746V89.109C469.103 88.3264 466.146 87.609 463.127 86.9568V416.893H172.6H161.728V179.032C158.844 178.532 155.892 178.085 152.873 177.718V416.893H17.9141C19.5252 420.671 20.9649 423.681 21.6147 425.009Z" fill="#C5DADD"/>
<path opacity="0.7" d="M0.366748 344.574C10.9758 349.166 27.7203 349.524 38.3898 347.335C53.2864 344.279 46.7958 340.076 38.7714 333.255C30.7494 326.436 13.9397 328.235 8.97332 325.557C4.00697 322.883 11.2657 320.209 21.196 320.972C31.1311 321.738 36.0974 331.67 52.1414 333.199C68.1879 334.726 80.4105 304.546 80.4105 304.546C69.3352 307.986 49.4674 301.872 48.7017 298.051C47.9384 294.232 77.3548 294.614 81.9395 293.466C86.5242 292.321 94.5487 283.154 89.5799 264.815C84.6135 246.479 53.6705 252.206 53.6705 252.206C53.6705 252.206 32.6553 284.297 26.5464 285.062C20.4326 285.826 39.1507 254.117 39.1507 254.117C33.735 253.593 24.4932 256.344 16.0508 259.48C16.0339 259.513 16.0146 259.547 15.9977 259.583C8.6448 274.123 4.07219 290.012 1.78225 306.312C27.1696 286.485 73.0214 271.337 75.3523 270.576C33.6553 287.454 12.029 301.645 1.02378 312.522C-0.0897885 323.168 -0.263708 333.936 0.366748 344.574Z" fill="#C1E0E4"/>
<path d="M324.799 307.162C329.391 283.228 313.337 275.272 312.603 269.491C311.864 263.711 311.371 250.662 301.769 241.553C292.45 232.712 304.148 195.337 271.333 199.006C272.65 197.989 274.063 197.725 274.063 197.725C271.534 197.668 270.063 198.597 269.333 199.274C268.971 199.329 268.606 199.387 268.237 199.453C268.237 199.453 261.111 195.513 251.28 202.16C241.446 208.808 240.463 228.618 242.68 237.181C244.895 245.739 232.17 252.633 230.776 259.037C229.383 265.435 235.047 267.653 228.892 273.564C222.735 279.472 212.445 289.564 215.344 303.968C216.322 308.828 219.728 321.254 228.733 331.911C228.076 333.431 227.494 336.307 229.474 340.424C230.499 342.549 230.892 344.189 230.955 345.433C232.892 344.112 235.178 342.037 235.576 339.428C235.576 339.428 238.006 344.076 237.516 348.301C237.265 350.472 240.832 356.233 247.806 355.081C249.243 354.844 291.271 347.624 298.924 344.223C298.972 344.462 299.03 344.689 299.098 344.904C301.057 351.001 305.477 348.286 306.675 347.404C310.081 344.904 308.504 341.955 314.303 340.337C316.919 339.607 318.601 334.411 319.188 331.988C331.7 316.688 323.789 312.425 324.799 307.162Z" fill="#233862"/>
<path d="M400.942 316.082C396.517 313.773 394.59 318.737 392.911 319.502C391.23 320.266 386.338 319.2 384.239 322.408C382.807 324.599 380.207 326.423 380.205 326.423C366.664 334.3 347.337 340.01 343.643 340.208C342.624 340.264 339.878 335.909 336.349 329.478C327.109 312.642 312.497 281.561 309.425 278.085C308.159 276.655 305.628 275.346 302.698 274.209C302.695 274.199 302.69 274.192 302.69 274.192C302.69 274.192 302.654 274.182 302.591 274.167C295.748 271.527 286.794 269.841 286.658 269.817H286.656C283.803 268.974 281.796 266.438 281.605 263.469C281.257 258.032 281.583 251.775 281.583 251.775L261.249 252.232C261.832 256.377 261.421 261.124 260.904 264.991C260.597 267.278 258.928 269.136 256.691 269.704C256.641 269.713 245.833 271.839 238.927 274.998C236.862 275.945 235.145 276.982 234.171 278.085C231.401 281.216 219.248 306.804 210.11 324.145C210.11 324.145 210.11 324.145 210.11 324.15C205.245 333.382 200.363 340.588 200.363 345.873L204.308 355.781C211.39 354.924 218.12 350.18 226.031 340.783C226.99 339.645 227.939 338.479 228.879 337.298C233.128 331.962 237.13 326.288 240.58 321.104C243.106 335.865 247.454 353.701 248.563 358.177C248.609 358.603 248.655 359.028 248.698 359.45C243.287 368.308 235.572 381.152 235.572 381.152C235.572 381.152 313.826 384.659 313.087 381.152C312.348 377.644 302.007 360.1 301.268 357.885C300.671 356.095 303.816 340.933 306.891 326.775C310.009 331.227 313.427 335.81 316.969 340.066C317.618 340.848 318.275 341.621 318.932 342.382C326.445 351.035 334.351 357.878 341.027 358.687C355.726 360.46 383.473 332.822 383.473 332.822C383.473 332.822 384.478 331.892 385.65 331.029C386.384 330.491 387.186 329.976 387.843 329.744C387.877 329.732 387.894 329.722 387.906 329.722H387.911C388.174 329.633 388.408 329.597 388.609 329.623C391.128 329.966 396.988 330.114 399.711 323.715C399.713 323.715 402.534 316.913 400.942 316.082Z" fill="#FFB27D"/>
<path d="M339.008 399.428C320.244 415.153 293.344 423.704 293.344 423.704C293.344 423.704 271.689 424.119 247.133 423.704C223.281 423.303 199.957 393.908 199.957 393.908C199.957 393.908 219.844 393.647 225.301 389.005C229.103 385.77 233.692 380.388 238.154 374.543C241.362 370.342 244.502 365.905 247.236 361.844C247.236 361.844 252.869 367.361 275.764 366.77C298.656 366.173 304.231 363.637 304.231 363.637C304.231 363.637 306.932 366.953 310.497 371.154C314.799 376.214 320.355 382.56 323.932 385.922C325.512 387.398 339.008 399.428 339.008 399.428Z" fill="#9ED9F0"/>
<path d="M258.637 208.75C258.637 208.75 268.666 198.82 280.437 209.016C280.437 209.016 273.427 207.54 258.637 208.75Z" fill="#E9F3FE"/>
<path d="M272.148 220.096C272.148 220.096 280.769 219.939 282.728 222.828C284.687 225.714 284.951 228.941 285.939 230.567C286.927 232.195 286.758 234.017 286.758 234.017C286.758 234.017 294.178 215.021 277.047 218.803C275.81 219.079 272.148 220.096 272.148 220.096Z" fill="#B5453C"/>
<path d="M165.262 336.551C165.354 336.522 165.448 336.493 165.542 336.469C165.494 336.486 165.397 336.52 165.262 336.551Z" fill="#5153A0"/>
<path d="M339.008 399.428C320.244 415.153 293.344 423.704 293.344 423.704C293.344 423.704 271.689 424.119 247.133 423.704C223.281 423.303 199.957 393.908 199.957 393.908C199.957 393.908 219.844 393.647 225.301 389.005C229.103 385.77 233.692 380.388 238.154 374.543C239.176 375.19 260.732 388.715 273.501 388.051C286.477 387.377 310.127 371.403 310.499 371.154C314.801 376.214 320.357 382.56 323.935 385.922C325.512 387.398 339.008 399.428 339.008 399.428Z" fill="#74ACBE"/>
<path d="M341.589 397.353C335.876 402.298 318.939 407.735 302.977 412.037C298.501 413.24 294.1 414.356 290.044 415.349C286.384 416.489 278.957 418.847 270.997 421.617C259.768 425.528 254.854 423.661 249.289 422.678C243.724 421.694 237.441 425.588 229.199 422.574C220.957 419.559 223.039 403.324 223.039 403.324C225.832 401.493 236.685 400.964 244.035 406.242C251.381 411.515 261.231 410.535 261.231 410.535C261.608 410.576 262.504 410.124 263.731 409.356C263.731 409.356 270.877 405.175 284.051 394.686C288.288 391.312 293.15 387.283 298.602 382.529C308.994 373.466 317.958 361.545 328.313 359.347C339.191 357.04 345.746 358.758 349.176 360.415C351.111 361.349 352.42 363.226 352.619 365.366C353.213 371.763 353.254 387.263 341.589 397.353Z" fill="#F2A672"/>
<path d="M302.981 412.037C298.505 413.24 294.104 414.356 290.048 415.349C286.388 416.489 278.961 418.846 271.001 421.617C259.772 425.528 254.858 423.66 249.293 422.677C243.727 421.694 237.445 425.588 229.203 422.573C220.961 419.559 223.043 403.324 223.043 403.324C225.836 401.493 236.689 400.964 244.039 406.242C251.385 411.515 261.235 410.534 261.235 410.534C261.612 410.575 262.508 410.124 263.735 409.356C263.735 409.356 270.881 405.174 284.055 394.686C286.56 399.599 291.608 406.578 301.273 411.117C301.894 411.409 302.464 411.716 302.981 412.037Z" fill="#ABBFDB"/>
<path d="M314.311 407.211C314.311 407.211 313.939 421.349 308.75 423.033C301.622 425.344 296.02 421.641 290.136 422.719C284.249 423.796 279.478 425.332 267.623 421.189C259.753 418.438 252.371 416.073 248.296 414.793C246.301 414.257 244.233 413.692 242.129 413.097C226.378 408.655 208.457 402.713 202.725 397.353C191.908 387.234 192.763 370.999 193.662 364.347C193.98 361.982 195.572 359.963 197.821 359.163C200.908 358.062 206.263 357.342 215.005 359.349C224.58 361.547 234.472 371.038 244.04 380.05C248.011 383.787 251.775 387.249 255.224 390.37C267.246 401.24 275.481 407.986 275.481 407.986L275.444 408.056C276.696 408.844 277.611 409.298 278 409.257C278 409.257 284.264 411.742 295.148 408.083C302.738 405.522 311.373 405.261 314.311 407.211Z" fill="#FFB27D"/>
<path d="M261.543 256.621C261.543 256.621 265.558 265.928 272.154 265.375C278.754 264.822 281.464 256.414 281.464 256.414L261.543 256.621Z" fill="#E8945B"/>
<path d="M254.821 245.372C254.821 245.372 251.676 238.804 249.741 231.164C248.362 225.707 249.7 205.02 270.498 206.487C270.498 206.487 276.52 206.646 282.414 210.035C287.1 212.731 294.02 218.784 288.098 237.178L286.66 243.353L254.821 245.372Z" fill="#233862"/>
<path d="M283.898 254.148C278.514 259.266 271.822 266.088 257.479 253.394C254.672 250.911 253.689 245.831 253.539 240.365C253.36 233.893 253.003 231.202 253.735 227.475C254.607 223.016 258.428 221.011 266.349 220.345C280.893 219.125 286.891 222.362 287.234 229.635C287.98 245.372 289.374 248.942 283.898 254.148Z" fill="#FFB27D"/>
<path d="M261.53 214.04C253.182 214.224 248.827 234.906 252.704 234.017C256.581 233.128 264.245 223.458 264.245 223.458C263.598 228.444 257.876 233.06 257.876 233.06C266.738 229.736 270.618 220.093 270.618 220.093C270.618 220.093 269.876 213.857 261.53 214.04Z" fill="#233862"/>
<path d="M286.309 219.212C282.247 216.441 270.613 220.093 270.613 220.093C270.613 220.093 274.676 220.134 276.338 223.089C278 226.043 283.406 234.466 288.09 237.181C288.09 237.181 290.372 221.98 286.309 219.212Z" fill="#233862"/>
<path d="M274.975 355.784C274.311 355.784 273.77 356.762 273.77 357.97C273.77 359.178 274.308 360.156 274.975 360.156C275.639 360.156 276.18 359.178 276.18 357.97C276.18 356.762 275.639 355.784 274.975 355.784Z" fill="#F2A672"/>
<path d="M385.662 331.032C384.49 331.892 383.485 332.825 383.485 332.825C383.485 332.825 355.738 360.463 341.039 358.69C334.363 357.881 326.454 351.038 318.944 342.385C318.287 341.624 317.63 340.854 316.98 340.069L319.007 336.516L329.396 337.648C329.396 337.648 338.459 345.624 341.658 351.287C344.233 355.84 372.089 339.214 383.297 332.453C384.203 331.911 384.997 331.431 385.662 331.032Z" fill="#F2A672"/>
<path d="M399.715 323.715C396.993 330.117 391.133 329.967 388.613 329.624C388.413 329.597 388.179 329.636 387.915 329.723H387.91C387.898 329.723 387.882 329.735 387.848 329.745C387.848 329.745 386.584 326.604 393.971 324.573C401.358 322.541 400.945 316.08 400.945 316.08C402.537 316.913 399.715 323.715 399.715 323.715Z" fill="#F2A672"/>
<path d="M309.427 278.088C308.161 276.658 305.629 275.347 302.697 274.211C302.695 274.204 302.695 274.197 302.695 274.197C302.695 274.197 292.593 286.354 271.495 286.54C250.396 286.724 239.147 274.907 239.147 274.907L239.135 275.296L238.927 275.004C236.861 275.95 235.144 276.987 234.171 278.091C231.4 281.221 219.247 306.809 210.109 324.15C210.109 324.15 210.109 324.15 210.109 324.155C210.136 324.351 210.94 330.329 216.325 335.368V335.373C218.624 337.525 221.762 339.506 226.03 340.791C231.064 334.82 235.864 328.138 239.946 322.056C240.103 321.822 240.258 321.59 240.412 321.358L240.83 323.322L245.178 343.825C255.075 346.987 263.78 348.484 271.239 348.979C272.295 349.05 273.326 349.1 274.331 349.132H274.334C293.293 349.731 303.318 343.825 303.318 343.825C303.318 343.825 305.419 335.622 307.156 327.45C307.173 327.372 307.188 327.295 307.204 327.22C310.816 332.353 314.816 337.643 318.937 342.39C323.309 341.433 326.732 339.68 329.389 337.655C332.889 334.994 335.068 331.868 336.35 329.486C327.108 312.645 312.499 281.564 309.427 278.088Z" fill="#9ED9F0"/>
<path d="M216.328 335.365V335.37C218.628 337.522 221.766 339.503 226.034 340.788C231.068 334.817 235.867 328.136 239.95 322.053C235.993 321.619 216.328 335.365 216.328 335.365Z" fill="#74ACBE"/>
<path d="M307.156 327.148C310.78 332.303 314.797 337.617 318.937 342.385C323.309 341.429 326.732 339.675 329.389 337.651C329.386 337.651 311.514 327.051 307.156 327.148Z" fill="#74ACBE"/>
<path d="M240.836 323.317L245.184 343.82C255.08 346.982 263.786 348.48 271.245 348.975C258.399 346.946 244.425 328.373 240.836 323.317Z" fill="#74ACBE"/>
<path d="M274.336 349.129C293.296 349.728 303.32 343.822 303.32 343.822C303.32 343.822 305.422 335.619 307.158 327.447V327.148C307.158 327.148 289.948 348.076 274.336 349.129Z" fill="#74ACBE"/>
<path d="M314.305 407.211C314.305 407.211 314.097 419.644 309.626 422.772C307.64 424.161 296.029 423.791 290.06 423.76C284.074 423.728 279.47 425.335 267.615 421.192C259.745 418.441 252.363 416.076 248.288 414.796C246.293 414.26 244.225 413.694 242.121 413.1C245.186 410.544 252.834 403.059 255.213 390.37C267.235 401.24 275.47 407.986 275.47 407.986L275.434 408.056C276.685 408.844 277.601 409.298 277.989 409.257C277.989 409.257 284.253 411.743 295.137 408.083C302.732 405.523 311.367 405.262 314.305 407.211Z" fill="#E9F3FE"/>
<path d="M540.092 337.134C540.092 337.134 525.178 348.224 522.272 347.55C519.364 346.876 533.171 335.578 533.171 335.578C527.976 333.081 511.825 334.646 511.825 334.646C511.825 334.646 506.446 351.994 503.794 350.627C501.141 349.26 509.34 335.511 509.34 335.511C503.552 335.163 496.455 339.458 496.455 339.458C486.74 347.132 497.093 359.212 497.093 359.212C497.093 359.212 495.1 365.183 488.962 370.621C488.962 370.621 480.199 377.101 479.59 388.682L481.182 388.824C481.182 388.824 483.704 378.039 488.286 372.937C488.465 372.753 488.721 372.488 489.039 372.169C489.788 371.476 490.312 370.954 490.665 370.57C492.945 368.379 496.095 365.589 497.615 365.318C497.615 365.318 497.537 365.041 497.549 364.555C497.571 364.799 497.59 365.05 497.615 365.318C498.134 371.425 509.98 376.756 517.267 377.853C524.555 378.949 522.301 375.954 519.792 371.512C517.282 367.07 509.335 365.084 507.523 363.038C505.711 360.992 509.458 360.987 513.849 362.992C518.241 364.997 518.84 370.345 525.884 373.717C532.927 377.089 543.524 365.403 543.524 365.403C537.911 365.118 529.896 359.021 530.186 357.156C530.476 355.292 543.792 360.374 546.068 360.618C548.343 360.862 553.525 358.031 554.324 348.861C555.124 339.692 540.092 337.134 540.092 337.134Z" fill="#609E56"/>
<path d="M465.519 348.622C465.519 348.622 479.143 339.438 471.575 329.134C471.575 329.134 465.689 322.909 459.833 321.667C459.833 321.667 464.225 337.605 461.208 338.238C458.191 338.871 457.596 320.126 457.596 320.126C457.596 320.126 441.949 314.136 436.091 315.196C436.091 315.196 446.736 330.233 443.656 330.102C440.577 329.974 428.774 314.843 428.774 314.843C428.774 314.843 413.109 313.266 411.39 322.614C409.672 331.962 414.052 336.202 416.383 336.583C418.716 336.965 433.366 335.559 433.144 337.494C432.922 339.431 423.269 343.298 417.602 342.042C417.602 342.042 424.946 356.584 432.883 355.159C440.821 353.734 442.886 348.576 447.806 347.784C452.727 346.992 456.456 348.026 454.092 349.564C451.727 351.103 443.27 350.903 439.552 354.635C435.835 358.367 432.77 360.731 440.325 361.64C447.881 362.548 461.135 360.49 463.329 354.555C465.519 348.622 465.519 348.622 465.519 348.622Z" fill="#6BBA5E"/>
<path d="M470.382 361.642C465.894 354.741 465.556 348.429 465.556 348.429C459.945 334.721 420.004 325.351 420.004 325.351C471.114 341.253 463.423 354.2 463.423 354.2C464.822 354.867 467.126 358.408 468.75 361.138C468.986 361.606 469.356 362.249 469.894 363.121C470.117 363.517 470.295 363.841 470.419 364.068C473.494 370.227 473.056 381.341 473.056 381.341L474.634 381.629C477.136 370.254 470.382 361.642 470.382 361.642Z" fill="#599DAD"/>
<path d="M487.103 331.298C487.103 331.298 465.389 319.138 475.522 302.637C475.522 302.637 483.629 292.504 492.313 289.9C492.313 289.9 487.682 314.507 492.313 315.087C496.946 315.667 495.497 287.296 495.497 287.296C495.497 287.296 518.367 276.296 527.341 277.163C527.341 277.163 513.154 301.191 517.787 300.613C522.418 300.034 538.341 275.716 538.341 275.716C538.341 275.716 561.791 271.373 565.554 285.27C569.318 299.166 563.238 306.113 559.764 306.983C556.291 307.853 534 307.563 534.578 310.457C535.157 313.35 550.211 317.983 558.605 315.377C558.605 315.377 549.341 338.247 537.182 337.09C525.022 335.933 521.258 328.404 513.731 327.827C506.205 327.247 500.704 329.274 504.468 331.3C508.231 333.327 520.968 331.965 527.048 337.134C533.128 342.303 538.049 345.487 526.758 347.803C515.468 350.12 495.204 348.673 491.151 339.987C487.103 331.298 487.103 331.298 487.103 331.298Z" fill="#6BBA5E"/>
<path d="M554.85 289.61C554.85 289.61 494.055 309.297 487.108 331.298C487.108 331.298 487.398 341.141 481.318 352.431C481.318 352.431 471.944 366.668 477.287 384L479.7 383.353C479.7 383.353 477.591 366.156 481.572 356.2C481.734 355.832 481.97 355.306 482.265 354.663C482.992 353.243 483.48 352.195 483.789 351.439C485.956 346.994 489.079 341.199 491.164 339.984C491.159 339.982 477.552 320.877 554.85 289.61Z" fill="#599DAD"/>
<path d="M478.155 421.581C501.644 421.581 520.686 402.539 520.686 379.051H435.625C435.625 402.539 454.667 421.581 478.155 421.581Z" fill="#233862"/>
<path d="M488.622 421.255C486.892 421.472 485.129 421.581 483.337 421.581C459.848 421.581 440.809 402.539 440.809 379.051H451.374C451.374 400.749 467.626 418.653 488.622 421.255Z" fill="#667695"/>
<path d="M516.023 418.499H440.282C437.383 418.499 435.035 420.849 435.035 423.745H521.272C521.272 420.847 518.922 418.499 516.023 418.499Z" fill="#37425A"/>
<path d="M521.651 379.051H434.223V380.355H521.651V379.051Z" fill="#D86713"/>
<path d="M261.913 328.829C261.913 328.829 231.449 330.518 206.895 340.786L204.607 334.163C204.607 334.163 196.749 345.634 197.595 351.069C198.44 356.504 209.552 366.772 253.032 344.547C265.592 338.296 269.94 336.146 269.94 336.146L261.913 328.829Z" fill="#FFB27D"/>
<path d="M197.56 349.487C197.56 349.487 199.321 354.258 206.809 353.489C214.297 352.721 229.112 344.992 246.344 342.576C263.574 340.161 269.287 336.433 269.287 336.433C269.287 336.433 218.897 366.123 203.553 357.086C196.384 354.511 197.56 349.487 197.56 349.487Z" fill="#F2A672"/>
<path d="M216.332 335.368L212.402 338.629L217.912 336.709L216.332 335.368Z" fill="#F2A672"/>
<path d="M333.859 333.421L331.652 328.868C331.316 328.177 330.492 327.834 329.792 328.148C329.067 328.472 328.76 329.329 329.103 330.04L329.263 330.368C329.56 330.979 329.325 331.716 328.729 332.045L315.156 339.516L317.702 325.651C318.885 319.211 314.624 313.032 308.185 311.848L296.464 309.696C292.689 309.003 289.003 310.181 286.36 312.573C285.022 313.783 283.261 314.414 281.457 314.414H279.104C275.473 314.414 272.531 317.356 272.531 320.986V333.035C272.531 335.622 274.026 337.859 276.198 338.931C277.703 339.673 278.845 341.021 279.155 342.671C280.034 347.349 283.703 351.229 288.665 352.142L300.385 354.294C304.668 355.082 308.832 353.458 311.492 350.391L329.299 334.204C329.929 333.629 330.934 333.825 331.306 334.593C331.642 335.284 332.466 335.627 333.166 335.313C333.896 334.989 334.202 334.132 333.859 333.421ZM282.87 318.295C282.79 318.595 282.72 318.902 282.664 319.211L280.015 333.634C279.664 335.535 277.164 336.076 276.097 334.463C275.408 333.424 275.01 332.18 275.01 330.842V323.177C275.01 319.547 277.952 316.604 281.582 316.604C282.464 316.607 283.099 317.443 282.87 318.295Z" fill="#466AA5"/>
<path d="M333.428 335.165L333.117 335.341L329.66 328.213L329.836 328.114C330.455 327.764 331.24 328.01 331.549 328.648L333.931 333.559C334.211 334.141 333.991 334.846 333.428 335.165Z" fill="#F1A34F"/>
<path d="M273.045 318.667C268.077 319.312 263.4 327.177 263.4 327.177L258.902 332.16L269.287 336.431C282.517 338.32 283.345 317.329 273.045 318.667Z" fill="#FFB27D"/>
<path d="M287.438 351.844L301.643 354.477C304.701 355.045 307.849 354.132 310.127 352.013L329.04 334.445L307.511 348.264C305.325 349.668 302.827 350.518 300.237 350.74L287.438 351.844Z" fill="#B23F36"/>
<path d="M76.082 391.453V420.988C76.082 422.792 77.5434 424.254 79.3478 424.254H148.367C150.041 424.254 151.396 422.896 151.396 421.225V391.453H76.082Z" fill="#609EA8"/>
<path d="M148.741 385.262H78.2937C77.0739 385.262 76.0859 386.25 76.0859 387.47V394.388H151.4V387.919C151.398 386.453 150.209 385.262 148.741 385.262Z" fill="#3E8289"/>
<path d="M120.973 391.453V420.988C120.973 422.792 122.434 424.254 124.238 424.254H169.281C170.955 424.254 172.31 422.896 172.31 421.225V391.453H120.973Z" fill="#9ED9F0"/>
<path d="M169.651 385.262H123.18C121.961 385.262 120.973 386.25 120.973 387.47V394.388H172.31V387.919C172.308 386.453 171.119 385.262 169.651 385.262Z" fill="#74ACBE"/>
<path d="M156.758 401.207H136.523C135.704 401.207 135.035 401.876 135.035 402.695C135.035 403.514 135.704 404.183 136.523 404.183H156.758C157.577 404.183 158.246 403.514 158.246 402.695C158.246 401.876 157.577 401.207 156.758 401.207Z" fill="#74ACBE"/>
<path d="M88.8034 394.451V421.285C88.8034 422.923 87.4748 424.251 85.8371 424.251H23.1248C21.6054 424.251 20.3711 423.019 20.3711 421.497V394.451H88.8034Z" fill="#7BB8C6"/>
<path d="M22.7881 388.827H86.7975C87.9063 388.827 88.8048 389.726 88.8048 390.834V397.12H20.375V391.243C20.375 389.907 21.4547 388.827 22.7881 388.827Z" fill="#609EA8"/>
<path d="M48.0113 394.451V421.285C48.0113 422.923 46.6827 424.251 45.045 424.251H4.1209C2.60153 424.251 1.36719 423.019 1.36719 421.497V394.451H48.0113Z" fill="#9ED9F0"/>
<path d="M3.78031 388.827H46.004C47.1127 388.827 48.0113 389.725 48.0113 390.834V397.119H1.36719V391.242C1.36719 389.907 2.44693 388.827 3.78031 388.827Z" fill="#74ACBE"/>
<path d="M15.4972 403.313H33.8819C34.6259 403.313 35.2346 403.922 35.2346 404.666C35.2346 405.41 34.6259 406.019 33.8819 406.019H15.4972C14.7532 406.019 14.1445 405.41 14.1445 404.666C14.1469 403.922 14.7557 403.313 15.4972 403.313Z" fill="#74ACBE"/>
<path d="M86.7339 359.021V385.855C86.7339 387.493 85.4054 388.822 83.7676 388.822H42.8436C41.3242 388.822 40.0898 387.59 40.0898 386.068V359.021H86.7339Z" fill="#7BB8C6"/>
<path d="M42.503 353.396H84.7266C85.8353 353.396 86.7339 354.294 86.7339 355.403V361.688H40.0898V355.811C40.0898 354.478 41.1696 353.396 42.503 353.396Z" fill="#609EA8"/>
<path d="M67.7285 359.021V385.855C67.7285 387.493 66.4 388.822 64.7622 388.822H23.8357C22.3164 388.822 21.082 387.59 21.082 386.068V359.021H67.7285Z" fill="#9ED9F0"/>
<path d="M23.4991 353.396H65.7227C66.8314 353.396 67.73 354.294 67.73 355.403V361.688H21.0859V355.811C21.0859 354.478 22.1657 353.396 23.4991 353.396Z" fill="#74ACBE"/>
<path d="M35.2121 367.884H53.5968C54.3407 367.884 54.9495 368.493 54.9495 369.237C54.9495 369.981 54.3407 370.59 53.5968 370.59H35.2121C34.4681 370.59 33.8594 369.981 33.8594 369.237C33.8594 368.493 34.4681 367.884 35.2121 367.884Z" fill="#74ACBE"/>
<path d="M89.8871 186.931C87.8943 187.854 85.8991 188.856 83.9062 189.924L152.88 311.684V177.718C134.181 175.448 112.939 176.269 89.8871 186.931Z" fill="#EEFFFF"/>
</svg>
