<svg width="180" height="180" viewBox="0 0 180 180" fill="none" xmlns="http://www.w3.org/2000/svg">
<path fill-rule="evenodd" clip-rule="evenodd" d="M145.482 178.169C158.639 164.396 166.719 145.732 166.719 125.182C166.719 82.81 132.37 48.4609 89.9981 48.4609C47.6264 48.4609 13.2773 82.81 13.2773 125.182C13.2773 145.732 21.3575 164.396 34.5141 178.169H145.482Z" fill="#A6D892"/>
<rect x="5" y="178.169" width="170" height="1.65584" fill="#104366"/>
<path d="M114.01 133.737C111.802 127.114 111.986 117.363 112.354 113.315H101.039H93.8641H86.1369H68.1986V128.218C68.1986 135.669 60.1953 148.364 60.1953 158.023C60.1953 165.75 67.5546 175.225 71.2343 178.997H109.319C115.39 172.925 120.358 163.818 120.358 154.987C120.358 146.156 116.77 142.016 114.01 133.737Z" fill="#24BBC7"/>
<path fill-rule="evenodd" clip-rule="evenodd" d="M116.598 140.637H64.6797C64.6011 140.845 64.5221 141.054 64.4429 141.264C62.7987 145.615 61.0663 150.199 60.37 154.435H120.211C120.112 148.729 118.488 144.989 116.612 140.668C116.607 140.658 116.603 140.647 116.598 140.637ZM119.718 159.955H60.1953C60.8662 164.672 63.8011 169.787 66.7066 173.754H113.585C116.496 169.638 118.761 164.849 119.718 159.955Z" fill="#B0FAE9"/>
<path d="M81.7577 93.886C84.271 101.277 85.6476 108.809 86.1374 113.315H93.8647C92.9772 102.826 92.9672 80.719 98.787 66.9513C94.6625 63.6396 87.2965 54.8084 90.829 45.9773C95.2446 34.9383 126.982 17 144.92 17C143.632 25.7392 139.566 45.3149 133.605 53.7045C126.154 64.1916 113.414 81.5779 98.787 66.9513C92.9672 80.719 92.9772 102.826 93.8647 113.315H101.04V98.6883C101.224 96.8485 102.254 92.5065 104.904 89.8571C108.215 86.5454 112.079 83.5097 130.293 78.8182C144.865 75.0649 153.475 73.0227 155.959 72.4708L150.991 79.9221C147.9 84.5584 140.136 89.7651 136.641 91.789C132.593 94.4567 122.952 99.7922 116.771 99.7922C110.589 99.7922 106.284 93.1688 104.904 89.8571C102.254 92.5065 101.224 96.8485 101.04 98.6883V113.315H93.8647H86.1374C85.6476 108.809 84.271 101.277 81.7577 93.886C76.9247 97.2664 71.3432 98.6883 68.1991 98.6883C61.8517 98.6883 54.4079 89.8571 46.9491 78.8182C36.8798 63.9156 37.29 51.3128 35.9102 42.6656C41.0617 43.4015 51.8615 45.0942 53.8485 45.9773C53.8485 45.9773 56.0563 46.5292 62.1277 49.289C68.1991 52.0487 70.4069 53.7045 70.4069 53.7045C77.0303 57.5682 90.829 67.5032 90.829 76.8864C90.829 84.9644 86.6819 90.4418 81.7577 93.886Z" fill="#5AD0CD"/>
<path d="M54.0507 67.6183C52.5053 66.0728 49.3591 64.7666 47.9793 64.3066C45.1091 60.5533 46.7834 56.3033 47.9793 54.6475C49.5431 53.7276 53.4436 52.4397 56.5345 54.6475C60.3981 57.4072 57.3624 57.4072 60.6741 60.9949C63.9858 64.5826 64.5377 61.2709 67.8494 64.3066C71.1611 67.3423 68.6773 67.0663 71.4371 69.8261C74.1968 72.5858 75.0247 69.8261 77.5085 72.5858C79.9923 75.3456 77.5085 77.0014 79.7163 79.7611C81.9241 82.5209 82.2001 80.865 84.6838 83.0728C87.1676 85.2806 85.5117 89.9722 82.2001 93.2839C78.8884 96.5956 74.1968 96.0436 71.989 93.8358C69.7812 91.628 71.989 90.8001 69.5053 88.3163C67.0215 85.8326 64.8137 87.7644 62.8819 85.8326C60.9501 83.9007 63.7098 82.2449 61.778 79.7611C59.8462 77.2774 58.4663 78.9332 56.5345 76.1735C54.6027 73.4137 55.9825 69.5501 54.0507 67.6183Z" fill="#A6EBF6"/>
<path d="M119.437 35.7002C120.71 33.9233 121.485 30.6062 121.714 29.1698C124.948 25.7257 129.415 26.684 131.243 27.5937C132.406 28.9865 134.313 32.6245 132.639 36.0343C130.547 40.2964 130.052 37.3014 127.052 41.1541C124.053 45.0068 127.411 45.011 124.956 48.7736C122.501 52.5363 122.368 50.0407 120.096 53.2138C117.823 56.3869 120.681 56.7534 118.364 59.6542C116.046 62.5549 114.007 60.3747 111.645 63.0032C109.282 65.6317 110.961 65.6338 109.188 68.4445C107.415 71.2552 102.516 70.3871 98.7086 67.6601C94.9009 64.9332 94.6799 60.2144 96.4979 57.676C98.3159 55.1375 99.4929 57.1807 101.538 54.3249C103.583 51.4692 101.317 49.6062 102.908 47.385C104.499 45.1639 106.583 47.6165 108.718 45.3053C110.853 42.994 108.994 41.9029 111.402 39.5466C113.809 37.1904 117.846 37.9213 119.437 35.7002Z" fill="#A6EBF6"/>
<path fill-rule="evenodd" clip-rule="evenodd" d="M104.902 89.8055C108.214 86.4938 112.078 83.4581 130.292 78.7666C131.717 78.3996 133.084 78.049 134.395 77.7146C134.203 78.6973 133.737 79.7229 132.776 80.4643C131.501 81.4481 131.057 81.3913 130.506 81.3209C130.014 81.2579 129.436 81.1841 128.106 81.8298C126.638 82.5429 126.458 83.1434 126.273 83.763C126.103 84.3331 125.928 84.9194 124.739 85.6246C123.436 86.3978 122.991 86.3575 122.543 86.3168C122.137 86.28 121.729 86.2429 120.681 86.8047C119.577 87.3965 119.41 87.9477 119.25 88.4777C119.09 89.0077 118.936 89.5165 117.858 90.0235C116.748 90.5449 116.062 90.3134 115.371 90.0801C114.718 89.8597 114.061 89.6378 113.038 90.0481C111.89 90.5086 111.655 90.8598 111.384 91.265C111.158 91.6029 110.907 91.9784 110.08 92.486C108.619 93.3833 106.669 92.3397 105.222 90.5198C105.102 90.2686 104.996 90.0295 104.902 89.8055Z" fill="#A6EBF6"/>
<path d="M64.0595 113.315H86.1374M116.771 113.315H112.355M112.355 113.315C111.987 117.363 111.803 127.114 114.011 133.737C116.771 142.016 120.358 146.156 120.358 154.987C120.358 163.818 115.391 172.925 109.319 178.997H71.2348C67.5552 175.225 60.1959 165.75 60.1959 158.023C60.1959 148.364 68.1991 135.669 68.1991 128.218M112.355 113.315H101.04M86.1374 113.315C85.2175 104.852 81.1699 85.7175 72.3387 76.8864C63.5076 68.0552 44.3734 50.3929 35.9102 42.6656M86.1374 113.315H93.8647M35.9102 42.6656C37.29 51.3128 36.8798 63.9156 46.9491 78.8182C54.4079 89.8571 61.8517 98.6883 68.1991 98.6883C74.5465 98.6883 90.829 92.8929 90.829 76.8864C90.829 67.5032 77.0303 57.5682 70.4069 53.7045M35.9102 42.6656C41.0617 43.4015 51.8615 45.0942 53.8485 45.9773M93.8647 113.315C92.9772 102.826 92.9672 80.719 98.787 66.9513M93.8647 113.315H101.04M144.92 17C134.065 26.6591 110.202 49.1234 101.592 61.7078C100.533 63.2551 99.6029 65.0212 98.787 66.9513M144.92 17C143.632 25.7392 139.566 45.3149 133.605 53.7045C126.154 64.1916 113.414 81.5779 98.787 66.9513M144.92 17C126.982 17 95.2446 34.9383 90.829 45.9773C87.2965 54.8084 94.6625 63.6396 98.787 66.9513M101.04 113.315V98.6883C101.224 96.8485 102.254 92.5065 104.904 89.8571M104.904 89.8571C108.215 86.5454 112.079 83.5097 130.293 78.8182C144.865 75.0649 153.475 73.0227 155.959 72.4708L150.991 79.9221M104.904 89.8571C106.284 93.1688 110.589 99.7922 116.771 99.7922C122.952 99.7922 132.593 94.4567 136.641 91.789" stroke="#0D4365" stroke-width="2" stroke-linecap="round" stroke-linejoin="round"/>
</svg>
