<svg width="180" height="180" viewBox="0 0 180 180" fill="none" xmlns="http://www.w3.org/2000/svg">
<circle cx="56.5" cy="66.5" r="46.5" fill="#FAF3DD" fill-opacity="0.5"/>
<path d="M140.891 99.0206C145.256 84.0219 143.869 70.2859 143.808 69.7084C143.807 69.7041 143.806 69.6999 143.806 69.6956C143.797 69.6218 143.786 69.5485 143.769 69.4765C143.768 69.4709 143.766 69.4656 143.765 69.46C143.749 69.3955 143.731 69.332 143.709 69.2696C143.702 69.2478 143.693 69.2268 143.685 69.2056C143.667 69.1588 143.647 69.1129 143.626 69.0674C143.616 69.0454 143.605 69.0239 143.594 69.0024C143.57 68.9567 143.545 68.9123 143.518 68.8685C143.507 68.851 143.496 68.8332 143.485 68.8159C143.449 68.7617 143.41 68.7091 143.369 68.6584C143.365 68.6533 143.361 68.6478 143.357 68.6427C143.309 68.5851 143.258 68.5301 143.203 68.4778C143.196 68.4716 143.189 68.4663 143.183 68.4602C143.136 68.4172 143.088 68.3763 143.037 68.3372C143.019 68.3232 142.999 68.3101 142.98 68.2966C142.94 68.2679 142.898 68.2403 142.855 68.2142C142.844 68.2073 142.834 68.1991 142.822 68.1922C142.809 68.1845 142.795 68.1792 142.781 68.1717C142.763 68.1617 142.746 68.1502 142.727 68.1407C142.703 68.129 142.68 68.1202 142.656 68.1093C142.631 68.0976 142.605 68.0857 142.579 68.0751C142.531 68.0551 142.482 68.0381 142.432 68.0222C142.413 68.0161 142.394 68.0089 142.375 68.0033C142.231 67.9619 142.085 67.9377 141.94 67.9295C141.925 67.9287 141.912 67.9292 141.898 67.9287C141.84 67.9266 141.782 67.9268 141.724 67.9298C141.702 67.9308 141.679 67.933 141.657 67.9348C141.607 67.9391 141.558 67.9452 141.508 67.9534C141.484 67.9574 141.46 67.9614 141.436 67.9662C141.385 67.9765 141.335 67.9893 141.285 68.0033C141.265 68.0089 141.244 68.0137 141.224 68.0201C141.155 68.0419 141.088 68.0671 141.022 68.0963C141.02 68.0971 141.018 68.0976 141.016 68.0982C140.82 68.1856 138.037 69.4412 131.856 72.975C135.633 57.7194 131.791 46.4043 131.295 45.0486C131.289 45.0332 131.282 45.0191 131.276 45.0039C131.264 44.9731 131.251 44.9431 131.237 44.9128C131.224 44.8828 131.21 44.8531 131.195 44.8241C131.181 44.7965 131.165 44.7694 131.15 44.7423C131.133 44.7125 131.116 44.6836 131.097 44.6549C131.081 44.6297 131.064 44.605 131.047 44.5805C131.027 44.5526 131.007 44.525 130.986 44.4982C130.967 44.4745 130.947 44.4514 130.927 44.4283C130.905 44.4028 130.883 44.3779 130.86 44.3537C130.839 44.3316 130.816 44.3101 130.794 44.2889C130.769 44.2655 130.745 44.2429 130.719 44.2211C130.696 44.2015 130.672 44.1824 130.648 44.1635C130.62 44.1417 130.592 44.121 130.563 44.1011C130.54 44.0846 130.516 44.0681 130.491 44.0527C130.459 44.0325 130.426 44.0134 130.393 43.9951C130.378 43.9863 130.364 43.9765 130.348 43.9683C130.339 43.9635 130.33 43.9603 130.321 43.9558C130.287 43.9388 130.253 43.9236 130.218 43.9085C130.192 43.8971 130.165 43.8851 130.139 43.8748C130.107 43.8625 130.075 43.8522 130.042 43.8416C130.013 43.8317 129.983 43.8214 129.953 43.8131C129.923 43.8046 129.892 43.7983 129.86 43.7914C129.829 43.7842 129.798 43.7762 129.766 43.7706C129.733 43.7651 129.7 43.7619 129.668 43.7576C129.637 43.7539 129.607 43.7491 129.577 43.7467C129.54 43.7438 129.502 43.7438 129.465 43.743C129.439 43.7425 129.413 43.7406 129.387 43.7412C129.348 43.742 129.308 43.7457 129.269 43.7486C129.244 43.7505 129.22 43.7513 129.195 43.7542C129.159 43.7584 129.124 43.7653 129.088 43.7714C129.06 43.7762 129.031 43.7802 129.003 43.786C128.973 43.7927 128.943 43.8015 128.913 43.8094C128.88 43.8185 128.846 43.827 128.812 43.8376C128.807 43.8394 128.801 43.8402 128.796 43.8421C127.549 44.2559 117.112 47.9771 107.782 59.2675C101.688 42.9934 92.8047 33.9396 91.3847 32.5621C91.3688 32.5467 91.3515 32.5334 91.335 32.5185C91.3066 32.4927 91.2784 32.4667 91.2484 32.4425C91.2248 32.4234 91.2001 32.4059 91.1757 32.3881C91.1483 32.3679 91.1215 32.3477 91.0933 32.3288C91.0662 32.3108 91.0383 32.2948 91.0104 32.2784C90.9828 32.2622 90.9557 32.2454 90.9273 32.2303C90.8989 32.2152 90.8696 32.2021 90.8404 32.1886C90.8112 32.1748 90.782 32.1607 90.752 32.1485C90.723 32.1368 90.6938 32.127 90.6643 32.1163C90.6327 32.1052 90.6016 32.0935 90.5695 32.0839C90.54 32.0752 90.51 32.0683 90.48 32.0608C90.4476 32.0529 90.4154 32.0438 90.3825 32.0375C90.3485 32.0308 90.3142 32.0268 90.2802 32.0218C90.2507 32.0175 90.2215 32.0122 90.1915 32.0093C90.1331 32.0037 90.0741 32.0011 90.0154 32.0005C90.009 32.0008 90.0032 32 89.9968 32C89.9907 32 89.9849 32.0008 89.9787 32.0008C89.92 32.0013 89.8613 32.004 89.8026 32.0096C89.7726 32.0125 89.7434 32.0178 89.7139 32.022C89.6797 32.0268 89.6454 32.0311 89.6116 32.0377C89.5784 32.0441 89.5466 32.0529 89.5142 32.0611C89.4842 32.0685 89.4541 32.0752 89.4247 32.0842C89.3925 32.0938 89.3614 32.1055 89.3298 32.1166C89.3003 32.127 89.2711 32.1368 89.2422 32.1488C89.2122 32.161 89.1832 32.175 89.154 32.1889C89.1248 32.2024 89.0958 32.2157 89.0671 32.2308C89.0387 32.2457 89.0116 32.2624 88.984 32.2789C88.9561 32.2954 88.9282 32.3113 88.9011 32.3294C88.8727 32.348 88.8459 32.3684 88.8188 32.3886C88.7943 32.4067 88.7696 32.4239 88.746 32.4431C88.716 32.4672 88.6878 32.4933 88.6594 32.519C88.6429 32.5339 88.6256 32.5472 88.6097 32.5626C87.1897 33.9404 78.3064 42.994 72.2127 59.268C62.8823 47.9776 52.4457 44.2565 51.1988 43.8426C51.193 43.8408 51.1871 43.8397 51.1816 43.8378C51.1505 43.8278 51.1186 43.82 51.087 43.8115C51.0549 43.8028 51.0227 43.7935 50.9906 43.7863C50.9661 43.781 50.9417 43.7778 50.917 43.7736C50.8772 43.7664 50.8376 43.759 50.7977 43.7544C50.7791 43.7523 50.7603 43.7518 50.7414 43.7502C50.6963 43.7462 50.6511 43.7425 50.6062 43.7417C50.586 43.7414 50.5658 43.7428 50.5457 43.743C50.5024 43.7435 50.4593 43.7441 50.4163 43.7473C50.3903 43.7494 50.3645 43.7536 50.3385 43.7566C50.3015 43.7608 50.2644 43.7648 50.2277 43.7712C50.1982 43.7762 50.169 43.7839 50.1395 43.7903C50.1066 43.7977 50.0734 43.8044 50.0407 43.8134C50.0115 43.8216 49.9825 43.8317 49.9533 43.8413C49.9206 43.8519 49.888 43.8623 49.8561 43.8748C49.8287 43.8854 49.8019 43.8976 49.7751 43.9093C49.7416 43.9239 49.7084 43.9385 49.676 43.955C49.6664 43.9598 49.6566 43.9632 49.6473 43.9683C49.6306 43.977 49.6152 43.9877 49.5987 43.997C49.5674 44.0145 49.5363 44.0325 49.506 44.0517C49.48 44.0681 49.4545 44.0854 49.4295 44.1029C49.4021 44.1221 49.3753 44.1417 49.3487 44.1622C49.3232 44.1818 49.2985 44.2023 49.2741 44.223C49.2499 44.2437 49.2263 44.2652 49.2029 44.2873C49.1793 44.3096 49.1562 44.3322 49.1339 44.3555C49.1115 44.3787 49.0903 44.4026 49.069 44.4267C49.0481 44.4506 49.0276 44.4748 49.0082 44.4998C48.988 44.5255 48.9684 44.5521 48.9492 44.5789C48.9312 44.6044 48.9134 44.6299 48.8967 44.6562C48.8789 44.6841 48.8619 44.7125 48.8454 44.7412C48.8294 44.7689 48.8143 44.7965 48.7997 44.8249C48.7851 44.8536 48.7713 44.8828 48.7577 44.9123C48.7439 44.9426 48.7312 44.9731 48.7189 45.0039C48.7131 45.0191 48.7057 45.0332 48.7001 45.0486C48.2042 46.4043 44.3619 57.7194 48.1383 72.975C41.9572 69.4412 39.1742 68.1856 38.9785 68.0982C38.9764 68.0971 38.9742 68.0966 38.9721 68.0958C38.9068 68.0668 38.8398 68.0421 38.7716 68.0203C38.7498 68.0134 38.7275 68.0084 38.7054 68.002C38.6576 67.9885 38.6093 67.9762 38.5604 67.9664C38.5349 67.9614 38.5094 67.9571 38.4839 67.9531C38.4361 67.9454 38.388 67.9396 38.3397 67.9353C38.3157 67.9332 38.2921 67.9311 38.2685 67.9298C38.2132 67.9268 38.1577 67.9268 38.1022 67.9287C38.086 67.9292 38.0695 67.9287 38.0533 67.9298C37.9088 67.938 37.764 67.9622 37.6214 68.0031C37.5994 68.0095 37.5778 68.0177 37.5558 68.0246C37.5093 68.0397 37.4631 68.0557 37.4174 68.0743C37.3892 68.0857 37.3614 68.0987 37.3337 68.1115C37.3117 68.1215 37.2894 68.1298 37.2676 68.1409C37.2501 68.15 37.2341 68.1606 37.2169 68.1699C37.2022 68.1779 37.1868 68.1837 37.1725 68.1922C37.1597 68.1996 37.1486 68.2087 37.1361 68.2161C37.096 68.2405 37.0572 68.2663 37.0192 68.2931C36.9977 68.3083 36.9759 68.3229 36.9552 68.3388C36.9085 68.3747 36.8641 68.4127 36.8213 68.452C36.8112 68.4613 36.8004 68.4698 36.7903 68.4791C36.7366 68.5303 36.6861 68.5843 36.6391 68.6408C36.6322 68.6491 36.6264 68.6581 36.6195 68.6666C36.5809 68.7142 36.5448 68.763 36.5111 68.8138C36.4983 68.8329 36.4867 68.8528 36.4747 68.8725C36.4489 68.9142 36.4248 68.9561 36.4022 68.9994C36.39 69.0228 36.3785 69.0462 36.3671 69.0701C36.3469 69.1131 36.3286 69.157 36.3116 69.2013C36.3026 69.2247 36.293 69.2475 36.2848 69.2714C36.2646 69.3299 36.2476 69.3894 36.233 69.4494C36.2306 69.459 36.2274 69.4683 36.225 69.4778C36.2088 69.549 36.1974 69.6215 36.1889 69.6943C36.1884 69.6991 36.187 69.7036 36.1865 69.7084C36.1254 70.2859 34.7386 84.0219 39.1028 99.0206C41.3133 106.618 46.0927 113.028 52.5814 117.3C50.2104 118.491 48.5787 120.945 48.5787 123.774C48.5787 127.523 51.4427 130.615 55.0977 130.979L59.3769 153.989C60.8867 162.107 67.9762 168 76.2342 168H103.76C112.017 168 119.107 162.107 120.617 153.989L124.889 131.015H127.355C131.347 131.015 134.596 127.766 134.596 123.774C134.596 120.141 131.906 117.125 128.414 116.611C134.392 112.352 138.796 106.221 140.891 99.0206ZM126.876 75.8874C123.61 77.8363 119.719 80.2274 115.146 83.1395C115.105 83.1655 115.064 83.1918 115.023 83.2178C114.482 83.5623 113.933 83.9138 113.373 84.2729C113.344 84.2915 113.316 84.3093 113.287 84.3279C113.275 84.1754 113.261 84.0235 113.248 83.8713C113.214 83.4651 113.178 83.0606 113.139 82.6589C117.766 72.9296 123.021 62.3878 128.795 51.2522C129.747 56.4428 130.348 65.3022 126.876 75.8874ZM124.988 49.9363C120.363 58.8674 116.072 67.4166 112.17 75.4714C111.436 71.2626 110.458 67.352 109.324 63.7459C114.781 56.476 120.822 52.2348 124.988 49.9363ZM105.169 63.8251C105.183 63.8875 105.198 63.9499 105.218 64.0115C107.39 70.6373 108.768 77.6171 109.327 84.8017C109.332 84.857 109.336 84.9122 109.34 84.9678C109.371 85.38 109.399 85.793 109.425 86.2064C109.433 86.3248 109.44 86.4433 109.447 86.562C109.454 86.6696 109.458 86.7777 109.464 86.8856C103.026 91.5746 97.7462 97.9271 93.677 105.863C93.6672 105.882 93.6576 105.901 93.6478 105.92C93.493 106.223 93.3394 106.528 93.188 106.836C93.1631 106.887 93.1381 106.938 93.1131 106.989C92.9689 107.284 92.8257 107.58 92.6847 107.879C92.6597 107.932 92.6355 107.985 92.6108 108.038C92.4002 108.488 92.193 108.942 91.9895 109.402V39.2043C93.9594 41.6425 96.528 45.2082 99.1107 49.9074C101.553 54.3515 103.573 58.9981 105.169 63.8251ZM74.776 64.0115C74.7962 63.9499 74.811 63.8875 74.8251 63.8251C76.421 58.9981 78.4413 54.3515 80.8837 49.9074C83.4661 45.2079 86.035 41.6422 88.0052 39.204V109.402C87.8014 108.941 87.594 108.486 87.3828 108.035C87.3586 107.984 87.3347 107.932 87.3103 107.88C87.169 107.58 87.0255 107.283 86.8808 106.988C86.8561 106.937 86.8314 106.886 86.8067 106.836C86.655 106.528 86.5017 106.223 86.3466 105.919C86.337 105.9 86.3272 105.881 86.3174 105.863C82.2483 97.9265 76.9682 91.5744 70.5302 86.885C70.5363 86.7772 70.5408 86.6691 70.5472 86.5615C70.5541 86.4428 70.5618 86.3246 70.5693 86.2058C70.5953 85.7923 70.6232 85.3792 70.6545 84.9672C70.6588 84.912 70.6628 84.8565 70.667 84.8012C71.2262 77.6168 72.6047 70.6373 74.776 64.0115ZM70.6699 63.7459C69.5352 67.352 68.5577 71.2628 67.824 75.4717C63.9228 67.4182 59.6311 58.869 55.0052 49.9363C59.1726 52.2348 65.2135 56.476 70.6699 63.7459ZM51.1999 51.2525C56.9743 62.3902 62.2292 72.9323 66.855 82.6595C66.8162 83.0608 66.7804 83.4654 66.7464 83.8715C66.7336 84.0237 66.719 84.1757 66.7068 84.3281C66.6781 84.3098 66.6502 84.292 66.6215 84.2737C66.0528 83.9087 65.4948 83.552 64.9457 83.2021C64.9181 83.1846 64.8905 83.1668 64.8631 83.1495C60.284 80.233 56.3878 77.8386 53.118 75.8876C49.6454 65.3022 50.2474 56.4428 51.1999 51.2525ZM56.6221 82.682C56.812 82.7994 57.0033 82.9179 57.1945 83.0364C57.624 83.3025 58.061 83.574 58.5059 83.8516C58.8347 84.0569 59.1652 84.2633 59.4977 84.4721C59.7546 84.6333 60.0125 84.7951 60.2744 84.9598C60.7443 85.2557 61.2179 85.5548 61.6947 85.8571C61.8645 85.9646 62.0334 86.0717 62.2053 86.1806C62.771 86.54 63.3413 86.9036 63.9164 87.2718C64.0522 87.3586 64.19 87.4471 64.3268 87.535C64.95 87.9348 65.5766 88.3375 66.2101 88.7468C66.4369 88.8934 66.6611 89.0438 66.885 89.1944C67.0319 89.2937 67.1825 89.3968 67.3411 89.5068C67.3432 89.5083 67.3456 89.5099 67.3478 89.5113C67.348 89.5115 67.3483 89.5115 67.3483 89.5118C75.3508 95.0615 81.5135 103.378 85.7117 114.275C85.7378 114.343 85.763 114.412 85.789 114.48C85.9088 114.794 86.0278 115.109 86.1447 115.427C86.1976 115.572 86.2491 115.719 86.3014 115.864C86.3814 116.087 86.4613 116.308 86.5397 116.533H84.1233C70.7369 110.412 59.5116 97.965 52.4279 88.5529C48.46 83.2808 45.3179 78.3537 43.1777 74.7651C46.2824 76.4781 50.7058 79.0284 56.6221 82.682ZM42.9286 97.9074C40.6368 90.0303 40.0274 82.3981 39.9419 77.1321C42.1152 80.7565 45.2398 85.623 49.1989 90.8888C57.7813 102.304 66.6821 110.896 75.7436 116.533H59.5735C51.4363 113.106 45.3814 106.337 42.9286 97.9074ZM130.612 123.774C130.612 125.569 129.151 127.03 127.355 127.03H80.4343C79.3338 127.03 78.4421 127.922 78.4421 129.022C78.4421 130.123 79.3338 131.015 80.4343 131.015H120.836L116.699 153.26C115.54 159.492 110.099 164.016 103.76 164.016H76.2342C69.8954 164.016 64.4532 159.492 63.2946 153.26L59.1575 131.015H66.179C67.2795 131.015 68.1712 130.123 68.1712 129.022C68.1712 127.922 67.2795 127.03 66.179 127.03H55.8287C55.8196 127.03 55.8287 127.03 55.8196 127.03C54.024 127.03 52.5631 125.569 52.5631 123.774C52.5631 121.978 54.024 120.517 55.8196 120.517H127.355C129.151 120.517 130.612 121.978 130.612 123.774ZM120.421 116.533H104.245C112.726 111.252 121.085 103.369 129.174 93.0053C129.851 92.1378 129.697 90.8859 128.829 90.2091C127.963 89.5328 126.71 89.6866 126.033 90.5538C116.234 103.108 106.109 111.84 95.9388 116.506C95.9213 116.514 95.9051 116.525 95.8878 116.533H93.4547C93.5331 116.309 93.613 116.087 93.693 115.865C93.7453 115.719 93.7966 115.573 93.8497 115.428C93.9663 115.11 94.0853 114.795 94.2054 114.481C94.2314 114.413 94.2566 114.343 94.2827 114.275C98.4809 103.378 104.644 95.062 112.646 89.5123C112.646 89.5121 112.647 89.5121 112.647 89.5118C112.649 89.5102 112.651 89.5086 112.653 89.5073C112.812 89.3973 112.962 89.2945 113.109 89.1952C113.333 89.0443 113.557 88.894 113.784 88.7473C114.416 88.3391 115.041 87.9374 115.663 87.539C115.803 87.4492 115.944 87.3586 116.083 87.2697C116.654 86.9039 117.221 86.5424 117.783 86.1851C117.962 86.0712 118.139 85.9593 118.316 85.8472C118.777 85.555 119.235 85.2658 119.69 84.9794C119.969 84.8039 120.244 84.6309 120.517 84.4596C120.836 84.2596 121.153 84.0614 121.469 83.8646C121.949 83.5653 122.419 83.2725 122.881 82.9865C123.039 82.889 123.196 82.7915 123.352 82.6951C129.281 79.0326 133.713 76.4778 136.822 74.763C136.055 76.0497 135.16 77.5071 134.142 79.0921C133.548 80.0181 133.817 81.2503 134.743 81.8448C135.076 82.0586 135.448 82.1606 135.817 82.1606C136.473 82.1606 137.115 81.8371 137.495 81.2442C138.458 79.7445 139.313 78.3593 140.056 77.1204C139.972 82.3803 139.363 90.0104 137.066 97.9079C134.613 106.337 128.558 113.106 120.421 116.533Z" fill="#1A535C"/>
<path d="M130.611 123.774C130.611 125.569 129.15 127.03 127.355 127.03H80.4337C79.3332 127.03 78.4415 127.922 78.4415 129.022C78.4415 130.123 79.3332 131.015 80.4337 131.015H120.836L116.698 153.26C115.54 159.492 110.098 164.016 103.759 164.016H76.2337C69.8948 164.016 64.4527 159.492 63.294 153.26L59.1569 131.015H66.1784C67.2789 131.015 68.1706 130.123 68.1706 129.022C68.1706 127.922 67.2789 127.03 66.1784 127.03H55.8281C55.8191 127.03 55.8281 127.03 55.8191 127.03C54.0234 127.03 52.5625 125.569 52.5625 123.774C52.5625 121.978 54.0234 120.517 55.8191 120.517H127.354C129.15 120.517 130.611 121.978 130.611 123.774Z" fill="#E97644"/>
</svg>
