<svg width="170" height="164" viewBox="0 0 170 164" fill="none" xmlns="http://www.w3.org/2000/svg">
<path fill-rule="evenodd" clip-rule="evenodd" d="M140.482 162.169C153.639 148.396 161.719 129.732 161.719 109.182C161.719 66.81 127.37 32.4609 84.9981 32.4609C42.6264 32.4609 8.27734 66.81 8.27734 109.182C8.27734 129.732 16.3575 148.396 29.5141 162.169H140.482Z" fill="#A6D892"/>
<rect y="162.169" width="170" height="1.65584" fill="#104366"/>
<path d="M109.01 117.737C106.802 111.114 106.986 101.363 107.354 97.3149H96.0395H88.8641H81.1369H63.1986V112.218C63.1986 119.669 55.1953 132.364 55.1953 142.023C55.1953 149.75 62.5546 159.225 66.2343 162.997H104.319C110.39 156.925 115.358 147.818 115.358 138.987C115.358 130.156 111.77 126.016 109.01 117.737Z" fill="#24BBC7"/>
<path fill-rule="evenodd" clip-rule="evenodd" d="M111.598 124.637H59.6797C59.6011 124.845 59.5221 125.054 59.4429 125.264C57.7987 129.615 56.0663 134.199 55.37 138.435H115.211C115.112 132.729 113.488 128.989 111.612 124.668C111.607 124.658 111.603 124.647 111.598 124.637ZM114.718 143.955H55.1953C55.8662 148.672 58.8011 153.787 61.7066 157.754H108.585C111.496 153.638 113.761 148.849 114.718 143.955Z" fill="#B0FAE9"/>
<path d="M76.7577 77.886C79.271 85.2768 80.6476 92.8086 81.1374 97.3149H88.8647C87.9772 86.8264 87.9672 64.719 93.787 50.9513C89.6625 47.6396 82.2965 38.8084 85.829 29.9773C90.2446 18.9383 121.982 1 139.92 1C138.632 9.73918 134.566 29.3149 128.605 37.7045C121.154 48.1916 108.414 65.5779 93.787 50.9513C87.9672 64.719 87.9772 86.8264 88.8647 97.3149H96.04V82.6883C96.224 80.8485 97.2543 76.5065 99.9037 73.8571C103.215 70.5454 107.079 67.5097 125.293 62.8182C139.865 59.0649 148.475 57.0227 150.959 56.4708L145.991 63.9221C142.9 68.5584 135.136 73.7651 131.641 75.789C127.593 78.4567 117.952 83.7922 111.771 83.7922C105.589 83.7922 101.284 77.1688 99.9037 73.8571C97.2543 76.5065 96.224 80.8485 96.04 82.6883V97.3149H88.8647H81.1374C80.6476 92.8086 79.271 85.2768 76.7577 77.886C71.9247 81.2664 66.3432 82.6883 63.1991 82.6883C56.8517 82.6883 49.4079 73.8571 41.9491 62.8182C31.8798 47.9156 32.29 35.3128 30.9102 26.6656C36.0617 27.4015 46.8615 29.0942 48.8485 29.9773C48.8485 29.9773 51.0563 30.5292 57.1277 33.289C63.1991 36.0487 65.4069 37.7045 65.4069 37.7045C72.0303 41.5682 85.829 51.5032 85.829 60.8864C85.829 68.9644 81.6819 74.4418 76.7577 77.886Z" fill="#5AD0CD"/>
<path d="M49.0507 51.6183C47.5053 50.0728 44.3591 48.7666 42.9793 48.3066C40.1091 44.5533 41.7834 40.3033 42.9793 38.6475C44.5431 37.7276 48.4436 36.4397 51.5345 38.6475C55.3981 41.4072 52.3624 41.4072 55.6741 44.9949C58.9858 48.5826 59.5377 45.2709 62.8494 48.3066C66.1611 51.3423 63.6773 51.0663 66.4371 53.8261C69.1968 56.5858 70.0247 53.8261 72.5085 56.5858C74.9923 59.3456 72.5085 61.0014 74.7163 63.7611C76.9241 66.5209 77.2001 64.865 79.6838 67.0728C82.1676 69.2806 80.5117 73.9722 77.2001 77.2839C73.8884 80.5956 69.1968 80.0436 66.989 77.8358C64.7812 75.628 66.989 74.8001 64.5053 72.3163C62.0215 69.8326 59.8137 71.7644 57.8819 69.8326C55.9501 67.9007 58.7098 66.2449 56.778 63.7611C54.8462 61.2774 53.4663 62.9332 51.5345 60.1735C49.6027 57.4137 50.9825 53.5501 49.0507 51.6183Z" fill="#A6EBF6"/>
<path d="M114.437 19.7002C115.71 17.9233 116.485 14.6062 116.714 13.1698C119.948 9.7257 124.415 10.684 126.243 11.5937C127.406 12.9865 129.313 16.6245 127.639 20.0343C125.547 24.2964 125.052 21.3014 122.052 25.1541C119.053 29.0068 122.411 29.011 119.956 32.7736C117.501 36.5363 117.368 34.0407 115.096 37.2138C112.823 40.3869 115.681 40.7534 113.364 43.6542C111.046 46.5549 109.007 44.3747 106.645 47.0032C104.282 49.6317 105.961 49.6338 104.188 52.4445C102.415 55.2552 97.5162 54.3871 93.7086 51.6601C89.9009 48.9332 89.6799 44.2144 91.4979 41.676C93.3159 39.1375 94.4929 41.1807 96.5381 38.3249C98.5834 35.4692 96.3172 33.6062 97.9079 31.385C99.4986 29.1639 101.583 31.6165 103.718 29.3053C105.853 26.994 103.994 25.9029 106.402 23.5466C108.809 21.1904 112.846 21.9213 114.437 19.7002Z" fill="#A6EBF6"/>
<path fill-rule="evenodd" clip-rule="evenodd" d="M99.9023 73.8055C103.214 70.4938 107.078 67.4581 125.292 62.7666C126.717 62.3996 128.084 62.049 129.395 61.7146C129.203 62.6973 128.737 63.7229 127.776 64.4643C126.501 65.4481 126.057 65.3913 125.506 65.3209C125.014 65.2579 124.436 65.1841 123.106 65.8298C121.638 66.5429 121.458 67.1434 121.273 67.763C121.103 68.3331 120.928 68.9194 119.739 69.6246C118.436 70.3978 117.991 70.3575 117.543 70.3168C117.137 70.28 116.729 70.2429 115.681 70.8047C114.577 71.3965 114.41 71.9477 114.25 72.4777C114.09 73.0077 113.936 73.5165 112.858 74.0235C111.748 74.5449 111.062 74.3134 110.371 74.0801C109.718 73.8597 109.061 73.6378 108.038 74.0481C106.89 74.5086 106.655 74.8598 106.384 75.265C106.158 75.6029 105.907 75.9784 105.08 76.486C103.619 77.3833 101.669 76.3397 100.222 74.5198C100.102 74.2686 99.9957 74.0295 99.9023 73.8055Z" fill="#A6EBF6"/>
<path d="M59.0595 97.3149H81.1374M111.771 97.3149H107.355M107.355 97.3149C106.987 101.363 106.803 111.114 109.011 117.737C111.771 126.016 115.358 130.156 115.358 138.987C115.358 147.818 110.391 156.925 104.319 162.997H66.2348C62.5552 159.225 55.1959 149.75 55.1959 142.023C55.1959 132.364 63.1991 119.669 63.1991 112.218M107.355 97.3149H96.04M81.1374 97.3149C80.2175 88.8517 76.1699 69.7175 67.3387 60.8864C58.5076 52.0552 39.3734 34.3929 30.9102 26.6656M81.1374 97.3149H88.8647M30.9102 26.6656C32.29 35.3128 31.8798 47.9156 41.9491 62.8182C49.4079 73.8571 56.8517 82.6883 63.1991 82.6883C69.5465 82.6883 85.829 76.8929 85.829 60.8864C85.829 51.5032 72.0303 41.5682 65.4069 37.7045M30.9102 26.6656C36.0617 27.4015 46.8615 29.0942 48.8485 29.9773M88.8647 97.3149C87.9772 86.8264 87.9672 64.719 93.787 50.9513M88.8647 97.3149H96.04M139.92 1C129.065 10.6591 105.202 33.1234 96.592 45.7078C95.5333 47.2551 94.6029 49.0212 93.787 50.9513M139.92 1C138.632 9.73918 134.566 29.3149 128.605 37.7045C121.154 48.1916 108.414 65.5779 93.787 50.9513M139.92 1C121.982 1 90.2446 18.9383 85.829 29.9773C82.2965 38.8084 89.6625 47.6396 93.787 50.9513M96.04 97.3149V82.6883C96.224 80.8485 97.2543 76.5065 99.9037 73.8571M99.9037 73.8571C103.215 70.5454 107.079 67.5097 125.293 62.8182C139.865 59.0649 148.475 57.0227 150.959 56.4708L145.991 63.9221M99.9037 73.8571C101.284 77.1688 105.589 83.7922 111.771 83.7922C117.952 83.7922 127.593 78.4567 131.641 75.789" stroke="#0D4365" stroke-width="2" stroke-linecap="round" stroke-linejoin="round"/>
</svg>
