<svg width="234" height="29" viewBox="0 0 234 29" fill="none" xmlns="http://www.w3.org/2000/svg">
<path d="M24.816 0.675998L19.536 28H6.028L0.44 0.675998H10.604L12.716 17.44H13.244L15.136 0.675998H24.816ZM36.5736 28H27.2896V0.675998H36.5736V28ZM63.4019 0.675998L58.1219 28H44.6139L39.0259 0.675998H49.1899L51.3019 17.44H51.8299L53.7219 0.675998H63.4019ZM83.0356 28H65.6116V0.675998H83.6516L83.0356 7.936H75.0276V11.236H82.0236V17.572H75.0276V21.312H83.6516L83.0356 28ZM107.497 9.476C107.497 11.236 107.203 12.644 106.617 13.7C106.059 14.7267 105.179 15.636 103.977 16.428L108.069 28H98.3448L95.6168 18.584H94.9128V28H85.8928V0.675998H97.5528C100.955 0.675998 103.463 1.39466 105.077 2.832C106.69 4.24 107.497 6.45466 107.497 9.476ZM95.8368 13.216C96.5115 13.216 96.9808 13.0253 97.2448 12.644C97.5381 12.2333 97.6848 11.5293 97.6848 10.532C97.6848 9.53467 97.5381 8.84533 97.2448 8.464C96.9515 8.08267 96.4968 7.892 95.8808 7.892H94.7368V13.216H95.8368ZM109.806 14.184C109.806 9.28533 110.774 5.736 112.71 3.536C114.675 1.336 117.887 0.235998 122.346 0.235998C126.834 0.235998 130.031 1.32133 131.938 3.492C133.874 5.66267 134.842 9.19733 134.842 14.096C134.842 18.9653 133.844 22.5733 131.85 24.92C129.884 27.2667 126.687 28.44 122.258 28.44C117.858 28.44 114.675 27.2813 112.71 24.964C110.774 22.6467 109.806 19.0533 109.806 14.184ZM124.81 8.948C124.428 8.18533 123.607 7.804 122.346 7.804C121.084 7.804 120.278 8.17067 119.926 8.904C119.574 9.63733 119.398 11.2067 119.398 13.612V15.548C119.398 18.012 119.588 19.6107 119.97 20.344C120.351 21.0773 121.187 21.444 122.478 21.444C123.768 21.444 124.575 21.092 124.898 20.388C125.22 19.684 125.382 18.1147 125.382 15.68V13.656C125.382 11.2507 125.191 9.68133 124.81 8.948ZM154.501 14.668C154.501 16.8973 154.751 18.5253 155.249 19.552C155.748 20.5493 156.584 21.048 157.757 21.048C158.931 21.048 160.881 20.7253 163.609 20.08L165.017 27.076C162.143 27.9853 159.371 28.44 156.701 28.44C152.624 28.44 149.647 27.2813 147.769 24.964C145.921 22.6173 144.997 19.1413 144.997 14.536C144.997 9.90133 145.965 6.36667 147.901 3.932C149.837 1.468 152.991 0.235998 157.361 0.235998C159.913 0.235998 162.465 0.734665 165.017 1.732L163.565 9.564C160.661 8.71333 158.667 8.288 157.581 8.288C156.525 8.288 155.748 8.80133 155.249 9.828C154.751 10.8253 154.501 12.4387 154.501 14.668ZM182.742 28H166.33V0.675998H175.746V20.916H183.358L182.742 28ZM194.186 18.32C194.186 19.904 194.89 20.696 196.298 20.696C197.735 20.696 198.454 19.8893 198.454 18.276V0.675998H207.87V18.848C207.87 22.0747 206.858 24.48 204.834 26.064C202.81 27.648 199.906 28.44 196.122 28.44C188.437 28.44 184.594 25.272 184.594 18.936V0.675998H194.186V18.32ZM233.886 19.992C233.886 25.3307 230.572 28 223.942 28H211.49V0.675998H223.766C227.052 0.675998 229.472 1.26266 231.026 2.436C232.61 3.60933 233.402 5.41333 233.402 7.848C233.402 10.2827 232.376 12.16 230.322 13.48V13.656C232.698 14.7413 233.886 16.8533 233.886 19.992ZM222.138 22.544C222.93 22.544 223.458 22.3827 223.722 22.06C223.986 21.708 224.118 20.9893 224.118 19.904C224.118 18.8187 223.972 18.056 223.678 17.616C223.414 17.1467 222.901 16.912 222.138 16.912H220.862V22.544H222.138ZM222.182 12.072C222.71 12.072 223.092 11.896 223.326 11.544C223.59 11.192 223.722 10.5907 223.722 9.74C223.722 8.86 223.59 8.22933 223.326 7.848C223.092 7.46667 222.696 7.276 222.138 7.276H220.862V12.072H222.182Z" fill="white"/>
</svg>
