<svg width="171" height="22" viewBox="0 0 171 22" fill="none" xmlns="http://www.w3.org/2000/svg">
<path d="M18.048 1.128L14.208 21H4.384L0.32 1.128H7.712L9.248 13.32H9.632L11.008 1.128H18.048ZM26.599 21H19.847V1.128H26.599V21ZM46.1105 1.128L42.2705 21H32.4465L28.3825 1.128H35.7745L37.3105 13.32H37.6945L39.0705 1.128H46.1105ZM60.3895 21H47.7175V1.128H60.8375L60.3895 6.408H54.5655V8.808H59.6535V13.416H54.5655V16.136H60.8375L60.3895 21ZM78.1795 7.528C78.1795 8.808 77.9662 9.832 77.5395 10.6C77.1342 11.3467 76.4942 12.008 75.6195 12.584L78.5955 21H71.5235L69.5395 14.152H69.0275V21H62.4675V1.128H70.9475C73.4222 1.128 75.2462 1.65067 76.4195 2.696C77.5928 3.72 78.1795 5.33067 78.1795 7.528ZM69.6995 10.248C70.1902 10.248 70.5315 10.1093 70.7235 9.832C70.9368 9.53333 71.0435 9.02133 71.0435 8.296C71.0435 7.57067 70.9368 7.06933 70.7235 6.792C70.5102 6.51467 70.1795 6.376 69.7315 6.376H68.8995V10.248H69.6995ZM79.8588 10.952C79.8588 7.38933 80.5628 4.808 81.9708 3.208C83.4001 1.608 85.7361 0.807999 88.9788 0.807999C92.2428 0.807999 94.5681 1.59733 95.9548 3.176C97.3628 4.75467 98.0668 7.32533 98.0668 10.888C98.0668 14.4293 97.3414 17.0533 95.8908 18.76C94.4614 20.4667 92.1361 21.32 88.9148 21.32C85.7148 21.32 83.4001 20.4773 81.9708 18.792C80.5628 17.1067 79.8588 14.4933 79.8588 10.952ZM90.7708 7.144C90.4934 6.58933 89.8961 6.312 88.9788 6.312C88.0614 6.312 87.4748 6.57867 87.2188 7.112C86.9628 7.64533 86.8348 8.78667 86.8348 10.536V11.944C86.8348 13.736 86.9734 14.8987 87.2508 15.432C87.5281 15.9653 88.1361 16.232 89.0748 16.232C90.0134 16.232 90.6001 15.976 90.8348 15.464C91.0694 14.952 91.1868 13.8107 91.1868 12.04V10.568C91.1868 8.81867 91.0481 7.67733 90.7708 7.144ZM112.365 11.304C112.365 12.9253 112.546 14.1093 112.909 14.856C113.271 15.5813 113.879 15.944 114.733 15.944C115.586 15.944 117.005 15.7093 118.989 15.24L120.013 20.328C117.922 20.9893 115.906 21.32 113.965 21.32C110.999 21.32 108.834 20.4773 107.469 18.792C106.125 17.0853 105.453 14.5573 105.453 11.208C105.453 7.83733 106.157 5.26667 107.565 3.496C108.973 1.704 111.266 0.807999 114.445 0.807999C116.301 0.807999 118.157 1.17067 120.013 1.896L118.957 7.592C116.845 6.97333 115.394 6.664 114.605 6.664C113.837 6.664 113.271 7.03733 112.909 7.784C112.546 8.50933 112.365 9.68267 112.365 11.304ZM132.904 21H120.968V1.128H127.816V15.848H133.352L132.904 21ZM141.226 13.96C141.226 15.112 141.738 15.688 142.762 15.688C143.808 15.688 144.33 15.1013 144.33 13.928V1.128H151.178V14.344C151.178 16.6907 150.442 18.44 148.97 19.592C147.498 20.744 145.386 21.32 142.634 21.32C137.045 21.32 134.25 19.016 134.25 14.408V1.128H141.226V13.96ZM170.099 15.176C170.099 19.0587 167.689 21 162.867 21H153.811V1.128H162.739C165.129 1.128 166.889 1.55467 168.019 2.408C169.171 3.26133 169.747 4.57333 169.747 6.344C169.747 8.11467 169.001 9.48 167.507 10.44V10.568C169.235 11.3573 170.099 12.8933 170.099 15.176ZM161.555 17.032C162.131 17.032 162.515 16.9147 162.707 16.68C162.899 16.424 162.995 15.9013 162.995 15.112C162.995 14.3227 162.889 13.768 162.675 13.448C162.483 13.1067 162.11 12.936 161.555 12.936H160.627V17.032H161.555ZM161.587 9.416C161.971 9.416 162.249 9.288 162.419 9.032C162.611 8.776 162.707 8.33867 162.707 7.72C162.707 7.08 162.611 6.62133 162.419 6.344C162.249 6.06667 161.961 5.928 161.555 5.928H160.627V9.416H161.587Z" fill="#39375B"/>
</svg>
