<svg width="190" height="23" viewBox="0 0 190 23" fill="none" xmlns="http://www.w3.org/2000/svg">
<path d="M19.8394 0.358814L15.5421 22.6412H4.54802L0 0.358814H8.27239L9.99133 14.0296H10.4211L11.9609 0.358814H19.8394Z" fill="white"/>
<path d="M29.4088 22.6412H21.8527V0.358814H29.4088V22.6412Z" fill="white"/>
<path d="M51.2442 0.358814L46.9468 22.6412H35.9528L31.4048 0.358814H39.6771L41.3961 14.0296H41.8258L43.3657 0.358814H51.2442Z" fill="white"/>
<path d="M67.2238 22.6412H53.0426V0.358814H67.7252L67.2238 6.27925H60.7062V8.97036H66.4001V14.1373H60.7062V17.1872H67.7252L67.2238 22.6412Z" fill="white"/>
<path d="M87.1326 7.5351C87.1326 8.97036 86.8939 10.1186 86.4164 10.9797C85.9628 11.817 85.2465 12.5585 84.2677 13.2044L87.5981 22.6412H79.6839L77.4636 14.9626H76.8906V22.6412H69.5493V0.358814H79.0393C81.8087 0.358814 83.8499 0.944878 85.163 2.11701C86.4761 3.26521 87.1326 5.07124 87.1326 7.5351ZM77.6426 10.585C78.1917 10.585 78.5737 10.4295 78.7886 10.1186C79.0273 9.78367 79.1467 9.20957 79.1467 8.39626C79.1467 7.58294 79.0273 7.0208 78.7886 6.70983C78.5498 6.39886 78.1798 6.24337 77.6784 6.24337H76.7473V10.585H77.6426Z" fill="white"/>
<path d="M89.0118 11.3744C89.0118 7.37961 89.7997 4.48518 91.3754 2.69111C92.9749 0.897036 95.5892 0 99.218 0C102.871 0 105.473 0.885075 107.025 2.65523C108.601 4.42538 109.388 7.30785 109.388 11.3027C109.388 15.2735 108.577 18.2158 106.953 20.1295C105.354 22.0432 102.751 23 99.1464 23C95.5653 23 92.9749 22.0551 91.3754 20.1654C89.7997 18.2756 89.0118 15.3453 89.0118 11.3744ZM101.223 7.10452C100.913 6.48258 100.245 6.17161 99.218 6.17161C98.1915 6.17161 97.5349 6.47062 97.2484 7.06864C96.9619 7.66667 96.8187 8.94644 96.8187 10.908V12.4867C96.8187 14.4961 96.9739 15.7998 97.2842 16.3978C97.5946 16.9958 98.275 17.2949 99.3255 17.2949C100.376 17.2949 101.032 17.0078 101.295 16.4337C101.558 15.8596 101.689 14.5798 101.689 12.5944V10.9438C101.689 8.98232 101.534 7.70255 101.223 7.10452Z" fill="white"/>
<path d="M125.389 11.7691C125.389 13.5871 125.592 14.9147 125.998 15.7519C126.404 16.5653 127.084 16.9719 128.039 16.9719C128.994 16.9719 130.582 16.7088 132.802 16.1825L133.948 21.8877C131.608 22.6292 129.352 23 127.18 23C123.861 23 121.438 22.0551 119.91 20.1654C118.406 18.2517 117.654 15.4171 117.654 11.6615C117.654 7.88196 118.442 4.99948 120.017 3.01404C121.593 1.00468 124.16 0 127.717 0C129.794 0 131.871 0.406657 133.948 1.21997L132.766 7.60686C130.403 6.91316 128.779 6.5663 127.896 6.5663C127.036 6.5663 126.404 6.98492 125.998 7.82215C125.592 8.63547 125.389 9.95112 125.389 11.7691Z" fill="white"/>
<path d="M148.374 22.6412H135.017V0.358814H142.68V16.8643H148.876L148.374 22.6412Z" fill="white"/>
<path d="M157.688 14.7473C157.688 16.039 158.261 16.6849 159.407 16.6849C160.577 16.6849 161.162 16.027 161.162 14.7114V0.358814H168.826V15.1778C168.826 17.8092 168.002 19.7707 166.355 21.0624C164.707 22.3541 162.344 23 159.264 23C153.009 23 149.881 20.4165 149.881 15.2496V0.358814H157.688V14.7473Z" fill="white"/>
<path d="M190 16.1108C190 20.4644 187.302 22.6412 181.907 22.6412H171.772V0.358814H181.763C184.437 0.358814 186.407 0.837233 187.672 1.79407C188.961 2.75091 189.606 4.22205 189.606 6.20749C189.606 8.19293 188.77 9.72387 187.099 10.8003V10.9438C189.033 11.8289 190 13.5512 190 16.1108ZM180.438 18.1919C181.083 18.1919 181.513 18.0603 181.728 17.7972C181.942 17.5101 182.05 16.9241 182.05 16.039C182.05 15.1539 181.931 14.532 181.692 14.1732C181.477 13.7904 181.059 13.5991 180.438 13.5991H179.4V18.1919H180.438ZM180.474 9.65211C180.904 9.65211 181.214 9.50858 181.405 9.22153C181.62 8.93448 181.728 8.4441 181.728 7.75039C181.728 7.03276 181.62 6.51846 181.405 6.20749C181.214 5.89652 180.892 5.74103 180.438 5.74103H179.4V9.65211H180.474Z" fill="white"/>
</svg>
