<svg width="100" height="100" viewBox="0 0 100 100" fill="none" xmlns="http://www.w3.org/2000/svg">
<path d="M12.7001 47.4501V17.7499C12.7001 15.513 14.5132 13.6999 16.7501 13.6999H70.7502C72.9871 13.6999 74.8002 15.513 74.8002 17.7499V26.3305H74.7881L74.8002 26.3616V47.4501C74.7894 47.6849 74.7597 47.9198 74.7084 48.1494L62.3424 35.782C59.4966 33.0024 54.9376 33.055 52.158 35.9008C49.5066 38.6142 49.4148 42.918 51.9474 45.7423L57.2192 51.5001H16.7499C14.513 51.5001 12.7001 49.687 12.7001 47.4501Z" fill="#E97644"/>
<path d="M22.15 33.9502H16.75V36.6502H22.15V33.9502Z" fill="#1A535C"/>
<path d="M22.15 42.05H16.75V44.7501H22.15V42.05Z" fill="#1A535C"/>
<path d="M46.4508 42.05H41.0508V44.7501H46.4508V42.05Z" fill="#1A535C"/>
<path d="M30.2515 33.9502H24.8516V36.6502H30.2515V33.9502Z" fill="#1A535C"/>
<path d="M38.3492 33.9502H32.9492V36.6502H38.3492V33.9502Z" fill="#1A535C"/>
<path d="M46.4508 33.9502H41.0508V36.6502H46.4508V33.9502Z" fill="#1A535C"/>
<path d="M69.3993 17.7498H66.6992V21.7998H69.3993V17.7498Z" fill="#1A535C"/>
<path d="M63.9969 17.7498H61.2969V21.7998H63.9969V17.7498Z" fill="#1A535C"/>
<path d="M58.5985 17.7498H55.8984V21.7998H58.5985V17.7498Z" fill="#1A535C"/>
<path d="M53.2001 17.7498H50.5V21.7998H53.2001V17.7498Z" fill="#1A535C"/>
<path d="M72.0985 81.2002H69.3984V83.9003H72.0985V81.2002Z" fill="#0F6176"/>
<path d="M20.8 21.7998H16.75V24.4999H20.8V21.7998Z" fill="#1A535C"/>
<path d="M27.55 21.7998H23.5V24.4999H27.55V21.7998Z" fill="#1A535C"/>
<path d="M81.55 58.25C81.1923 58.25 80.848 58.1083 80.5956 57.8545L75.1956 52.4545C74.6772 51.9186 74.6921 51.064 75.2294 50.5456C75.7532 50.0408 76.5821 50.0408 77.1045 50.5456L82.5045 55.9456C83.031 56.4735 83.031 57.328 82.5045 57.8545C82.2507 58.1083 81.9078 58.25 81.55 58.25Z" fill="#1A535C"/>
<path d="M77.5001 25.3019V17.7499C77.496 14.024 74.476 11.004 70.75 11H16.7499C13.024 11.004 10.004 14.024 10 17.7499V47.4499C10.0108 50.8978 12.623 53.78 16.0534 54.1297L21.128 67.303C22.4685 70.782 26.3741 72.5154 29.853 71.1749L61.5429 58.9682C59.3531 64.6881 59.9756 71.1034 63.225 76.2955L64 77.5361V90.65C64 91.3952 64.6047 92 65.3499 92H89.6499C90.3951 92 90.9999 91.3952 90.9999 90.65V46.0879C90.9878 41.4195 89.1287 36.947 85.828 33.6449L77.5001 25.3019ZM77.5001 33.3749L81.5974 44.0116C82.4007 46.0986 81.3599 48.4422 79.2727 49.2455L76.9304 50.15C77.3044 49.2994 77.4988 48.3802 77.5001 47.4499V33.3749ZM12.7001 47.4501V17.7499C12.7001 15.513 14.5132 13.6999 16.7501 13.6999H70.7502C72.9871 13.6999 74.8002 15.513 74.8002 17.7499V26.3305H74.7881L74.8002 26.3616V47.4501C74.7894 47.6849 74.7597 47.9198 74.7084 48.1494L62.3424 35.782C59.4966 33.0024 54.9376 33.055 52.158 35.9008C49.5066 38.6142 49.4148 42.918 51.9474 45.7423L57.2192 51.5001H16.7499C14.513 51.5001 12.7001 49.687 12.7001 47.4501ZM29.9949 54.2L20.395 57.8963L18.9748 54.2H29.9949ZM28.8825 68.6558C26.7954 69.4604 24.4518 68.4196 23.6472 66.3324L21.3698 60.4099L37.4847 54.1999V54.1919H59.6935L61.4486 56.1049L28.8825 68.6558ZM88.3001 89.3001H66.7V78.5001H88.3001V89.3001ZM88.3001 75.8001H66.0992L65.5133 74.8645C62.2221 69.6049 62.0911 62.9602 65.1718 57.575C65.4634 57.0647 65.3918 56.4261 64.9949 55.9928L53.9316 43.9237C52.255 42.0878 52.3832 39.2405 54.2191 37.5625C55.9944 35.9412 58.7308 36.0005 60.4331 37.6975L81.9454 59.2045L83.8543 57.2956L78.8592 52.3005L80.2444 51.7605C83.7206 50.4199 85.4527 46.5171 84.1148 43.0395L79.545 31.1742L83.9191 35.5564C86.7136 38.3496 88.2891 42.1363 88.2998 46.0877L88.3001 75.8001Z" fill="#1A535C"/>
<path d="M25.3884 29.9C27.327 29.9 28.8983 28.3286 28.8983 26.3901V19.9101C28.8983 17.9714 27.3269 16.4001 25.3884 16.4001H18.9084C16.9697 16.4001 15.3984 17.9716 15.3984 19.9101V26.3901C15.3984 28.3287 16.9699 29.9 18.9084 29.9H25.3884ZM18.0984 26.3901V24.5001H20.7983V21.8H18.0984V19.9101C18.0984 19.4633 18.4615 19.1001 18.9084 19.1001H25.3884C25.8352 19.1001 26.1984 19.4632 26.1984 19.9101V21.8H23.4983V24.5001H26.1984V26.3901C26.1984 26.8369 25.8353 27.2001 25.3884 27.2001H18.9084C18.4615 27.2 18.0984 26.8369 18.0984 26.3901Z" fill="white"/>
<path d="M22.15 33.9502H16.75V36.6502H22.15V33.9502Z" fill="white"/>
<path d="M22.15 42.05H16.75V44.7501H22.15V42.05Z" fill="white"/>
<path d="M46.4508 42.05H41.0508V44.7501H46.4508V42.05Z" fill="white"/>
<path d="M30.2515 33.9502H24.8516V36.6502H30.2515V33.9502Z" fill="white"/>
<path d="M38.3492 33.9502H32.9492V36.6502H38.3492V33.9502Z" fill="white"/>
<path d="M46.4508 33.9502H41.0508V36.6502H46.4508V33.9502Z" fill="white"/>
<path d="M69.3993 17.7498H66.6992V21.7998H69.3993V17.7498Z" fill="white"/>
<path d="M63.9969 17.7498H61.2969V21.7998H63.9969V17.7498Z" fill="white"/>
<path d="M58.5985 17.7498H55.8984V21.7998H58.5985V17.7498Z" fill="white"/>
<path d="M53.2001 17.7498H50.5V21.7998H53.2001V17.7498Z" fill="white"/>
<path d="M72.0985 81.2002H69.3984V83.9003H72.0985V81.2002Z" fill="#0F6176"/>
</svg>
